<?xml version="1.0" encoding="utf-8"?>
<svg width="134" height="60" viewBox="0 0 134 60" fill="none" xmlns="http://www.w3.org/2000/svg">
<path d="M79.8875 32.0097C78.9748 34.5639 78.0599 37.1159 77.1561 39.6746C77.0778 39.896 76.9816 39.9654 76.7512 39.9609C75.7692 39.9475 74.7871 39.9453 73.8051 39.9609C73.5434 39.9654 73.4941 39.8804 73.4941 39.6366C73.5031 37.1114 73.4986 34.5863 73.4986 32.0589C73.4986 31.9381 73.4986 31.8173 73.4986 31.6965C73.483 31.6943 73.4673 31.6921 73.4494 31.6876C73.3018 32.3273 73.1541 32.967 73.0087 33.6066C72.5434 35.642 72.0759 37.6773 71.6195 39.7126C71.577 39.8983 71.5099 39.9564 71.3198 39.9564C69.4877 39.9497 67.6556 39.9497 65.8235 39.9564C65.602 39.9564 65.5797 39.8871 65.6199 39.6925C67.0538 32.419 68.481 25.1455 69.906 17.8697C69.9418 17.6885 70 17.6214 70.1968 17.6214C72.3935 17.6281 74.5903 17.6304 76.787 17.6214C77.0577 17.6214 77.0443 17.7534 77.042 17.9345C77.0398 20.4597 77.042 22.9849 77.042 25.5123C77.042 25.6107 77.042 25.7091 77.042 25.8455C77.1583 25.7628 77.1695 25.6621 77.2053 25.5771C78.2701 23.0162 79.3349 20.4552 80.3908 17.8921C80.4713 17.6997 80.5586 17.6214 80.78 17.6237C83.1177 17.6326 85.4576 17.6326 87.7952 17.6237C88.0458 17.6237 88.0905 17.6818 88.0436 17.9278C87.1756 22.4033 86.3144 26.8788 85.4531 31.3566C84.9207 34.1188 84.3861 36.8833 83.8626 39.6478C83.8156 39.8938 83.7262 39.9654 83.4734 39.9631C81.8851 39.9497 80.2946 39.952 78.7041 39.9609C78.4782 39.9609 78.3909 39.9475 78.4469 39.6701C78.9479 37.2099 79.4311 34.7451 79.9188 32.2825C79.9277 32.2333 79.93 32.1819 79.9345 32.1327C79.9814 32.041 79.9345 31.9403 79.9613 31.8486C79.9792 31.795 80.0306 31.7525 80.0172 31.7055C80.015 31.7435 79.9814 31.7883 79.9591 31.8375C79.9591 31.909 79.9389 31.9694 79.8785 32.0164L79.8875 32.0097Z" fill="black"/>
<path d="M96.656 17.6326C98.5798 17.6326 100.504 17.6371 102.427 17.6259C102.656 17.6259 102.691 17.6885 102.656 17.8943C102.316 19.8424 101.98 21.7905 101.656 23.7408C101.615 23.9757 101.535 24.0473 101.291 24.045C99.4679 24.0338 97.647 24.045 95.8238 24.0316C95.5822 24.0316 95.4883 24.1054 95.4391 24.3313C95.3362 24.7943 95.2154 25.2528 95.0811 25.7068C95.014 25.935 95.0834 25.982 95.3026 25.9797C97.1146 25.973 98.9265 25.9797 100.738 25.9708C101.018 25.9708 101.092 26.0133 101.029 26.3174C100.743 27.7109 100.481 29.1088 100.222 30.5067C100.184 30.7057 100.117 30.7862 99.8929 30.7862C98.1123 30.7751 96.3294 30.784 94.5487 30.7751C94.3295 30.7751 94.2333 30.8287 94.1819 31.0546C94.0521 31.6339 93.8911 32.2087 93.7322 32.7813C93.6763 32.9849 93.7054 33.052 93.9403 33.052C95.7321 33.0408 97.5239 33.0519 99.3158 33.0408C99.5775 33.0408 99.6647 33.081 99.6155 33.3673C99.2643 35.4876 98.9288 37.6102 98.5977 39.7328C98.5686 39.9162 98.5037 39.9587 98.3315 39.9587C94.504 39.9542 90.6787 39.9542 86.8512 39.9587C86.6141 39.9587 86.5895 39.8782 86.6253 39.6769C87.3255 35.8477 88.0234 32.0164 88.7191 28.185C89.3365 24.7809 89.954 21.3767 90.5602 17.9703C90.6072 17.7019 90.6944 17.6169 90.9763 17.6192C92.8688 17.6348 94.7635 17.6259 96.656 17.6259V17.6326Z" fill="black"/>
<path d="M62.2555 17.6326C63.7834 17.6326 65.3135 17.6371 66.8413 17.6281C67.0807 17.6281 67.1881 17.6281 67.1321 17.9413C66.7518 20.0772 66.3939 22.2155 66.045 24.3559C66.0069 24.5863 65.9242 24.6221 65.7184 24.6198C64.0786 24.5885 62.4389 24.5684 60.7992 24.546C60.6381 24.546 60.4748 24.5393 60.3138 24.555C59.5778 24.6288 59.0834 24.9844 58.9537 25.7963C58.6248 27.8473 58.2222 29.8871 57.8441 31.9292C57.6808 32.8104 58.211 33.459 59.1147 33.4747C60.7545 33.5015 62.3942 33.5351 64.0317 33.5574C64.233 33.5597 64.309 33.582 64.2733 33.8214C63.9757 35.8075 63.6916 37.7936 63.412 39.782C63.3829 39.9833 63.2644 39.9609 63.1324 39.9609C62.3226 39.9609 61.5128 39.9609 60.703 39.9609C58.6673 39.9609 56.6339 39.9408 54.5983 39.9676C53.3209 39.9855 52.444 39.4085 51.8468 38.3259C51.6163 37.9077 51.4575 37.4626 51.3434 36.9996C51.3166 36.8878 51.3188 36.7804 51.3345 36.6686C51.9586 32.5084 52.5782 28.3483 53.2136 24.1904C53.359 23.2354 53.4529 22.2669 53.7437 21.3387C54.2851 19.6187 55.3499 18.3774 57.0724 17.7444C57.2849 17.6662 57.4974 17.6326 57.7233 17.6326C59.2311 17.6371 60.7388 17.6348 62.2488 17.6348L62.2555 17.6326Z" fill="black"/>
<path d="M79.8875 32.0097C79.9054 31.9471 79.9233 31.8844 79.9412 31.8218C79.9635 31.795 79.9837 31.7972 80.0083 31.8218C80.0016 31.9292 80.0172 32.0388 79.9434 32.1305C79.9255 32.0902 79.9076 32.0499 79.8897 32.0119L79.8875 32.0097Z" fill="black"/>
<path d="M80.006 31.8196C79.9837 31.8196 79.9613 31.8196 79.9389 31.8196C79.9635 31.7547 79.9881 31.6898 80.0127 31.6227C80.0888 31.6965 80.0597 31.7569 80.006 31.8173V31.8196Z" fill="black"/>
<path d="M49.5516 29.0171C49.5516 25.4608 49.5516 21.9068 49.5561 18.3506C49.5561 18.118 49.5024 18.0441 49.2586 18.0464C46.3236 18.0553 43.3887 18.0553 40.4537 18.0464C40.2256 18.0464 40.1473 18.1314 40.0757 18.326C39.5276 19.8312 38.9661 21.3342 38.4114 22.8372C36.3399 28.4355 34.2707 34.0338 32.2015 39.6299C32.0807 39.9542 32.0829 39.9564 32.4252 39.9564C34.217 39.9564 36.0088 39.9542 37.8007 39.9609C38.0042 39.9609 38.1004 39.9095 38.172 39.7104C38.4919 38.8292 38.8364 37.9569 39.163 37.0779C39.2234 36.9146 39.2883 36.8386 39.4784 36.8408C40.7535 36.8498 42.0286 36.8498 43.3037 36.8408C43.5005 36.8408 43.5587 36.8922 43.5565 37.0913C43.5453 37.93 43.5609 38.7688 43.5453 39.6053C43.5408 39.867 43.59 39.9631 43.8853 39.9609C45.6659 39.9453 47.4488 39.9453 49.2295 39.9609C49.5091 39.9609 49.5561 39.8759 49.5561 39.6209C49.5471 36.0848 49.5494 32.5509 49.5494 29.0148L49.5516 29.0171ZM43.5587 30.0906C43.5587 30.3009 43.5072 30.3658 43.2903 30.3613C42.6773 30.3479 42.0644 30.3568 41.4045 30.3568C42.1136 28.7979 42.8071 27.2792 43.4983 25.7561C43.5878 25.7918 43.5497 25.8612 43.5497 25.9104C43.552 27.3038 43.5475 28.6972 43.5565 30.0906H43.5587Z" fill="black"/>
</svg>
