<svg xmlns="http://www.w3.org/2000/svg" width="134" height="60" viewBox="0 0 134 60" fill="none">
<path d="M79.1067 45.8747C73.79 49.8505 66.0838 51.9717 59.4489 51.9717C50.1457 51.9717 41.7705 48.4808 35.4343 42.6747C34.9364 42.2182 35.3825 41.5959 35.9799 41.9515C42.8179 45.9879 51.2728 48.4161 60.0065 48.4161C65.8967 48.4161 72.3762 47.1798 78.3341 44.6141C79.2342 44.2262 79.9869 45.2121 79.1067 45.8747Z" fill="black"/>
<path d="M81.317 43.3091C80.64 42.4283 76.8247 42.8929 75.1122 43.099C74.5905 43.1636 74.5109 42.703 74.9808 42.3717C78.0195 40.202 83.0056 40.8283 83.5871 41.5555C84.1685 42.2869 83.4357 47.3576 80.5803 49.7778C80.1422 50.1495 79.724 49.9515 79.9192 49.4586C80.5603 47.8343 81.998 44.1939 81.317 43.3091Z" fill="black"/>
<path d="M75.2317 27.0545V24.9455C75.2317 24.6263 75.4707 24.4121 75.7574 24.4121H85.0646C85.3633 24.4121 85.6022 24.6303 85.6022 24.9455V26.7515C85.5982 27.0545 85.3473 27.4505 84.9013 28.0768L80.0784 35.0626C81.8706 35.0182 83.7623 35.2889 85.3872 36.2182C85.7536 36.4283 85.8531 36.7353 85.881 37.0384V39.2889C85.881 39.5959 85.5465 39.9555 85.196 39.7697C82.3326 38.2464 78.5292 38.0808 75.3631 39.7858C75.0405 39.9636 74.702 39.6081 74.702 39.301V37.1636C74.702 36.8202 74.706 36.2343 75.0445 35.7131L80.632 27.5838H75.7694C75.4707 27.5838 75.2317 27.3697 75.2317 27.0545Z" fill="black"/>
<path d="M41.2806 40.2141H38.449C38.1782 40.1939 37.9632 39.9879 37.9433 39.7252V24.9818C37.9433 24.6869 38.1862 24.4525 38.4889 24.4525H41.1293C41.4041 24.4646 41.6231 24.6788 41.643 24.9455V26.8727H41.6948C42.3838 25.0101 43.6781 24.1414 45.4225 24.1414C47.1947 24.1414 48.3018 25.0101 49.0983 26.8727C49.7833 25.0101 51.3405 24.1414 53.0092 24.1414C54.196 24.1414 55.4943 24.6384 56.2868 25.7535C57.1829 26.9939 56.9997 28.796 56.9997 30.3758L56.9957 39.6808C56.9957 39.9757 56.7528 40.2141 56.4501 40.2141H53.6225C53.3397 40.1939 53.1127 39.9636 53.1127 39.6808V31.8667C53.1127 31.2444 53.1685 29.6929 53.0331 29.103C52.822 28.1131 52.1888 27.8343 51.3684 27.8343C50.6834 27.8343 49.9665 28.299 49.6758 29.0424C49.3851 29.7859 49.413 31.0303 49.413 31.8667V39.6808C49.413 39.9757 49.17 40.2141 48.8673 40.2141H46.0397C45.753 40.1939 45.53 39.9636 45.53 39.6808L45.526 31.8667C45.526 30.2222 45.7928 27.802 43.7816 27.802C41.7466 27.802 41.8262 30.1616 41.8262 31.8667V39.6808C41.8262 39.9757 41.5833 40.2141 41.2806 40.2141Z" fill="black"/>
<path d="M93.6151 24.1414C97.8167 24.1414 100.091 27.802 100.091 32.4566C100.091 36.9535 97.5777 40.5212 93.6151 40.5212C89.4892 40.5212 87.243 36.8606 87.243 32.299C87.243 27.7091 89.5171 24.1414 93.6151 24.1414ZM93.639 27.1515C91.5521 27.1515 91.4207 30.0364 91.4207 31.8343C91.4207 33.6364 91.3928 37.4828 93.6151 37.4828C95.8095 37.4828 95.913 34.3798 95.913 32.4889C95.913 31.2444 95.8612 29.7576 95.4909 28.5778C95.1722 27.5515 94.539 27.1515 93.639 27.1515Z" fill="black"/>
<path d="M105.539 40.2141H102.719C102.436 40.1939 102.209 39.9636 102.209 39.6808L102.205 24.9333C102.229 24.6626 102.464 24.4525 102.751 24.4525H105.376C105.622 24.4646 105.826 24.6343 105.881 24.8646V27.1192H105.933C106.726 25.103 107.837 24.1414 109.792 24.1414C111.063 24.1414 112.301 24.6061 113.098 25.8788C113.838 27.0586 113.838 29.0424 113.838 30.4687V39.7495C113.807 40.0081 113.572 40.2141 113.293 40.2141H110.453C110.194 40.1939 109.979 40 109.951 39.7495V31.7414C109.951 30.1293 110.135 27.7697 108.179 27.7697C107.49 27.7697 106.857 28.2384 106.542 28.9495C106.144 29.8505 106.092 30.7475 106.092 31.7414V39.6808C106.088 39.9757 105.841 40.2141 105.539 40.2141Z" fill="black"/>
<path d="M67.8122 33.1717V32.5495C65.7652 32.5495 63.6027 32.9939 63.6027 35.4424C63.6027 36.6828 64.2359 37.5232 65.3232 37.5232C66.1197 37.5232 66.8325 37.0263 67.2826 36.2182C67.8401 35.2242 67.8122 34.2909 67.8122 33.1717ZM70.6677 40.1737C70.4805 40.3434 70.2097 40.3555 69.9987 40.2424C69.0588 39.4505 68.8915 39.0828 68.3738 38.3273C66.8206 39.9353 65.7214 40.4161 63.7063 40.4161C61.3247 40.4161 59.4688 38.9252 59.4688 35.9394C59.4688 33.6081 60.7154 32.0202 62.4876 31.2444C64.0249 30.5576 66.1714 30.4364 67.8122 30.2465V29.8747C67.8122 29.1919 67.864 28.3838 67.4698 27.7939C67.1233 27.2646 66.4622 27.0465 65.8807 27.0465C64.8015 27.0465 63.8377 27.6081 63.6027 28.7717C63.5549 29.0303 63.3677 29.2848 63.1129 29.297L60.3649 28.998C60.1339 28.9455 59.879 28.7556 59.9428 28.396C60.576 25.0182 63.5828 24 66.275 24C67.6529 24 69.4531 24.3717 70.5403 25.4303C71.9182 26.7354 71.7868 28.4768 71.7868 30.3717V34.8485C71.7868 36.1939 72.3364 36.7838 72.8541 37.5111C73.0373 37.7697 73.0772 38.0808 72.8462 38.2747C72.2687 38.7636 71.2412 39.6727 70.6757 40.1818L70.6677 40.1737Z" fill="black"/>
<path d="M30.6911 33.1717V32.5495C28.644 32.5495 26.4815 32.9939 26.4815 35.4424C26.4815 36.6828 27.1147 37.5232 28.202 37.5232C28.9985 37.5232 29.7114 37.0263 30.1614 36.2182C30.7189 35.2242 30.6911 34.2909 30.6911 33.1717ZM33.5465 40.1737C33.3594 40.3434 33.0885 40.3555 32.8775 40.2424C31.9376 39.4505 31.7703 39.0828 31.2526 38.3273C29.6994 39.9353 28.6002 40.4161 26.5851 40.4161C24.2035 40.4161 22.3477 38.9252 22.3477 35.9394C22.3477 33.6081 23.5942 32.0202 25.3664 31.2444C26.9037 30.5576 29.0503 30.4364 30.6911 30.2465V29.8747C30.6911 29.1919 30.7428 28.3838 30.3486 27.7939C30.0021 27.2646 29.341 27.0465 28.7595 27.0465C27.6803 27.0465 26.7165 27.6081 26.4815 28.7717C26.4337 29.0303 26.2466 29.2848 25.9917 29.297L23.2437 28.998C23.0127 28.9455 22.7579 28.7556 22.8216 28.396C23.4548 25.0182 26.4616 24 29.1538 24C30.5318 24 32.3319 24.3717 33.4191 25.4303C34.7971 26.7354 34.6656 28.4768 34.6656 30.3717V34.8485C34.6656 36.1939 35.2152 36.7838 35.733 37.5111C35.9161 37.7697 35.956 38.0808 35.725 38.2747C35.1475 38.7636 34.12 39.6727 33.5545 40.1818L33.5465 40.1737Z" fill="black"/>
</svg>