<?xml version="1.0" encoding="utf-8"?>
<svg width="134" height="60" viewBox="0 0 134 60" fill="none" xmlns="http://www.w3.org/2000/svg">
<path d="M122.666 38.9213C122.666 38.3835 123.051 37.9801 123.492 37.9801C123.934 37.9801 124.318 38.3835 124.318 38.9213C124.318 39.4784 123.934 39.8818 123.492 39.8818C123.051 39.8818 122.666 39.4784 122.666 38.9213ZM123.512 39.7282C123.877 39.7282 124.184 39.3824 124.184 38.9406C124.184 38.4987 123.896 38.1529 123.512 38.1529C123.127 38.1529 122.839 38.4987 122.839 38.9406C122.839 39.3824 123.127 39.7282 123.512 39.7282ZM123.339 39.4784H123.204V38.3835H123.569C123.8 38.3835 123.896 38.4795 123.896 38.6908C123.896 38.8829 123.781 38.979 123.646 38.9982L123.915 39.4784H123.761L123.512 38.9982H123.339V39.4784ZM123.512 38.8637C123.627 38.8637 123.742 38.8637 123.742 38.6908C123.742 38.5564 123.627 38.5371 123.531 38.5371H123.339V38.8829H123.512V38.8637Z" fill="black"/>
<path d="M113.849 38.979L113.369 37.1156C113.35 37.0003 113.273 36.8851 113.157 36.8467C113.042 36.8082 112.946 36.8082 112.85 36.8851L112.543 37.1348C112.235 37.4038 111.87 37.7495 111.217 37.7495C109.104 37.7495 108.317 35.3099 108.297 33.1968C108.259 30.7379 109.2 28.2021 111.083 28.1637C111.659 28.1445 111.947 28.4711 112.197 28.7592L112.447 29.0282C112.543 29.105 112.639 29.1434 112.754 29.105C112.869 29.0858 112.946 28.9898 112.985 28.8745L113.715 26.9919C113.772 26.819 113.715 26.6269 113.561 26.5309L113.369 26.4156C112.927 26.1467 112.235 25.7241 111.14 25.7048C109.008 25.6664 107.145 26.358 105.896 27.6643C104.609 29.009 103.975 30.9492 104.013 33.4273C104.09 37.6151 106.28 39.9011 110.41 39.9971C111.429 40.0355 113.157 39.7474 113.715 39.3824C113.83 39.3055 113.887 39.1327 113.849 38.979Z" fill="black"/>
<path d="M92.1417 25.0133C92.1224 24.8212 91.988 24.6867 91.8151 24.6675C90.1822 24.5715 89.0104 25.628 88.3765 26.5117C88.3573 25.8201 88.3189 25.1285 88.3189 25.1285C88.3189 25.0133 88.2612 24.9172 88.1844 24.8404C88.0883 24.7828 87.9731 24.7636 87.877 24.7828L84.1119 25.8585C83.939 25.8969 83.8237 26.089 83.8621 26.2619L85.86 39.44C85.8984 39.6321 86.0713 39.7666 86.2634 39.7474L88.1268 39.4976C88.2997 39.4784 88.4149 39.3248 88.4341 39.1519L88.7223 34.138C88.8567 31.295 90.163 30.0079 91.3348 30.0271C91.354 30.0271 91.3925 30.0271 91.4117 30.0271C91.5077 30.0079 91.8727 30.0079 91.9688 30.0271C92.084 30.0463 92.1993 30.0271 92.2761 29.9503C92.3722 29.8734 92.4106 29.7774 92.4106 29.6621L92.1417 25.0133Z" fill="black"/>
<path d="M103.552 33.1968L103.629 32.1786C103.687 31.4294 103.764 30.661 103.745 30.296C103.706 28.6248 103.111 27.1072 102.112 26.1275C101.266 25.3014 100.191 24.8788 98.9804 24.9172C97.1363 24.9557 95.5418 25.6856 94.3508 26.9535C93.0253 28.4135 92.3145 30.5074 92.3722 32.851C92.4874 37.3845 96.0797 39.7858 99.3838 39.7282C102.092 39.6897 103.418 38.4219 103.476 38.3835C103.572 38.2874 103.61 38.1337 103.572 37.9993L103.034 36.2319C102.995 36.0975 102.899 36.0206 102.765 35.9822C102.63 35.9438 102.515 35.9822 102.419 36.0975C102.419 36.0975 101.497 37.1348 100.383 37.0964C98.1736 37.058 97.1747 35.8862 97.0402 33.1391C97.751 33.1775 103.149 33.5425 103.149 33.5425C103.36 33.5425 103.533 33.3889 103.552 33.1968ZM97.1747 30.8531C97.1939 29.5853 97.4436 28.5863 97.9239 28.0677C98.1928 27.7795 98.5002 27.6451 98.9036 27.6258C99.2109 27.6258 99.4223 27.7027 99.5951 27.8756C100.056 28.3366 100.171 29.4892 100.229 30.6418C99.7296 30.6802 97.7318 30.8147 97.1747 30.8531Z" fill="black"/>
<path d="M78.8675 19.9226L75.3137 19.1734C75.2176 19.1542 75.1024 19.1734 75.0255 19.2503C74.9487 19.3271 74.8911 19.4232 74.8911 19.5384C74.8911 19.5384 74.8911 24.9172 74.8911 26.1851C74.6797 26.0506 74.4492 25.9354 74.1995 25.8585C73.7384 25.7241 73.2966 25.6664 72.8932 25.6664C71.2411 25.6664 69.9733 26.2811 69.1088 27.4722C68.2828 28.644 67.8602 30.2768 67.8602 32.3323V33.6962C67.8602 35.9822 68.2444 37.5382 69.0512 38.4795C69.858 39.4208 70.8762 39.9011 72.0672 39.9011C72.8548 39.9011 73.5271 39.7282 74.065 39.4016C74.3724 39.2095 74.6797 38.9213 74.9871 38.5564C75.0063 38.9598 75.0255 39.3632 75.0255 39.3632C75.0255 39.5553 75.1984 39.709 75.3713 39.709H78.3489C78.541 39.709 78.6946 39.5553 78.7138 39.344L79.1941 20.2684C79.1557 20.1147 79.0212 19.9418 78.8675 19.9226ZM71.7406 32.4476C71.7406 31.1989 71.8943 30.2576 72.2593 29.5853C72.5666 29.009 72.9316 28.4519 73.5463 28.3366C73.7961 28.279 74.1227 28.3558 74.3724 28.5095L74.4684 28.5671C74.6221 28.644 74.7758 28.74 74.8911 29.1626C75.0447 29.835 75.1216 31.0068 75.1216 32.1594C75.1216 33.312 75.0447 34.4646 74.8911 35.0793C74.795 35.4827 74.4876 36.1551 74.2187 36.3472C73.9113 36.5777 73.5848 36.693 73.239 36.693C72.7203 36.693 72.3745 36.5009 72.144 36.0398C71.8751 35.5404 71.7406 34.6375 71.7406 33.3504V32.4476Z" fill="black"/>
<path d="M83.2666 26.1851C83.2666 25.993 83.1129 25.8393 82.9208 25.8393H80.2699C80.0778 25.8393 79.9241 25.993 79.9241 26.1851L79.4822 39.344C79.4822 39.44 79.5207 39.5361 79.5783 39.6129C79.6359 39.6897 79.732 39.7282 79.828 39.7282H83.3627C83.4587 39.7282 83.5548 39.6897 83.6124 39.6129C83.6892 39.5361 83.7085 39.44 83.7085 39.344L83.2666 26.1851Z" fill="black"/>
<path d="M121.495 39.0366L121.168 36.2319C121.149 36.1359 121.11 36.0398 121.034 35.9822C120.957 35.9246 120.861 35.9054 120.765 35.9246C120.669 35.9438 120.323 35.9246 120.131 35.9054H119.843C119.42 35.8862 119.151 35.8285 119.036 35.7133C118.901 35.5788 118.901 35.3483 118.92 34.6759C118.92 34.6759 118.92 34.6567 118.92 34.6375C118.92 34.6375 118.959 29.2395 118.959 28.5671C119.478 28.5864 121.014 28.6632 121.014 28.6632C121.11 28.6632 121.206 28.6248 121.283 28.5479C121.341 28.4903 121.379 28.3943 121.379 28.2982C121.379 28.279 121.379 28.279 121.379 28.2598L121.245 26.089C121.245 25.8969 121.072 25.7433 120.899 25.7433C120.899 25.7433 119.324 25.7433 118.824 25.7625C118.805 25.167 118.767 22.3623 118.767 22.3623C118.767 22.247 118.728 22.151 118.632 22.0934C118.555 22.0357 118.44 21.9973 118.344 22.0165L116.231 22.4007C116.077 22.4391 115.943 22.5544 115.943 22.7273C115.943 22.7273 115.732 25.2822 115.693 25.7433C115.309 25.8009 114.329 25.9546 114.329 25.9546C114.156 25.9738 114.041 26.1275 114.041 26.3004L113.964 27.9524C113.964 28.1637 114.118 28.3366 114.31 28.3366C114.31 28.3366 114.867 28.3558 115.232 28.375C115.194 29.0282 114.982 34.6951 114.982 34.6951C114.925 36.2512 115.194 37.4998 115.77 38.3643C116.385 39.2671 117.249 39.7666 118.344 39.805C118.805 39.8242 119.285 39.805 119.785 39.7474C120.515 39.6513 121.014 39.5361 121.302 39.4016C121.418 39.344 121.514 39.2095 121.495 39.0366Z" fill="black"/>
<path d="M51.0898 27.5106C52.3001 27.7795 53.6832 28.9129 53.6832 28.9129C53.8177 29.0282 54.029 29.009 54.1634 28.8745L55.7002 27.2416C55.8155 27.1264 55.8347 26.9343 55.7387 26.7806C55.681 26.6846 54.2211 24.533 50.9169 24.533C48.4773 24.533 46.6331 26.5501 46.6331 29.2203C46.6331 32.0249 48.6694 33.1391 50.1293 33.9844C51.0322 34.4838 51.8006 34.9257 51.8006 35.5212C51.8006 35.867 51.6469 36.059 51.3204 36.059C50.648 36.0975 49.2265 35.4443 47.7089 33.9459C47.6128 33.8499 47.4783 33.8307 47.3631 33.8691C47.2286 33.9075 47.1518 34.0036 47.1134 34.138L46.2489 38.1722C46.2105 38.3258 46.2873 38.4795 46.4218 38.5564C47.8241 39.4016 49.553 39.6897 50.7248 39.6897C52.9148 39.6897 55.2776 37.788 55.2776 34.6951C55.2776 32.1594 53.4911 30.8916 52.0503 29.8734C51.1667 29.2587 50.4175 28.7208 50.3406 28.0869C50.3214 27.914 50.3791 27.7219 50.5135 27.6066C50.6288 27.4914 50.8401 27.453 51.0898 27.5106Z" fill="black"/>
<path d="M28.4028 17.118L28.3644 17.0987C27.596 16.6569 26.0015 15.9461 24.119 16.0806C20.834 16.2727 19.0475 18.5779 19.0475 22.5928C19.0475 22.8618 19.0667 23.1307 19.0667 23.4381C19.0667 23.4381 19.0859 23.8991 19.1051 24.2449C18.6249 24.2449 17.5875 24.2833 17.5875 24.2833C17.4915 24.2833 17.3954 24.3409 17.3378 24.4178C17.2802 24.4946 17.2418 24.5715 17.2418 24.6675C17.2418 24.6867 17.2418 24.7059 17.2418 24.7059L17.5107 26.9919C17.5107 27.088 17.5683 27.184 17.6644 27.2416C17.7412 27.2993 17.8565 27.3185 17.9525 27.2993C17.9525 27.2993 19.0667 27.0495 19.5085 26.9343C19.6622 27.5874 22.6974 39.7858 22.6974 39.7858C22.7166 39.8818 22.7935 39.9587 22.8703 40.0163C22.9471 40.0739 23.0624 40.0739 23.1392 40.0355L25.0987 39.3824C25.2523 39.3248 25.3484 39.1903 25.3484 39.0366C25.3484 39.0174 25.3484 39.0174 25.3484 39.0174C25.3484 39.0174 24.3303 26.5885 24.2726 25.993C24.7145 25.8777 26.4434 25.3975 26.4434 25.3975C26.597 25.3591 26.7123 25.2054 26.7123 25.0325C26.7123 25.0133 26.7123 25.0133 26.7123 24.9941L26.5202 23.4381C26.501 23.342 26.4626 23.246 26.3665 23.1883C26.2897 23.1307 26.1936 23.1115 26.0784 23.1307C26.0784 23.1307 24.6184 23.4381 24.0229 23.5725C24.0229 23.3996 24.0229 23.2268 24.0229 23.2268C24.0421 20.9984 24.9258 19.5 26.2897 19.404C26.5394 19.3847 26.9812 19.6729 27.2886 19.865L27.692 20.0955C27.7881 20.1531 27.9033 20.1531 28.0186 20.1147C28.1339 20.0571 28.1915 19.9418 28.2107 19.8266L28.5565 17.5022C28.5949 17.3293 28.518 17.1756 28.4028 17.118Z" fill="black"/>
<path d="M34.3195 25.0133C34.3195 24.8212 34.1658 24.6867 33.9929 24.6675C32.3408 24.5715 31.1882 25.628 30.5543 26.5117C30.5159 25.8201 30.4967 25.1285 30.4967 25.1285C30.4967 25.0133 30.4391 24.9172 30.3622 24.8404C30.2662 24.7828 30.1701 24.7636 30.0549 24.7828L26.2897 25.8585C26.1168 25.8969 26.0015 26.089 26.04 26.2619L28.057 39.44C28.0954 39.6321 28.2683 39.7666 28.4604 39.7474L30.3238 39.4976C30.4967 39.4784 30.6119 39.3248 30.6312 39.1519L30.9193 34.138C31.0538 31.295 32.3601 30.0079 33.5319 30.0271C33.5511 30.0271 33.5895 30.0271 33.5895 30.0271C33.6855 30.0079 34.0505 30.0079 34.1466 30.0271C34.2618 30.0463 34.3771 30.0271 34.4732 29.9503C34.55 29.8734 34.6076 29.7774 34.6076 29.6621L34.3195 25.0133Z" fill="black"/>
<path d="M45.7302 33.1968L45.8071 32.1786C45.8647 31.4294 45.9415 30.661 45.9415 30.296C45.9031 28.6248 45.3076 27.1072 44.3087 26.1275C43.4635 25.3014 42.3877 24.8788 41.1775 24.9172C39.3333 24.9557 37.7389 25.6856 36.5478 26.9535C35.2223 28.4135 34.5116 30.5074 34.5692 32.851C34.6845 37.3845 38.2575 39.7858 41.5809 39.7282C44.2895 39.6897 45.615 38.4219 45.6726 38.3835C45.7687 38.2874 45.8071 38.1337 45.7687 37.9993L45.2308 36.2319C45.1924 36.0975 45.0963 36.0206 44.9618 35.9822C44.8466 35.9438 44.7121 35.9822 44.6353 36.0975C44.6353 36.0975 43.7132 37.1348 42.599 37.0964C40.3898 37.058 39.4101 35.8862 39.2565 33.1391C39.9672 33.1775 45.3652 33.5425 45.3652 33.5425C45.5573 33.5425 45.711 33.3889 45.7302 33.1968ZM39.3525 30.8531C39.3717 29.5853 39.6407 28.5863 40.1017 28.0677C40.3706 27.7795 40.678 27.6451 41.0622 27.6258C41.3696 27.6258 41.6001 27.7027 41.773 27.8756C42.234 28.3366 42.3685 29.4892 42.4069 30.6418C41.9074 30.6802 39.9096 30.8147 39.3525 30.8531Z" fill="black"/>
<path d="M65.9968 26.4156C65.2284 25.5704 64.1911 25.0709 63.269 25.0709C62.1548 25.0709 61.1943 25.4935 60.4643 26.2811C60.5412 24.7636 60.7717 19.5576 60.7717 19.5576V19.5384C60.7717 19.4232 60.7333 19.3271 60.6372 19.2503C60.5604 19.1734 60.4451 19.1542 60.3299 19.1734L56.0076 20.1916C55.8347 20.23 55.7194 20.4029 55.7387 20.5758L57.0642 39.2863C57.0834 39.4784 57.237 39.6321 57.4291 39.6321L59.888 39.5745C60.0801 39.5745 60.2146 39.4208 60.2338 39.2287L60.618 30.4113C60.6756 28.9898 61.5209 27.4722 62.7119 27.4722C63.0769 27.4722 63.365 27.5874 63.5571 27.7987C64.1142 28.4135 63.999 29.835 63.9413 30.661L63.3074 39.2863C63.3074 39.4016 63.3458 39.5169 63.4227 39.5937C63.4995 39.6705 63.6148 39.709 63.73 39.6897L66.6692 39.1327C66.8228 39.0942 66.9381 38.9598 66.9573 38.7869L67.3415 30.3153C67.4184 28.8169 66.9381 27.4337 65.9968 26.4156Z" fill="black"/>
<path d="M80.462 24.9557C80.462 24.9557 79.5591 23.1115 82.0948 22.3431C84.6497 21.5747 85.1876 21.2673 85.2645 20.7871C85.3605 20.326 86.4171 26.5885 80.462 24.9557Z" fill="black"/>
<path d="M20.3922 36.2319C20.3922 36.2319 22.1595 32.0442 16.4542 30.7187C10.7488 29.3932 9.51933 28.7592 9.2696 27.7219C9.01987 26.6846 7.46386 40.6695 20.3922 36.2319Z" fill="black"/>
</svg>
