<?xml version="1.0" encoding="utf-8"?>
<svg width="134" height="60" viewBox="0 0 134 60" fill="none" xmlns="http://www.w3.org/2000/svg">
<path d="M85.5976 37.813C83.5665 38.8461 81.3078 39.3888 79.0317 39.3888C73.3938 39.3888 69.6644 35.817 69.6644 30.5993C69.6644 25.6443 73.4288 21.6347 79.4869 21.6347C81.3078 21.6347 82.9537 21.9674 84.6871 22.5452V25.4692C83.8467 24.9964 82.1308 24.0159 79.697 24.0159C75.7925 24.0159 72.9385 26.6948 72.9385 30.5643C72.9385 34.2062 75.4248 37.1302 79.3293 37.1302C81.0977 37.1302 82.1133 36.6224 82.6035 36.3598L82.6736 32.4728H78.3663L79.7671 30.1441H85.7376L85.5976 37.813Z" fill="black"/>
<path d="M87.8037 38.9861H90.6051V27.1325H87.8037V38.9861ZM90.7102 23.1755C90.7102 24.0334 90.0098 24.6112 89.2044 24.6112C88.4165 24.6112 87.7161 24.0159 87.7161 23.1755C87.7161 22.3351 88.4165 21.7397 89.2044 21.7397C89.9748 21.7397 90.7102 22.2825 90.7102 23.1755Z" fill="black"/>
<path d="M95.0524 35.6069C95.0524 34.8365 95.4902 34.1011 96.4882 33.786C96.7683 33.6984 97.2761 33.5934 98.3791 33.5934C98.6243 33.5934 98.8869 33.6109 99.1495 33.6459V36.7625C98.7118 36.9551 97.9064 37.3053 97.0485 37.3053C95.5427 37.3053 95.0524 36.4473 95.0524 35.6069ZM102.074 38.9861C101.933 38.4609 101.881 38.2858 101.881 35.887V31.1246C101.863 30.1091 101.863 28.9184 100.883 27.9379C99.8499 26.9049 98.3616 26.8349 97.5037 26.8349C96.4006 26.8349 95.2801 27.08 94.5972 27.2201L93.1439 29.7064C94.177 29.3036 95.3501 28.8659 96.6633 28.8659C98.7994 28.8659 99.1495 29.9865 99.1495 31.7899C98.5192 31.7199 98.2216 31.7024 97.6438 31.7024C96.5582 31.7024 95.4376 31.8775 94.5272 32.2802C93.284 32.8055 92.1985 33.9435 92.1985 35.7119C92.1985 37.2177 92.9689 38.0056 93.3541 38.3383C94.0019 38.8986 94.9649 39.2663 96.3656 39.2663C97.0309 39.2663 98.029 39.1262 99.2721 38.7235C99.2896 38.811 99.3071 38.8986 99.3421 38.9861H102.074Z" fill="black"/>
<path d="M121.036 39.1087C120.703 39.1787 120.265 39.2838 119.618 39.2838C118.952 39.2838 117.989 39.1787 117.254 38.3733C116.536 37.5679 116.536 36.7275 116.554 35.6594L116.606 29.1636H115.065V27.1325L116.641 27.115V24.8914L119.425 24.0334V27.1325H122.086V29.1636H119.372L119.337 34.3462C119.337 35.6419 119.337 36.1497 119.618 36.5699C119.828 36.8851 120.283 37.2177 121.088 37.2177C121.614 37.2177 122.174 37.0777 122.664 36.9026L121.036 39.1087Z" fill="black"/>
<path d="M114.242 38.9861H111.441V32.998C111.423 31.1246 111.423 30.1966 110.635 29.5313C110.32 29.2686 109.795 29.0235 109.007 29.0235C108.237 29.0235 107.589 29.2336 106.801 29.7589V39.0036H103.947V27.1675H106.801V29.3912L106.136 28.043C106.136 28.043 107.169 27.5002 107.764 27.2901C108.272 27.115 109.27 26.8699 110.128 26.8699C110.846 26.8699 112.124 26.9574 113.104 27.8504C114.207 28.8659 114.225 30.074 114.26 31.1071V38.9861" fill="black"/>
<path d="M124.485 28.0955H124.8C124.993 28.0955 125.15 28.0605 125.15 27.8504C125.15 27.6578 124.94 27.6228 124.783 27.6228H124.485V28.0955ZM124.135 27.3426H124.818C125.273 27.3426 125.518 27.4827 125.518 27.8679C125.518 28.2006 125.308 28.3231 125.045 28.3407L125.518 29.1286H125.15L124.713 28.3582H124.485V29.1286H124.135V27.3426ZM124.765 29.4962C125.431 29.4962 125.973 28.971 125.973 28.2356C125.973 27.5002 125.431 26.9749 124.765 26.9749C124.1 26.9749 123.557 27.5002 123.557 28.2356C123.557 28.971 124.1 29.4962 124.765 29.4962ZM124.765 26.6423C125.641 26.6423 126.411 27.2726 126.411 28.2356C126.411 29.2161 125.641 29.8464 124.765 29.8464C123.89 29.8464 123.119 29.2161 123.119 28.2356C123.119 27.2551 123.907 26.6423 124.765 26.6423Z" fill="black"/>
<path d="M62.1355 13.2479H62.153C62.1705 13.2479 62.1705 13.2479 62.188 13.2654C62.1705 13.2479 62.153 13.2479 62.1355 13.2479Z" fill="black"/>
<path d="M20.3415 34.9065C20.2889 34.784 20.2539 34.6439 20.2539 34.4863C20.2539 33.9085 20.7091 33.4533 21.2869 33.4533H60.6122C61.19 33.4533 61.6452 33.9085 61.6452 34.4863C61.6452 34.6264 61.6102 34.784 61.5577 34.9065C57.8458 42.558 50.0192 47.8107 40.9496 47.8107C31.8974 47.8107 24.0534 42.5405 20.3415 34.9065Z" fill="black"/>
<path d="M25.0339 8.57297C25.0689 8.46792 25.1214 8.38037 25.209 8.31033C25.5066 8.01268 26.0144 8.01268 26.312 8.31033L47.2353 29.2336C47.533 29.5313 47.533 30.039 47.2353 30.3367C47.1653 30.4242 47.0602 30.4768 46.9727 30.5118C40.9321 32.6129 33.9635 31.2471 29.1485 26.4147C24.2985 21.5822 22.9328 14.6136 25.0339 8.57297Z" fill="black"/>
<path d="M46.6225 2.86503C46.6925 2.83001 46.7801 2.8125 46.8501 2.8125C47.1653 2.8125 47.4279 3.07514 47.4279 3.3903V25.4692C47.4279 25.7843 47.1653 26.047 46.8501 26.047C46.7626 26.047 46.6925 26.0295 46.6225 25.9944C42.3328 23.9109 39.3738 19.5161 39.3738 14.421C39.3738 9.34337 42.3328 4.9486 46.6225 2.86503Z" fill="black"/>
<path d="M61.5402 15.1564C61.5927 15.1739 61.6452 15.2089 61.6978 15.2614C61.8728 15.4365 61.8728 15.7167 61.6978 15.8917L49.8617 27.7453C49.6866 27.9204 49.4064 27.9204 49.2313 27.7453C49.1788 27.6928 49.1613 27.6403 49.1263 27.5878C47.9357 24.1735 48.7061 20.2165 51.4375 17.4851C54.1689 14.7361 58.1084 13.9657 61.5402 15.1564Z" fill="black"/>
</svg>
