<?xml version="1.0" encoding="utf-8"?>
<svg width="134" height="60" viewBox="0 0 134 60" fill="none" xmlns="http://www.w3.org/2000/svg">
<path d="M50.1355 39.7145H53.1236V29.7213H56.0628L56.3567 27.272H53.1726V26.3412C53.1726 24.5777 53.6135 23.549 55.426 23.549C56.3077 23.549 56.7486 23.647 57.0915 23.8429L57.5814 21.3936C57.0915 21.2467 56.1608 20.9528 55.0341 20.9528C51.605 20.9528 50.1355 22.8142 50.1355 26.1943V27.272H48.0291V29.7213H50.1355V39.7145Z" fill="black"/>
<path d="M24.9566 37.2651C23.0951 37.2651 21.9194 36.9712 20.7928 36.1875L20.2539 38.9307C21.2336 39.4205 22.9481 40.0084 25.0545 40.0084C28.8265 40.0084 31.0798 38.1959 31.0798 34.7669C31.0798 28.6926 23.585 29.9662 23.585 26.4882C23.585 25.1166 24.6137 24.2838 26.2792 24.2838C27.6508 24.2838 28.5326 24.2838 29.6103 25.0186L30.2471 22.4223C29.4633 22.0305 27.7488 21.5406 26.0343 21.5406C22.4583 21.5406 20.4009 23.5 20.4009 26.6352C20.4009 32.5625 27.8468 31.3868 27.8468 35.0118C27.8957 36.4324 26.916 37.2651 24.9566 37.2651Z" fill="black"/>
<path d="M114.895 27.321V32.2686C114.895 33.9341 114.797 35.0608 114.111 35.8445C113.524 36.4814 112.789 36.8733 111.809 36.8733C110.878 36.8733 110.046 36.5793 109.605 35.8935C109.262 35.3547 109.164 34.6199 109.164 33.5422V27.272H105.98V33.9341C105.98 36.2364 106.323 37.4611 107.253 38.4408C108.037 39.2246 109.311 39.7145 110.829 39.7145C112.789 39.7145 114.258 38.7347 114.846 37.608H114.895V38.7347C114.895 39.8614 114.699 40.9391 114.013 41.6739C113.279 42.4087 112.201 42.7516 110.976 42.7516C109.311 42.7516 109.066 42.4087 108.086 41.9188L106.91 44.2702C108.527 45.2499 110.143 45.4948 111.417 45.4948C113.866 45.4948 116.218 44.5151 117.344 42.1148C117.883 40.9881 118.03 39.8614 118.03 38.2939V27.321H114.895Z" fill="black"/>
<path d="M63.7536 29.2804C64.6843 29.2804 65.4681 29.5253 66.007 30.0642C66.5948 30.652 66.8397 31.4848 66.8397 32.1706H60.6185C60.8144 30.554 61.8921 29.2804 63.7536 29.2804ZM63.8026 40.0084C65.6641 40.0084 67.8684 39.5185 69.534 38.1959L68.3583 36.0895C67.2316 36.8733 65.7131 37.3631 64.1945 37.3631C61.9901 37.3631 60.8144 36.0895 60.6185 34.4239H69.9259C69.9749 34.081 70.0238 33.7381 70.0238 33.2973C70.0238 29.4274 67.6725 26.6841 63.7046 26.6841C59.9327 26.6841 57.3364 29.4763 57.3364 33.3952C57.3364 37.3631 60.0307 40.0084 63.8026 40.0084Z" fill="black"/>
<path d="M77.5677 39.7634L80.213 32.2196L82.7112 39.7634H85.6504L89.8142 26.9291H86.973L84.3278 36.2854L81.5846 26.9291H79.0863L76.3431 36.2854L73.6488 26.9291H70.6117L74.9225 39.7634H77.5677Z" fill="black"/>
<path d="M39.5545 29.6233C41.3669 29.6233 43.0325 30.799 43.0325 33.4932C43.0325 36.5304 41.122 37.4121 39.4565 37.4121C37.448 37.4121 35.9785 36.0895 35.9785 33.5422C35.9785 30.8969 37.595 29.6233 39.5545 29.6233ZM38.9666 39.9594C41.024 39.9594 42.4936 39.0776 43.1794 38.0979L43.2284 39.7145H46.0206V27.272H43.5223L43.0815 28.6436C42.3467 27.6639 41.024 27.027 38.9666 27.027C35.3906 27.027 32.8433 29.5253 32.8433 33.5912C32.8433 37.804 35.6845 39.9594 38.9666 39.9594Z" fill="black"/>
<path d="M96.9172 29.6233C98.7297 29.6233 100.395 30.799 100.395 33.4932C100.395 36.5304 98.4848 37.4121 96.8193 37.4121C94.8108 37.4121 93.3412 36.0895 93.3412 33.5422C93.3412 30.8969 94.9578 29.6233 96.9172 29.6233ZM96.2804 39.9594C98.3378 39.9594 99.8074 39.0776 100.493 38.0979L100.542 39.7145H103.334V27.272H100.934L100.395 28.6436C99.6605 27.6639 98.3378 27.027 96.2804 27.027C92.7044 27.027 90.1571 29.5253 90.1571 33.5912C90.2061 37.804 93.0473 39.9594 96.2804 39.9594Z" fill="black"/>
</svg>
