<?xml version="1.0" encoding="utf-8"?>
<svg width="134" height="60" viewBox="0 0 134 60" fill="none" xmlns="http://www.w3.org/2000/svg">
<g opacity="0.2">
<path d="M83.1479 13.5198L83.1478 13.5198L83.1477 13.5195C83.1398 13.4989 83.132 13.4783 83.1245 13.4571L75.2361 13.4095L75.2157 14.251L83.1642 13.5631C83.1588 13.5485 83.1533 13.5342 83.1479 13.5198Z" fill="black"/>
<path d="M81.8521 10.7114L75.2582 12.5019L75.2774 11.7122L81.7544 10.5497C81.7725 10.5819 81.792 10.6134 81.8115 10.6447C81.8252 10.6669 81.8389 10.6891 81.8521 10.7114Z" fill="black"/>
<path fill-rule="evenodd" clip-rule="evenodd" d="M66.7971 12.9311L74.3153 11.1742C74.2897 11.1011 74.2631 11.0283 74.2354 10.9558L79.9505 8.03644C79.9251 8.00701 79.8984 7.97815 79.872 7.9496C79.855 7.93125 79.8381 7.91303 79.8218 7.89488L73.9121 10.226C73.78 9.96357 73.6332 9.70843 73.4724 9.46172L77.8209 5.97801L77.8013 5.96181C77.7556 5.92412 77.7095 5.88603 77.6636 5.84882L73.01 8.82624C72.8009 8.56485 72.5752 8.31644 72.3343 8.08247L75.3966 4.31564C75.3606 4.29484 75.3245 4.2758 75.2882 4.2567C75.2563 4.23993 75.2243 4.2231 75.1924 4.20502L71.7547 7.57501C71.4731 7.35381 71.1766 7.15121 70.8673 6.96855L72.7768 3.10889C72.6927 3.0777 72.6084 3.04728 72.5237 3.01761L70.1502 6.58641C69.9087 6.47235 69.6615 6.36999 69.4096 6.2797L68.077 9.42188L66.7864 9.17589L66.2796 5.79762C66.0329 5.80825 65.7896 5.83088 65.5482 5.8612L64.7649 2.0847C64.7198 2.08967 64.6746 2.09358 64.6295 2.09748C64.5797 2.10179 64.53 2.10609 64.4808 2.11178L64.7549 5.99928C64.3842 6.08384 64.0199 6.19356 63.6649 6.32766L61.9524 2.59022C61.8944 2.60609 61.8376 2.62322 61.7808 2.64035C61.7434 2.65161 61.706 2.66287 61.6684 2.67377L62.9062 6.65719C62.6984 6.75938 62.4954 6.86873 62.2987 6.98685C62.3591 6.96667 62.4218 6.94966 62.4867 6.93606C63.3817 6.74886 64.3541 7.28532 64.5432 8.15866C64.7339 9.03162 64.0749 9.90767 63.1791 10.0953C62.2853 10.2813 61.4924 9.70577 61.3021 8.8332C61.1416 8.09563 61.4597 7.3811 62.1059 7.06563L59.4085 3.47749C59.3187 3.51656 59.2305 3.55678 59.1419 3.59778L61.4344 7.58623C61.1905 7.78326 60.9586 7.99403 60.74 8.21745L56.888 4.81922C56.8521 4.84287 56.8157 4.86568 56.7792 4.88852C56.7417 4.91199 56.7042 4.93551 56.6671 4.96001L60.1799 8.84674C60.0076 9.06157 59.8468 9.28491 59.6981 9.51586L54.5379 6.61271C54.5089 6.63943 54.4804 6.66683 54.4517 6.69432C54.4231 6.72175 54.3945 6.74927 54.3651 6.77632L58.7618 9.90199L59.1546 9.48492L62.5908 13.0247L61.5166 14.1649L65.6551 13.198C64.998 13.1121 64.4669 12.6136 64.316 11.9205C64.1241 11.0502 64.6036 10.2101 65.4994 10.0245C66.3927 9.83689 67.3668 10.3734 67.5571 11.2471C67.7036 11.9069 67.3584 12.5668 66.7971 12.9311ZM72.5479 11.0414C72.3089 11.4009 71.9332 11.6533 71.5032 11.7433C71.2903 11.7876 71.0705 11.7906 70.8564 11.7521C70.6423 11.7136 70.438 11.6343 70.2554 11.5188C70.0728 11.4034 69.9154 11.254 69.7922 11.0792C69.6689 10.9044 69.5823 10.7076 69.5373 10.5002C69.4913 10.2931 69.4878 10.0791 69.5269 9.8706C69.5661 9.66211 69.6471 9.4632 69.7654 9.28528C69.8837 9.10736 70.0369 8.95393 70.2162 8.83381C70.3956 8.71368 70.5975 8.62923 70.8105 8.58528C71.0233 8.54082 71.2431 8.53765 71.4572 8.57596C71.6714 8.61427 71.8756 8.6933 72.0584 8.80854C72.2411 8.92378 72.3987 9.07296 72.5222 9.24756C72.6457 9.42215 72.7326 9.61873 72.778 9.82606C72.8697 10.2449 72.7869 10.682 72.5479 11.0414Z" fill="black"/>
<path d="M66.5627 5.52004L67.3221 5.61841L67.3751 2.01354C67.3282 2.012 67.2807 2.00942 67.2331 2.00683C67.1847 2.0042 67.1362 2.00156 67.0879 2L66.5627 5.52004Z" fill="black"/>
<path d="M68.5875 5.78232L69.3626 5.88273L70.2714 2.38639C70.1778 2.36609 70.0839 2.34701 69.9897 2.32915L68.5875 5.78232Z" fill="black"/>
<path d="M52.5545 8.75082L58.0831 10.6225L57.7162 11.0119L58.2237 11.5005L52.4198 8.92023C52.4497 8.88209 52.4797 8.84463 52.5096 8.80718L52.5096 8.80708C52.5246 8.78835 52.5395 8.76963 52.5545 8.75082Z" fill="black"/>
<path d="M61.0944 14.2639L58.6691 11.9292C58.6248 12.1161 58.5872 12.3045 58.5564 12.4941L50.751 11.599C50.7408 11.6197 50.7305 11.6401 50.7203 11.6604L50.7203 11.6605C50.7017 11.6976 50.6832 11.7343 50.6652 11.7716L58.4682 13.3484C58.4661 13.3952 58.463 13.4416 58.4598 13.4881L58.4598 13.4881C58.4545 13.5668 58.4491 13.6455 58.4491 13.7256C58.4491 13.7662 58.4518 13.8059 58.4544 13.845L58.4544 13.8451C58.4563 13.8737 58.4582 13.9021 58.4591 13.9305L57.294 14.0163L57.7716 14.8221L58.5373 14.8333C58.5381 14.8386 58.5388 14.8438 58.5396 14.8491C58.5401 14.8531 58.5407 14.857 58.5413 14.861L61.0944 14.2639Z" fill="black"/>
<path d="M49.5986 14.583L54.0276 14.2569L54.3324 14.772L49.5673 14.7026C49.5737 14.6801 49.5794 14.6576 49.585 14.6354L49.585 14.6353C49.5895 14.6177 49.5939 14.6003 49.5986 14.583Z" fill="black"/>
<path d="M49 18.2462L56.4815 16.1145L56.865 16.7621L49 18.2706V18.2462Z" fill="black"/>
<path d="M50.0098 21.4402L57.4322 17.7201L57.8158 18.368L50.0098 21.4402Z" fill="black"/>
<path d="M51.9443 24.5638L58.4305 19.4063L58.8125 20.0514L51.9443 24.5638Z" fill="black"/>
<path d="M54.6098 26.9379L59.4487 21.126L59.8112 21.7381L54.6098 26.9379Z" fill="black"/>
<path d="M57.6165 29.0091L59.8879 24.6758C59.901 24.7072 59.9146 24.7384 59.9289 24.7692C59.9839 24.8875 60.0543 25.0038 60.1401 25.1148L57.6165 29.0091Z" fill="black"/>
<path d="M63.2759 22.2106L62.7099 24.4225C62.7591 24.4163 62.8097 24.4073 62.8617 24.3956L63.4017 24.283L64.29 21.8584L63.2759 22.2106Z" fill="black"/>
<path d="M61.2827 30L62.3133 25.9722C62.4694 25.9642 62.6326 25.9462 62.803 25.9173L61.3073 30H61.2827Z" fill="black"/>
<path d="M64.8193 29.9996L64.9817 25.4662L65.5515 25.3474L64.911 29.9996H64.8193Z" fill="black"/>
<path d="M66.8579 21.6518L67.2314 23.4844L68.0243 23.3191L67.8617 21.5601C68.0782 21.5265 68.2915 21.4866 68.5025 21.4391L69.2212 23.0695L70.0117 22.9046L69.4567 21.1536C69.7162 21.0591 69.9708 20.952 70.2194 20.8326L71.5132 22.5915L72.2098 22.4463L70.9872 20.4098C71.2192 20.2652 71.4432 20.112 71.657 19.9465L74.0404 22.0645L74.6911 21.9288L72.3144 19.386C72.4721 19.2345 72.6244 19.0773 72.7697 18.9138L65.1212 21.5698L65.0362 23.9421L65.7659 23.79L66.0622 21.6375C66.1001 21.6399 66.1379 21.6424 66.1759 21.645C66.3167 21.6546 66.4582 21.6642 66.6009 21.6642C66.6511 21.6642 66.7011 21.6609 66.7509 21.6576C66.7866 21.6553 66.8223 21.6529 66.8579 21.6518Z" fill="black"/>
<path d="M68.5593 29.9996L67.5272 24.9356L68.1614 24.8034L68.6415 29.9996H68.5593Z" fill="black"/>
<path d="M72.221 29.8747L69.832 24.4552L70.4616 24.3239L72.221 29.8747Z" fill="black"/>
<path d="M75.7759 28.3864L72.4784 23.9036L73.0173 23.7912L75.7759 28.3864Z" fill="black"/>
<path d="M78.6297 26.1427L75.42 23.2904L75.7366 23.2244L75.6854 22.9926L78.6297 26.1427Z" fill="black"/>
<path d="M81.1963 23.5733L72.9002 18.8685L73.8796 18.5284L81.1963 23.5733Z" fill="black"/>
<path d="M82.9044 20.3379L75.1282 17.8466L75.1467 17.084L82.9044 20.3379Z" fill="black"/>
<path d="M84 17.1296L75.171 16.0862L75.1914 15.2472L83.9984 17.1265C83.9984 17.1268 83.9987 17.1273 83.9991 17.1277C83.9995 17.1283 84 17.1289 84 17.1296Z" fill="black"/>
</g>
<path fill-rule="evenodd" clip-rule="evenodd" d="M66.3978 12.8262C67.3096 12.6386 67.9834 11.7521 67.7903 10.8707C67.594 9.98892 66.6042 9.44524 65.6945 9.63754C64.7818 9.82359 64.2958 10.671 64.4894 11.5531C64.6853 12.4365 65.4872 13.0169 66.3978 12.8262ZM63.3352 9.70555C64.2453 9.51833 64.9164 8.63186 64.7212 7.75047C64.5289 6.86752 63.5404 6.32658 62.6314 6.51536C61.7188 6.70258 61.23 7.55231 61.4263 8.43057C61.6219 9.31469 62.423 9.89746 63.3352 9.70555ZM71.8044 11.3714C72.0209 11.3265 72.2261 11.2408 72.4084 11.1192C72.5907 10.9976 72.7464 10.8425 72.8667 10.6626C72.987 10.4828 73.0695 10.2818 73.1096 10.0711C73.1496 9.86041 73.1463 9.64415 73.0999 9.43468C73.0536 9.22521 72.965 9.02663 72.8393 8.85027C72.7136 8.67391 72.5533 8.52324 72.3674 8.40684C72.1815 8.29044 71.9738 8.21061 71.756 8.17189C71.5382 8.13318 71.3147 8.13634 71.0982 8.1812C70.6608 8.27154 70.2783 8.52607 70.0347 8.88894C69.791 9.25181 69.7061 9.69337 69.7986 10.1167C69.845 10.3266 69.9337 10.5256 70.0597 10.7022C70.1856 10.8789 70.3464 11.0298 70.5326 11.1463C70.7189 11.2629 70.9271 11.3427 71.1453 11.3813C71.3636 11.4199 71.5875 11.4166 71.8044 11.3714ZM66.4915 4.95662L67.0559 8.69479L68.368 8.94767L69.883 5.39633L66.4915 4.95662ZM59.2428 9.08956L62.7365 12.6675L61.3887 14.089L57.7799 10.6354L59.2428 9.08956Z" fill="black"/>
<path fill-rule="evenodd" clip-rule="evenodd" d="M74.5503 23.2973L76.1404 22.9662L75.8026 21.7772L62.7106 24.6305C62.0283 24.7837 61.4304 24.2471 61.2684 23.8214C61.1823 23.5779 61.1994 23.3114 61.3159 23.0801C61.4324 22.8488 61.6389 22.6715 61.8901 22.5871L75.5194 17.7862L75.521 11.6915L58.457 15.4563L57.1428 13.2577L54.058 13.8971L54.8175 15.1748L56.0456 14.9227L60.3388 22.1259C59.7227 22.7372 59.6973 23.7417 60.0677 24.5285C60.3958 25.2297 61.2684 25.8621 62.6779 25.7245C62.2771 26.097 62.0986 26.6661 62.2278 27.2528C62.4234 28.1349 63.2265 28.7177 64.1371 28.527C65.0481 28.339 65.7187 27.4525 65.5264 26.5711C65.402 26.0051 64.9479 25.5811 64.3985 25.4009L72.9529 23.6276C72.5093 24.0051 72.2782 24.5926 72.4083 25.189C72.5024 25.6128 72.7665 25.983 73.1426 26.2184C73.5187 26.4539 73.9761 26.5352 74.4141 26.4445C74.8505 26.3527 75.2315 26.0975 75.4739 25.7346C75.7162 25.3717 75.8002 24.9307 75.7073 24.5082C75.5736 23.9062 75.1142 23.4653 74.5503 23.2973Z" fill="black"/>
<path d="M82.1404 36.8042C83.1693 35.6011 78.8378 35.0309 78.2568 35.0047C77.8192 34.9846 77.3808 34.9845 76.9431 35.0043C76.8149 35.5244 76.5146 36.0021 76.2289 36.4565C76.1166 36.6352 76.0065 36.8102 75.9101 36.9828C75.8426 37.1067 75.7747 37.2304 75.7067 37.3541C75.3325 38.0357 74.9568 38.7197 74.6549 39.4511C74.6737 39.4548 74.6927 39.4574 74.7118 39.4589C75.3998 39.3878 76.083 39.3065 76.7625 39.1857C78.7586 38.839 80.8557 38.2996 82.1404 36.8042Z" fill="black"/>
<path d="M51.8397 38.6393C52.1007 38.4544 52.3653 38.2644 52.617 38.0635C53.3251 37.4964 53.9881 36.8929 54.5359 36.1577C54.6098 36.0563 54.6925 35.9507 54.7776 35.8422C54.9836 35.5793 55.2029 35.2994 55.341 35.0219C55.341 35.0219 55.5224 34.6932 55.5075 34.5165C55.4929 34.4219 55.259 34.5075 55.0704 34.6115C53.6407 35.5151 52.6384 37.1051 51.8397 38.6393Z" fill="black"/>
<path d="M60.6208 42.4888C60.8498 42.0304 60.9339 41.6121 61.0199 41.077C60.5561 40.9731 60.1982 40.6197 60.0414 40.2226C59.9249 40.3238 59.8098 40.4813 59.7301 40.5903C59.7002 40.6312 59.6753 40.6653 59.6573 40.687C59.4246 40.9731 59.204 41.2815 59.0351 41.6145C58.7895 42.1183 58.5661 42.6956 58.5358 43.3014C58.5083 43.8572 58.5693 44.1902 59.1801 44.0589C59.778 43.9291 60.3675 42.9778 60.6208 42.4888Z" fill="black"/>
<path d="M60.8284 39.9135C60.866 39.6516 60.9351 39.6352 61.032 39.874C61.0778 39.9953 61.1033 40.1229 61.1076 40.2519C61.1141 40.259 61.1122 40.2693 61.1103 40.2798L61.11 40.2813C60.973 40.2058 60.8773 40.0878 60.8284 39.9135Z" fill="black"/>
<path d="M94.4272 39.8509C94.1041 40.0561 93.3433 40.7221 93.0884 41.4456C94.1461 41.4589 95.4784 40.8265 95.9503 40.2226C96.2476 39.8337 96.4718 39.2666 95.6978 39.3221C95.2187 39.3534 94.8046 39.6004 94.4272 39.8509Z" fill="black"/>
<path d="M98.8691 45.3921C98.8691 45.6853 98.6433 45.7033 98.3891 45.7033H98.032V45.1119H98.44C98.6473 45.1119 98.8691 45.1561 98.8691 45.3921Z" fill="black"/>
<path fill-rule="evenodd" clip-rule="evenodd" d="M99.7781 45.817C99.7781 46.6136 99.168 47.1998 98.394 47.1998C97.6115 47.1998 97.0006 46.6136 97.0006 45.817C97.0006 45.0333 97.6111 44.442 98.394 44.442C99.168 44.442 99.7781 45.0333 99.7781 45.817ZM97.7339 46.7754H98.032V45.9479H98.3762L98.897 46.7754H99.2315L98.6703 45.935C98.96 45.9002 99.1818 45.7513 99.1818 45.4097C99.1818 45.0333 98.9503 44.8668 98.4849 44.8668H97.7339V46.7754Z" fill="black"/>
<path fill-rule="evenodd" clip-rule="evenodd" d="M85.4987 24.455C84.8778 26.5468 83.8938 28.5213 82.5888 30.294H102V51.3738H56.7017L53.4839 52.1192L50.6419 52.7735C49.7794 52.9658 47.4912 53.472 46.7495 51.8304C46.6824 51.6826 46.6517 51.5278 46.6472 51.3738H31V30.294H50.3482C46.8109 25.4959 45.7439 19.5282 47.4205 13.8784C50.4334 3.72385 61.4263 -2.16874 71.9252 0.745116C77.0049 2.15807 81.2169 5.40103 83.7866 9.87949C85.4143 12.7265 86.2744 15.928 86.2744 19.1374C86.2737 20.9363 86.0126 22.7262 85.4987 24.455ZM48.5819 19.2746C48.5819 23.2453 50.0084 27.1449 52.6966 30.2979L80.2158 30.2983C81.7914 28.4694 82.9548 26.3423 83.6315 24.0532C84.1001 22.4733 84.3304 20.8638 84.3304 19.2648C84.3304 16.3705 83.5729 13.509 82.0826 10.9071C79.773 6.87026 75.9735 3.9443 71.3854 2.66697C61.9143 0.0376619 51.9968 5.35021 49.2752 14.5096C48.8106 16.082 48.5819 17.6849 48.5819 19.2746ZM85.2131 36.8886C85.1885 36.9144 85.0822 36.9433 85.0576 36.8722C84.8984 36.4301 85.1493 35.8208 85.3533 35.4342C85.4385 35.2654 85.5339 35.1423 85.6098 35.0465C85.8518 34.7197 86.1604 34.4328 86.1604 34.4328C86.4008 34.1741 86.9967 33.9693 87.3809 34.4102C87.7756 34.8585 87.3942 35.2591 87.0787 35.403C87.0044 35.4342 86.9389 35.4463 86.8694 35.4585C86.8149 35.4741 86.7256 35.5057 86.6129 35.58C86.4282 35.691 86.2574 35.8223 86.1039 35.9713C85.9565 36.1053 85.8208 36.2553 85.6843 36.4063C85.5339 36.5727 85.3824 36.7402 85.2131 36.8886ZM73.7302 34.2288C75.0795 33.6984 76.6457 33.5061 78.189 33.5245C79.775 33.5448 84.1478 33.8868 84.3207 36.4383C84.4148 37.7665 82.7609 38.8108 81.799 39.2787C80.6763 39.8337 79.4603 40.207 78.1861 40.4618C79.0345 40.7964 79.8821 41.201 80.6828 41.6864C80.8653 41.7987 81.0629 41.9136 81.2678 42.0327C82.1147 42.5251 83.0855 43.0896 83.6274 43.8392C84.1074 44.4935 83.3544 45.0955 82.7233 44.8352C82.1027 44.5744 81.5354 44.1575 80.9687 43.7411C80.7047 43.5471 80.4408 43.3532 80.1717 43.1752C79.3286 42.6225 78.4588 42.1214 77.5539 41.7564C76.6069 41.3729 75.6515 41.0747 74.6856 40.9086C74.5946 40.9122 74.5024 40.9154 74.4099 40.9185C74.3048 40.9221 74.1994 40.9257 74.0954 40.9301C74.008 41.1776 73.9223 41.426 73.8366 41.6743C73.4455 42.8076 73.0546 43.9404 72.5085 44.9872C72.2996 45.3999 71.2456 45.4422 71.3046 44.7093C71.3991 43.5019 71.669 42.3192 72.0463 41.197C71.6226 41.197 71.2004 41.12 70.8974 40.8808C70.4498 40.5267 70.4813 40.0014 70.8736 39.7688C71.4181 39.4569 72.0879 39.3225 72.8099 39.3018C72.9523 38.9989 73.1027 38.6997 73.2611 38.4044C73.7891 37.426 74.3979 36.5114 75.0601 35.6382C75.1303 35.5453 75.2015 35.4425 75.2742 35.3375C75.3084 35.288 75.343 35.238 75.378 35.1884C75.3477 35.1944 75.3173 35.2002 75.2869 35.2061C75.1386 35.2349 74.9908 35.2635 74.85 35.3021C74.8077 35.3135 74.7653 35.3248 74.7227 35.3361C74.2405 35.4645 73.7452 35.5964 73.3209 35.8309C73.2945 35.8478 73.2126 35.8843 73.1089 35.9305C72.8587 36.042 72.4824 36.2097 72.4584 36.2918L72.456 36.2902C72.3962 36.6889 71.6331 36.794 71.5321 36.2832C71.3103 35.2353 73.0325 34.5079 73.7302 34.2288ZM48.5993 40.311C48.931 40.277 49.3241 40.1073 49.6816 39.9256C50.0379 39.0884 50.4403 38.2781 50.9186 37.5073C51.6058 36.4063 52.3677 35.3111 53.3256 34.4493C53.3458 34.431 53.3668 34.4121 53.3882 34.3927C53.9833 33.8553 55.0281 32.9116 55.9943 33.247C57.2883 33.6984 56.6439 35.3478 56.2767 35.9283C55.6642 36.8886 54.8579 37.6989 53.9857 38.3997C53.0929 39.122 52.1346 39.8185 51.0648 40.309C50.8431 40.8926 50.6403 41.4829 50.4568 42.0788C50.4282 42.1717 50.398 42.265 50.3673 42.3599C50.349 42.4163 50.3306 42.4733 50.3122 42.531C50.5158 42.3505 50.7247 42.1726 50.9521 42.0124C50.9991 41.9768 51.0448 41.9422 51.0894 41.9083C51.5538 41.5559 51.9029 41.2909 52.4602 41.011C52.4916 40.9955 52.5244 40.9793 52.5583 40.9626C53.1109 40.6897 53.9743 40.2633 54.4802 40.1621C54.5237 40.1531 54.5693 40.143 54.6164 40.1324C54.918 40.065 55.287 39.9826 55.6545 40.112C56.0981 40.2676 56.4003 40.7147 56.3389 41.1369C56.3217 41.2499 56.271 41.4447 56.2082 41.6864C55.9457 42.6967 55.4701 44.5265 56.3304 44.6346C56.9715 44.7163 57.1521 45.2233 56.3312 45.4394C54.9257 45.8103 54.1481 44.5381 54.2277 43.2131C54.2535 42.6964 54.3529 42.1789 54.4858 41.6884C54.4781 41.6973 54.4692 41.7052 54.4575 41.7052C53.7033 41.8295 51.9528 42.9797 51.0147 44.0061C50.8917 44.1414 50.7709 44.3136 50.6441 44.4945C50.241 45.0693 49.7765 45.7317 48.9803 45.5751C48.6688 45.5141 48.3105 45.3378 48.2579 44.9649C48.1765 44.4477 48.3163 43.8974 48.4431 43.3987C48.4729 43.2812 48.5021 43.1666 48.5274 43.056C48.6376 42.5812 48.811 42.1317 48.9827 41.6865C49.0302 41.5636 49.0775 41.4409 49.1233 41.3182C49.1827 41.1525 49.2453 40.9922 49.3103 40.8304C49.0742 40.8505 48.8364 40.8384 48.6037 40.7945C48.2357 40.7241 48.3282 40.343 48.5993 40.311ZM43.9635 41.0114C45.1686 41.1087 47.2532 41.5867 47.5211 43.2049C47.6802 44.1629 47.1514 44.972 46.5979 45.541C44.9897 47.2038 42.6373 48.2892 40.3386 48.922C39.1678 49.2417 36.8239 49.8503 35.3954 48.8114C34.7098 48.5213 34.4105 47.3965 35.2301 47.4191C35.3376 47.4199 35.4329 47.5129 35.4895 47.6056C35.7622 48.0851 36.4938 48.2223 36.9196 48.2567C37.6428 48.3119 38.0698 48.2314 38.8586 48.0826L38.9052 48.0738C39.5415 47.9065 40.1572 47.7099 40.7559 47.4598C41.879 46.9876 42.9358 46.406 43.8678 45.6646C44.4637 45.199 45.2587 44.4572 45.3848 43.8729C45.4115 43.746 45.4303 43.7175 45.4343 43.6872C45.4382 43.6571 45.4275 43.6252 45.3953 43.4933C45.403 43.5344 45.304 43.3687 45.3201 43.3706C44.8343 42.8335 43.9432 42.8257 43.3279 42.8203C43.2765 42.8199 43.227 42.8194 43.1798 42.8187C42.5806 42.8078 41.9859 42.8093 41.3921 42.8109C40.9439 42.812 40.4961 42.8131 40.0473 42.8089C39.1828 42.7945 37.9878 42.6882 37.1863 42.0417C35.0706 40.345 37.1951 38.1808 38.3796 37.283C40.0109 36.0326 42.0668 35.0609 44.0395 34.6681C45.3904 34.3988 47.936 34.0267 49.318 35.2513C50.7429 36.5142 49.5911 38.4978 48.5068 38.9684C48.0806 39.1525 47.7982 38.6612 47.986 38.4067H47.9792C48.3133 38.0678 48.6801 37.2724 48.5068 36.6987C48.3073 36.0527 47.5606 36.0161 47.0519 35.9911C47.0207 35.9896 46.9904 35.9881 46.9611 35.9865C45.6284 35.915 44.1571 36.3082 43.0085 36.7573C41.9327 37.1845 41.1841 37.6219 40.2626 38.2801C39.5496 38.7882 38.6907 39.4698 38.4051 40.3618C38.1968 40.9928 40.5512 40.9804 41.0111 40.978C41.0329 40.9779 41.0505 40.9778 41.0633 40.9778C41.272 40.9763 41.4814 40.9732 41.6913 40.9701C42.4434 40.959 43.2031 40.9478 43.9635 41.0114ZM83.7988 46.2146C84.7936 46.3705 85.9542 46.5525 86.7794 47.2092C87.4839 47.7709 86.261 48.6734 85.6134 48.0312C85.2685 47.6885 84.683 47.5759 84.2003 47.4831C84.0911 47.4621 83.9872 47.4421 83.8925 47.4207C83.0355 47.2301 82.1675 47.0892 81.2932 46.9986C79.464 46.8223 77.6484 46.8133 75.8826 46.9278C72.3493 47.1565 68.8888 47.6278 65.5304 48.3525C64.8092 48.5061 64.093 48.6724 63.3753 48.8392C63.1467 48.8923 62.9179 48.9454 62.6888 48.9982C62.6245 49.2014 62.4274 49.7099 62.383 49.7643L62.3687 49.7944C62.2349 50.078 62.0993 50.3654 61.825 50.5202C61.2158 50.861 60.0019 50.5276 60.3351 49.5794C60.3406 49.5625 60.3464 49.5457 60.3525 49.529C60.0503 49.5995 59.7484 49.6702 59.4465 49.7408C58.2106 50.03 56.9762 50.3189 55.7365 50.5956C55.0526 50.7505 54.3708 50.9112 53.6891 51.0719C52.7521 51.2928 51.8151 51.5137 50.8729 51.7194C50.8506 51.7243 50.8273 51.7295 50.803 51.7349C49.99 51.9165 48.1495 52.3275 47.6144 51.1448C47.5162 50.9255 47.5712 50.6371 47.6645 50.4502C47.7748 50.2247 48.0095 50.0082 48.5003 50.0179C48.7342 50.0179 48.7964 50.1321 48.7031 50.2657C48.7031 50.3275 48.8122 50.4014 48.9637 50.4096C49.2093 50.424 49.7688 50.3369 49.7688 50.3369C50.39 50.2177 50.9957 50.0556 51.6025 49.8933C51.8059 49.8388 52.0095 49.7843 52.2138 49.7314C53.8431 49.3101 55.4938 48.9286 57.1489 48.5604C58.3992 48.2798 59.6532 48.0062 60.9153 47.7404C60.97 47.5542 61.0246 47.3666 61.0793 47.1785C61.5375 45.604 62.0093 43.9825 62.7094 42.6632C62.9431 42.1152 63.2027 41.578 63.4875 41.0532C63.4961 41.0361 63.5049 41.0188 63.5137 41.0013C63.5698 40.8904 63.6291 40.7731 63.6951 40.6549C63.6169 40.6787 63.539 40.7028 63.4613 40.7269C63.0807 40.8447 62.7038 40.9614 62.3062 41.0344C62.3384 41.7871 62.1835 42.5362 61.8545 43.219C61.2288 44.5275 60.3267 45.5121 58.7184 45.4977C57.4369 45.4855 56.677 44.4377 56.831 43.2334C57.0071 41.8853 57.7011 40.619 58.7115 39.8744C58.8856 39.7411 59.5361 39.4077 60.0495 39.3881C60.0981 39.2877 60.168 39.1983 60.2547 39.1259C60.9258 38.5673 61.9612 39.2224 62.183 40.1405C62.2024 40.2023 62.2162 40.2656 62.2242 40.3297C62.9027 40.2009 63.6663 39.8926 64.1452 39.6992C64.3319 39.6238 64.4753 39.5659 64.5536 39.5429C64.7184 39.4972 65.0206 39.4827 65.1741 39.6813C65.1757 39.6829 65.1757 39.6875 65.1757 39.6895C65.707 39.319 66.3036 39.0325 66.9727 38.8761C67.7907 38.6838 68.9348 38.8273 69.443 39.8568C69.8866 40.7452 69.8111 41.6071 69.4834 42.3595C68.6779 44.1949 67.1185 45.2643 64.9976 45.4117C64.1003 45.4742 64.0365 44.7206 64.5843 44.5428C66.0298 44.0812 67.3532 43.158 67.8788 41.8044C68.1002 41.2361 68.284 39.7083 67.047 40.1398C66.3804 40.3758 65.8282 40.8038 65.3567 41.2897C65.1357 41.5164 64.9394 41.7681 64.7515 42.0331C64.6816 42.2253 64.6105 42.4173 64.5393 42.6094C64.4001 42.9854 64.2607 43.3619 64.1294 43.7411C63.8384 44.5953 63.5895 45.5931 63.3404 46.5913C63.2828 46.8222 63.2252 47.0531 63.1671 47.2823C64.5637 47.0111 65.9659 46.7574 67.3851 46.5506C70.8606 46.0464 74.4319 45.6532 78.0702 45.7267C79.775 45.7611 81.5025 45.8146 83.2461 46.1242C83.4218 46.1555 83.6072 46.1846 83.7988 46.2146ZM90.4929 39.2398C90.2102 40.4865 89.4379 43.8931 91.7537 43.8221C92.3184 43.8052 92.2796 44.4935 91.8906 44.6687C91.1816 44.9946 89.3208 45.0458 88.5997 43.5977C88.1303 42.6643 88.1359 41.7607 88.3149 40.8996C87.8789 41.3886 87.4125 41.8515 86.9183 42.2856L86.885 42.3144C86.2991 42.8206 85.6415 43.3888 84.7586 43.3808C84.0149 43.3769 83.2154 42.8609 83.1002 42.021C82.9071 40.5619 83.5927 38.9297 84.7715 38.3743C85.0006 38.264 85.1836 38.3305 85.2987 38.463C85.4535 38.5759 85.5428 38.7382 85.4345 38.9172C85.4181 38.9366 85.4051 38.9583 85.3957 38.9817C85.3869 38.9957 85.38 39.0087 85.3733 39.0211C85.3669 39.0332 85.3607 39.0447 85.3533 39.0563C85.0188 39.6551 84.5247 40.9297 84.8697 41.6927C84.9004 41.672 84.9319 41.6525 84.9642 41.6344C85.1836 41.5035 85.3913 41.3612 85.5868 41.201C85.99 40.8918 86.3875 40.5814 86.7656 40.2426C87.7182 39.3952 88.5807 38.452 89.3649 37.4327C89.3732 37.4081 89.3829 37.384 89.394 37.3604C88.691 37.5765 87.902 37.7489 87.2565 37.5316C86.5362 37.2857 86.0744 36.5857 86.6703 36.1573C86.7915 36.0631 87.1268 36.0854 87.1672 36.3281C87.2082 36.5976 89.0555 36.03 89.789 35.8046C89.929 35.7616 90.0284 35.731 90.067 35.7211C90.1001 35.7106 90.1373 35.7035 90.1696 35.6961C90.6423 34.7608 91.1529 33.82 91.8409 33.0887C92.0223 32.8948 92.6109 32.8377 92.6962 33.2798C92.8008 33.8615 92.5014 34.381 92.2404 34.8339C92.2032 34.8983 92.1669 34.9613 92.1326 35.023C92.1123 35.0588 92.0923 35.0961 92.0724 35.1332C92.059 35.1581 92.0457 35.1829 92.0324 35.2071C92.123 35.1856 92.2136 35.1633 92.3045 35.1409C92.4496 35.1051 92.5952 35.0693 92.7418 35.0363C93.6811 34.8432 94.6268 34.7166 95.6267 34.7197C96.1365 34.7197 96.9073 34.8159 97.2442 35.3596C97.4349 35.6605 97.222 36.0268 97.0043 36.1471C96.6278 36.35 96.3074 36.3281 95.8388 36.2179C95.2842 36.0926 94.6744 36.1713 94.1444 36.2397L94.098 36.2456C93.1559 36.3668 92.1997 36.5376 91.2874 36.771C90.9909 37.5398 90.7013 38.3117 90.5158 39.1384C90.5086 39.1703 90.501 39.2042 90.4929 39.2398ZM94.7973 41.996C94.3428 42.116 93.77 42.243 93.1042 42.2465C93.2044 42.4232 93.2662 42.517 93.5567 42.6827C94.4046 43.1721 96.0396 43.0638 96.8863 42.4462C97.2168 42.2062 97.8821 42.5486 97.5585 42.9438C96.5429 44.1926 93.5849 44.8492 92.0045 43.2186C91.0539 42.2414 91.443 40.8195 91.9771 40.0464C92.5342 39.249 93.3114 38.6869 94.2313 38.3297C94.9504 38.0456 96.0638 37.865 96.9158 38.3074C97.8248 38.7819 97.87 39.7665 97.4414 40.3837C96.8593 41.2142 95.8016 41.727 94.7973 41.996ZM98.394 44.1664C97.4527 44.1664 96.6572 44.8668 96.6572 45.817C96.6572 46.7754 97.4527 47.4758 98.394 47.4758C99.3256 47.4758 100.123 46.7754 100.123 45.817C100.123 44.8668 99.326 44.1664 98.394 44.1664Z" fill="black"/>
</svg>
