<?xml version="1.0" encoding="utf-8"?>
<svg width="134" height="60" viewBox="0 0 134 60" fill="none" xmlns="http://www.w3.org/2000/svg">
<path d="M81.8918 32.6413C81.8918 29.9537 80.7413 27.5792 76.8505 27.5792C74.8543 27.5792 73.2686 28.1481 72.4089 28.6461L73.039 30.8023C73.8306 30.3057 75.0936 29.8967 76.2857 29.8967C78.2555 29.8939 78.5782 31.0082 78.5782 31.7246V31.8971C74.2784 31.8901 71.5603 33.3758 71.5603 36.4013C71.5603 38.25 72.9403 39.9833 75.3524 39.9833C76.8241 39.9833 78.0677 39.3893 78.8105 38.4518H78.8829C78.8829 38.4518 79.3726 40.5008 82.0809 39.7176C81.9432 38.8593 81.8918 37.9551 81.8918 36.8562V32.6413ZM78.684 35.479C78.684 35.6961 78.6659 35.9214 78.6019 36.1148C78.3543 36.9424 77.5002 37.6352 76.4374 37.6352C75.5402 37.6352 74.8363 37.1275 74.8363 36.0633C74.8363 34.4357 76.6335 33.9878 78.684 33.999" fill="black"/>
<path d="M16.0625 23.9225C16.0625 23.9225 18.871 35.4127 19.3176 37.2739C19.8434 39.4496 20.7851 40.2536 23.5033 39.718L25.2588 32.593C25.7026 30.8277 26.0044 29.5619 26.291 27.7632H26.3396C26.5386 29.58 26.8252 30.8277 27.1882 32.5986C27.1882 32.5986 27.9046 35.8356 28.276 37.5313C28.6377 39.227 29.6559 40.2967 32.3226 39.718L36.5014 23.9225H33.128L31.6939 30.7554C31.3141 32.7349 30.9691 34.2943 30.7006 36.1082H30.652C30.4099 34.3138 30.1025 32.8184 29.7074 30.8792L28.2218 23.9225H24.7024L23.1166 30.7012C22.6645 32.7711 22.2416 34.4306 21.9759 36.1875H21.93C21.656 34.5391 21.2846 32.44 20.8909 30.448C20.8909 30.448 19.9491 25.5946 19.6167 23.9225" fill="black"/>
<path d="M45.9023 32.6413C45.9023 29.9537 44.7491 27.5792 40.8582 27.5792C38.8677 27.5792 37.2791 28.1481 36.4194 28.6461L37.0495 30.8023C37.8383 30.3057 39.1 29.8967 40.2963 29.8967C42.266 29.8939 42.5888 31.0082 42.5888 31.7246V31.8971C38.289 31.8901 35.5681 33.3758 35.5681 36.4013C35.5681 38.25 36.9536 39.9833 39.3546 39.9833C40.8402 39.9833 42.0727 39.3893 42.8155 38.4518H42.8906C42.8906 38.4518 43.383 40.5008 46.0887 39.7176C45.9496 38.8593 45.9023 37.9551 45.9023 36.8562V32.6413ZM42.6917 35.479C42.6917 35.6961 42.6737 35.9214 42.6124 36.1148C42.362 36.9424 41.5079 37.6352 40.4424 37.6352C39.5507 37.6352 38.844 37.1275 38.844 36.0633C38.844 34.4357 40.6412 33.9878 42.6917 33.999" fill="black"/>
<path d="M47.6528 23.9225V39.7125H50.8633V23.9225H47.6528Z" fill="black"/>
<path d="M91.7455 23.9225V35.5727C91.7455 37.1807 92.0473 38.3019 92.6969 38.9891C93.2673 39.5915 94.2006 39.9837 95.3121 39.9837C96.2664 39.9837 97.1998 39.8001 97.6408 39.6401L97.6018 37.1321C97.2721 37.2086 96.8951 37.2739 96.3776 37.2739C95.2815 37.2739 94.9198 36.5798 94.9198 35.1359V30.6761H97.7159V27.6589H94.9198V23.9225" fill="black"/>
<path d="M83.4472 27.8532V39.7176H86.7663V33.6415C86.7663 33.3146 86.7871 33.0322 86.8386 32.7706C87.0862 31.4895 88.0585 30.6785 89.4593 30.6785C89.8502 30.6785 90.1159 30.7216 90.4109 30.7675V27.6571C90.1632 27.6126 89.9949 27.5889 89.6903 27.5889C88.448 27.5889 87.0403 28.3777 86.4463 30.0956H86.3643V27.8532" fill="black"/>
<path d="M52.7277 27.8532V39.7176H55.9619V32.754C55.9619 32.4271 55.998 32.0932 56.1135 31.7913C56.3765 31.0861 57.0289 30.2695 58.0763 30.2695C59.3783 30.2695 59.9932 31.3685 59.9932 32.9543V39.7176H63.2191V32.6705C63.2191 32.3631 63.2623 31.9861 63.3526 31.7134C63.6114 30.9136 64.318 30.2695 65.2946 30.2695C66.6105 30.2695 67.2476 31.3448 67.2476 33.2144V39.7176H70.4707V32.722C70.4707 29.0468 68.6011 27.5889 66.4783 27.5889C65.545 27.5889 64.8022 27.8185 64.1344 28.2302C63.5696 28.5766 63.0744 29.0648 62.6306 29.7033H62.582C62.0715 28.4264 60.8724 27.5889 59.306 27.5889C57.2973 27.5889 56.3848 28.603 55.8479 29.4599H55.7991V27.8532" fill="black"/>
<path d="M115.086 27.3207C115.72 27.3207 116.254 26.9897 116.324 26.564L116.953 19.4417C116.953 18.7365 116.122 18.1592 115.086 18.1592C114.044 18.1592 113.219 18.7365 113.219 19.4417L113.853 26.564C113.92 26.9897 114.451 27.3207 115.086 27.3207Z" fill="black"/>
<path d="M111.228 29.5494C111.542 28.9929 111.524 28.3753 111.185 28.0999L105.315 23.9948C104.704 23.6387 103.79 24.063 103.267 24.9616C102.745 25.8589 102.851 26.866 103.449 27.2152L109.948 30.2282C110.364 30.384 110.908 30.0947 111.228 29.5438" fill="black"/>
<path d="M118.943 29.5435C119.275 30.0944 119.819 30.3837 120.224 30.2363L126.723 27.2149C127.327 26.8588 127.417 25.8614 126.907 24.9641C126.385 24.0655 125.466 23.644 124.856 23.9932L118.985 28.094C118.659 28.3736 118.635 28.994 118.95 29.5491" fill="black"/>
<path d="M115.086 36.2173C115.72 36.2173 116.254 36.5484 116.324 36.974L116.953 44.0963C116.953 44.8015 116.122 45.3733 115.086 45.3733C114.044 45.3733 113.219 44.8015 113.219 44.0963L113.853 36.974C113.92 36.5484 114.451 36.2173 115.086 36.2173Z" fill="black"/>
<path d="M118.943 33.9949C119.275 33.4427 119.819 33.1478 120.224 33.3077L126.723 36.3236C127.327 36.6727 127.417 37.6785 126.907 38.5771C126.385 39.4688 125.466 39.893 124.856 39.5439L118.985 35.4375C118.659 35.1606 118.635 34.543 118.95 33.9949" fill="black"/>
<path d="M111.228 33.9888C111.542 34.5438 111.524 35.1601 111.185 35.4383L105.315 39.5378C104.704 39.8939 103.79 39.4682 103.267 38.5765C102.745 37.6793 102.851 36.6722 103.449 36.323L109.948 33.3072C110.364 33.1486 110.908 33.4407 111.228 33.9888Z" fill="black"/>
<path d="M128.625 38.9189H128.706C128.815 38.9189 128.86 38.9536 128.873 39.0413C128.896 39.1387 128.909 39.204 128.932 39.2319H129.141C129.123 39.211 129.099 39.1581 129.087 39.0357C129.063 38.93 129.009 38.8702 128.932 38.8493V38.8298C129.038 38.8062 129.099 38.7353 129.099 38.6476C129.099 38.5683 129.063 38.5113 129.027 38.4751C128.957 38.4417 128.891 38.4153 128.743 38.4153C128.612 38.4153 128.516 38.4264 128.44 38.4445V39.2319H128.625V38.9189ZM128.63 38.56L128.725 38.5475C128.836 38.5475 128.896 38.5989 128.896 38.6713C128.896 38.7519 128.815 38.7895 128.713 38.7895H128.63V38.56ZM128.749 38.0258C128.292 38.0258 127.931 38.3819 127.931 38.8187C127.931 39.2666 128.292 39.6228 128.749 39.6228C129.211 39.6228 129.561 39.2666 129.561 38.8187C129.561 38.3819 129.211 38.0258 128.749 38.0258ZM128.749 38.1858C129.099 38.1858 129.359 38.4696 129.359 38.8187C129.359 39.1707 129.099 39.4628 128.749 39.4572C128.398 39.4572 128.132 39.1707 128.132 38.8187C128.132 38.4696 128.398 38.1858 128.743 38.1858" fill="black"/>
</svg>
