<?xml version="1.0" encoding="utf-8"?>
<svg width="90" height="60" viewBox="0 0 90 60" fill="none" xmlns="http://www.w3.org/2000/svg">
<path d="M53.6075 30.473C53.6075 30.473 53.3108 30.4929 53.1651 30.5161C52.6024 30.6066 52.435 30.759 52.435 31.4518V36.9168C52.435 37.6621 52.8991 37.7065 53.5537 37.7433C55.1516 37.8339 56.0798 36.4145 56.0798 34.119C56.0798 31.8221 55.1579 30.4731 53.6075 30.4731C53.6075 30.4731 53.3108 30.493 53.1652 30.5161C52.6025 30.6067 52.435 30.7591 52.435 31.4519V36.9169C52.435 37.6621 52.8991 37.7066 53.5538 37.7434C55.1517 37.834 56.0799 36.4146 56.0799 34.1191C56.0799 31.8222 55.1579 30.4731 53.6075 30.4731M36.8337 30.5531C35.4005 30.5531 34.5155 31.9205 34.5155 34.187C34.5155 36.4026 35.3863 37.7438 36.8599 37.7438C38.2935 37.7438 39.1924 36.3501 39.1924 34.1625C39.1924 31.9468 38.2797 30.5531 36.8337 30.5531ZM45.3876 30.5531C43.954 30.5531 43.0672 31.9205 43.0672 34.187C43.0672 36.4026 43.9403 37.7438 45.4134 37.7438C46.8456 37.7438 47.7445 36.3501 47.7445 34.1625C47.7445 31.9468 46.8332 30.5531 45.3876 30.5531ZM53.6075 30.4731C53.6075 30.4731 53.3109 30.4931 53.1652 30.5162C52.6025 30.6068 52.4351 30.7592 52.4351 31.452V36.917C52.4351 37.6622 52.8992 37.7066 53.5538 37.7435C55.1517 37.8341 56.0799 36.4147 56.0799 34.1192C56.0799 31.8223 55.1579 30.4732 53.6076 30.4732C53.6076 30.4732 53.3109 30.4932 53.1652 30.5163C52.6025 30.6069 52.4351 30.7592 52.4351 31.4521V36.9171C52.4351 37.6623 52.8992 37.7067 53.5538 37.7436C55.1517 37.8342 56.0799 36.4148 56.0799 34.1193C56.0799 31.8224 55.158 30.4733 53.6076 30.4733M45.3877 30.5533C43.9541 30.5533 43.0672 31.9207 43.0672 34.1871C43.0672 36.4028 43.9403 37.7439 45.4135 37.7439C46.8457 37.7439 47.7446 36.3503 47.7446 34.1626C47.7446 31.947 46.8333 30.5533 45.3877 30.5533ZM36.8338 30.5533C35.4006 30.5533 34.5155 31.9207 34.5155 34.1871C34.5155 36.4028 35.3864 37.7439 36.86 37.7439C38.2936 37.7439 39.1925 36.3503 39.1925 34.1626C39.1925 31.947 38.2798 30.5533 36.8338 30.5533ZM38.0049 43.3969C37.9831 43.3569 37.662 42.693 37.6238 42.6099C37.5883 42.5362 37.4995 42.5318 37.4671 42.6131C37.4302 42.7037 37.1135 43.3401 37.0922 43.3859C37.0567 43.4614 37.0967 43.5107 37.1691 43.5107H37.9263C37.9818 43.5107 38.0368 43.4614 38.0049 43.397M36.8338 30.5534C35.4006 30.5534 34.5155 31.9208 34.5155 34.1872C34.5155 36.4029 35.3864 37.744 36.86 37.744C38.2936 37.744 39.1924 36.3504 39.1924 34.1627C39.1924 31.9471 38.2798 30.5534 36.8338 30.5534ZM45.3877 30.5534C43.9541 30.5534 43.0672 31.9208 43.0672 34.1872C43.0672 36.4029 43.9403 37.744 45.4135 37.744C46.8457 37.744 47.7446 36.3504 47.7446 34.1627C47.7446 31.9471 46.8332 30.5534 45.3877 30.5534ZM53.6076 30.4734C53.6076 30.4734 53.3109 30.4934 53.1652 30.5165C52.6025 30.6071 52.4351 30.7594 52.4351 31.4523V36.9173C52.4351 37.6625 52.8992 37.7069 53.5539 37.7438C55.1518 37.8343 56.08 36.415 56.08 34.1195C56.08 31.8225 55.158 30.4735 53.6076 30.4735C53.6076 30.4735 53.311 30.4935 53.1653 30.5166C52.6026 30.6072 52.4352 30.7595 52.4352 31.4523V36.9174C52.4352 37.6626 52.8992 37.707 53.5539 37.7438C55.1518 37.8344 56.08 36.4151 56.08 34.1196C56.08 31.8226 55.158 30.4736 53.6077 30.4736M45.3877 30.5535C43.9541 30.5535 43.0673 31.921 43.0673 34.1874C43.0673 36.4031 43.9404 37.7442 45.4135 37.7442C46.8458 37.7442 47.7446 36.3506 47.7446 34.1629C47.7446 31.9473 46.8333 30.5535 45.3877 30.5535ZM36.8338 30.5535C35.4007 30.5535 34.5156 31.921 34.5156 34.1874C34.5156 36.4031 35.3865 37.7442 36.8601 37.7442C38.2936 37.7442 39.1925 36.3506 39.1925 34.1629C39.1925 31.9473 38.2799 30.5535 36.8338 30.5535ZM38.0049 43.3972C37.9832 43.3572 37.6621 42.6933 37.6239 42.6102C37.5884 42.5365 37.4995 42.532 37.4671 42.6134C37.4303 42.704 37.1136 43.3404 37.0923 43.3862C37.0568 43.4617 37.0967 43.511 37.1691 43.511H37.9263C37.9818 43.511 38.0369 43.4617 38.0049 43.3973C37.9831 43.3573 37.6621 42.6934 37.6239 42.6103C37.5883 42.5366 37.4995 42.5321 37.4671 42.6135C37.4302 42.7041 37.1136 43.3405 37.0923 43.3862C37.0567 43.4617 37.0967 43.511 37.1691 43.511H37.9263C37.9818 43.511 38.0369 43.4617 38.0049 43.3973M36.8338 30.5534C35.4006 30.5534 34.5155 31.9208 34.5155 34.1872C34.5155 36.4029 35.3864 37.744 36.86 37.744C38.2936 37.744 39.1925 36.3504 39.1925 34.1627C39.1925 31.9471 38.2798 30.5534 36.8338 30.5534ZM42.9355 42.0433H41.9705C41.8705 42.0433 41.7662 42.0784 41.7662 42.2028V42.9067C41.7662 43.0173 41.8705 43.0817 41.9705 43.0817H42.9355C43.2597 43.0817 43.5239 42.9111 43.5239 42.5625C43.5239 42.2139 43.2597 42.0434 42.9355 42.0434M45.3879 30.5534C43.9543 30.5534 43.0674 31.9208 43.0674 34.1873C43.0674 36.4029 43.9405 37.744 45.4137 37.744C46.8459 37.744 47.7448 36.3504 47.7448 34.1627C47.7448 31.9471 46.8335 30.5534 45.3879 30.5534ZM53.6078 30.4734C53.6078 30.4734 53.3111 30.4934 53.1655 30.5165C52.6028 30.6071 52.4353 30.7594 52.4353 31.4523V36.9173C52.4353 37.6625 52.8994 37.7069 53.5541 37.7438C55.152 37.8344 56.0802 36.415 56.0802 34.1195C56.0802 31.8225 55.1582 30.4735 53.6078 30.4735C53.6078 30.4735 53.3112 30.4935 53.1655 30.5166C52.6028 30.6072 52.4354 30.7595 52.4354 31.4524V36.9174C52.4354 37.6626 52.8995 37.707 53.5541 37.7439C55.152 37.8345 56.0802 36.4151 56.0802 34.1196C56.0802 31.8226 55.1582 30.4736 53.6079 30.4736M45.3879 30.5536C43.9544 30.5536 43.0675 31.921 43.0675 34.1874C43.0675 36.4031 43.9406 37.7442 45.4137 37.7442C46.846 37.7442 47.7448 36.3506 47.7448 34.1629C47.7448 31.9473 46.8335 30.5536 45.3879 30.5536ZM36.834 30.5536C35.4009 30.5536 34.5158 31.921 34.5158 34.1874C34.5158 36.4031 35.3867 37.7442 36.8603 37.7442C38.2938 37.7442 39.1927 36.3506 39.1927 34.1629C39.1927 31.9473 38.2801 30.5536 36.834 30.5536ZM42.9357 42.0435H41.9707C41.8708 42.0435 41.7664 42.0786 41.7664 42.203V42.9069C41.7664 43.0175 41.8708 43.0819 41.9707 43.0819H42.9357C43.2599 43.0819 43.5242 42.9113 43.5242 42.5627C43.5242 42.2141 43.2599 42.0436 42.9357 42.0436M38.0051 43.3972C37.9833 43.3572 37.6622 42.6933 37.624 42.6102C37.5885 42.5365 37.4997 42.5321 37.4673 42.6134C37.4304 42.704 37.1137 43.3404 37.0924 43.3862C37.0569 43.4617 37.0969 43.511 37.1693 43.511H37.9264C37.982 43.511 38.037 43.4617 38.0051 43.3973C37.9833 43.3573 37.6622 42.6934 37.624 42.6103C37.5885 42.5366 37.4997 42.5322 37.4672 42.6135C37.4304 42.7041 37.1137 43.3405 37.0924 43.3863C37.0569 43.4618 37.0969 43.5111 37.1692 43.5111H37.9264C37.9819 43.5111 38.037 43.4618 38.005 43.3974M36.8339 30.5534C35.4008 30.5534 34.5157 31.9208 34.5157 34.1873C34.5157 36.4029 35.3866 37.744 36.8602 37.744C38.2937 37.744 39.1926 36.3504 39.1926 34.1628C39.1926 31.9471 38.28 30.5534 36.8339 30.5534ZM42.9356 42.0434H41.9706C41.8707 42.0434 41.7663 42.0784 41.7663 42.2028V42.9067C41.7663 43.0173 41.8707 43.0817 41.9706 43.0817H42.9356C43.2598 43.0817 43.5241 42.9112 43.5241 42.5625C43.5241 42.2139 43.2598 42.0434 42.9356 42.0434M45.388 30.5534C43.9544 30.5534 43.0676 31.9208 43.0676 34.1873C43.0676 36.4029 43.9407 37.7441 45.4138 37.7441C46.846 37.7441 47.7449 36.3505 47.7449 34.1628C47.7449 31.9471 46.8336 30.5534 45.388 30.5534ZM53.6079 30.4735C53.6079 30.4735 53.3113 30.4934 53.1656 30.5165C52.6029 30.6071 52.4355 30.7595 52.4355 31.4523V36.9173C52.4355 37.6625 52.8996 37.707 53.5542 37.7438C55.1521 37.8344 56.0803 36.415 56.0803 34.1195C56.0803 31.8226 55.1583 30.4736 53.608 30.4736C53.608 30.4736 53.3113 30.4935 53.1656 30.5166C52.6029 30.6072 52.4355 30.7596 52.4355 31.4524V36.9174C52.4355 37.6626 52.8996 37.707 53.5543 37.7439C55.1522 37.8345 56.0803 36.4151 56.0803 34.1196C56.0803 31.8227 55.1584 30.4736 53.608 30.4736M45.3881 30.5536C43.9545 30.5536 43.0676 31.921 43.0676 34.1875C43.0676 36.4031 43.9407 37.7442 45.4139 37.7442C46.8461 37.7442 47.745 36.3506 47.745 34.163C47.745 31.9473 46.8337 30.5536 45.3881 30.5536ZM36.8342 30.5536C35.401 30.5536 34.5159 31.921 34.5159 34.1875C34.5159 36.4031 35.3868 37.7442 36.8604 37.7442C38.294 37.7442 39.1929 36.3506 39.1929 34.163C39.1929 31.9473 38.2802 30.5536 36.8342 30.5536ZM42.9359 42.0436H41.9709C41.8709 42.0436 41.7666 42.0786 41.7666 42.203V42.9069C41.7666 43.0175 41.8709 43.0819 41.9709 43.0819H42.9359C43.2601 43.0819 43.5243 42.9114 43.5243 42.5627C43.5243 42.2141 43.2601 42.0436 42.9359 42.0436M38.0052 43.3972C37.9834 43.3573 37.6624 42.6933 37.6242 42.6103C37.5886 42.5366 37.4998 42.5321 37.4674 42.6135C37.4305 42.7041 37.1139 43.3405 37.0926 43.3862C37.057 43.4617 37.097 43.511 37.1694 43.511H37.9266C37.9821 43.511 38.0372 43.4617 38.0052 43.3973M64.5647 38.4173C64.5647 38.3267 64.4741 38.3049 64.3848 38.3049H64.2623V38.5279H64.3542C64.4665 38.5279 64.5647 38.5216 64.5647 38.4173ZM64.5647 38.9733L64.3373 38.6522H64.2605V38.9733H64.125V38.1806H64.423C64.6091 38.1806 64.6935 38.2543 64.6935 38.4173C64.6935 38.5754 64.606 38.6367 64.491 38.6491L64.721 38.9733L64.5647 38.9733ZM64.3817 38.0513C64.0757 38.0513 63.8484 38.2805 63.8484 38.5967C63.8484 38.9133 64.0758 39.1407 64.3817 39.1407C64.689 39.1407 64.9147 38.9133 64.9147 38.5967C64.9147 38.2805 64.6891 38.0513 64.3817 38.0513ZM37.6222 42.61C37.5867 42.5363 37.4978 42.5318 37.4654 42.6132C37.4286 42.7038 37.1119 43.3402 37.0906 43.386C37.0551 43.4615 37.095 43.5108 37.1674 43.5108H37.9246C37.9801 43.5108 38.0352 43.4615 38.0032 43.3971C37.9814 43.3571 37.6604 42.6932 37.6222 42.6101M36.8321 30.5534C35.3989 30.5534 34.5138 31.9209 34.5138 34.1873C34.5138 36.403 35.3847 37.7441 36.8583 37.7441C38.2919 37.7441 39.1908 36.3505 39.1908 34.1628C39.1908 31.9471 38.2781 30.5534 36.8321 30.5534ZM42.9338 42.0434H41.9688C41.8688 42.0434 41.7645 42.0785 41.7645 42.2029V42.9067C41.7645 43.0173 41.8688 43.0817 41.9688 43.0817H42.9338C43.258 43.0817 43.5222 42.9112 43.5222 42.5625C43.5222 42.2139 43.258 42.0434 42.9338 42.0434M45.3862 30.5534C43.9526 30.5534 43.0657 31.9208 43.0657 34.1873C43.0657 36.4029 43.9388 37.7441 45.412 37.7441C46.8442 37.7441 47.7431 36.3505 47.7431 34.1628C47.7431 31.9471 46.8318 30.5534 45.3862 30.5534ZM56.0785 34.1198C56.0785 31.8229 55.1566 30.4738 53.6062 30.4738C53.6062 30.4738 53.3095 30.4938 53.1639 30.5169C52.6012 30.6075 52.4338 30.7598 52.4338 31.4527V36.9177C52.4338 37.6629 52.8978 37.7073 53.5525 37.7442C55.1504 37.8348 56.0786 36.4154 56.0786 34.1199M65.0745 27.7958C65.0225 28.0351 64.8733 28.1231 64.6104 28.1231L64.2773 28.1245H59.1619C58.7227 28.1245 58.5734 28.037 58.5734 27.7465C58.5734 27.5547 58.7227 27.3961 58.8976 27.3961H59.1619C59.2525 27.3961 59.3435 27.3162 59.3711 27.2287C59.411 27.1226 59.4217 27.0582 59.4217 26.7064V20.874C59.4217 20.5361 59.411 20.4681 59.3711 20.3624C59.3435 20.247 59.2387 20.1688 59.1619 20.1688H58.8976C58.7227 20.1688 58.5628 19.9983 58.5628 19.8046C58.5628 19.5155 58.7227 19.4218 59.1619 19.4218H64.369C64.6319 19.4218 64.7793 19.5097 64.833 19.7491L65.0173 20.656C65.088 20.9908 64.9698 21.1707 64.7318 21.1707C64.6056 21.1707 64.4844 21.1383 64.3965 20.9678C64.3814 20.9416 64.3276 20.8465 64.2677 20.6866C64.1402 20.3513 63.8773 20.31 63.2702 20.31H62.0413C61.3299 20.31 61.2499 20.4037 61.2499 21.0966V22.6456C61.2499 22.9374 61.2912 23.0649 61.3699 23.1173C61.4298 23.1586 61.5266 23.1679 61.9001 23.1679H62.5068C63.0539 23.1679 63.1321 23.1279 63.172 22.8668L63.1814 22.7869C63.2214 22.5657 63.3382 22.4613 63.5349 22.4613C63.808 22.4613 63.8991 22.6163 63.8991 23.0742V24.1698C63.8991 24.6259 63.808 24.7827 63.5349 24.7827C63.3382 24.7827 63.2214 24.6646 63.1814 24.4434L63.1676 24.3572C63.129 24.0961 63.0508 24.0575 62.5024 24.0575H61.9002C61.5267 24.0575 61.4298 24.0668 61.3699 24.1081C61.2913 24.1605 61.25 24.2866 61.25 24.5802V26.2332C61.25 26.9233 61.2913 27.069 61.4973 27.1489C61.6648 27.212 61.846 27.2395 62.2732 27.2395L63.57 27.2363C64.0354 27.2363 64.3645 27.0907 64.5257 26.7527C64.5995 26.599 64.6226 26.5404 64.6381 26.5142C64.7256 26.3437 64.8637 26.2686 64.9912 26.2686C65.2279 26.2686 65.3447 26.4485 65.2754 26.7834L65.0742 27.7959L65.0745 27.7958ZM64.3816 39.2765C64.005 39.2765 63.7039 38.9723 63.7039 38.597C63.7039 38.2191 64.005 37.9167 64.3816 37.9167C64.7565 37.9167 65.0593 38.2191 65.0593 38.597C65.0593 38.9723 64.7565 39.2765 64.3816 39.2765ZM61.3439 38.6881C60.8629 38.6881 60.3469 38.6201 59.9747 38.5033C59.7873 38.4527 59.766 38.4389 59.6923 38.4389C59.5817 38.4389 59.5262 38.4652 59.4143 38.5682C59.2912 38.6619 59.2268 38.6881 59.1114 38.6881C58.8933 38.6881 58.7858 38.5682 58.709 38.256L58.3799 36.9517C58.3555 36.8735 58.3462 36.7549 58.3462 36.6905C58.3462 36.4587 58.526 36.2833 58.7579 36.2833C58.8933 36.2833 59.0053 36.3526 59.0852 36.4587L59.2726 36.7167C59.7242 37.3545 60.4544 37.7493 61.1996 37.7493C62.0461 37.7493 62.6239 37.2759 62.6239 36.5861C62.6239 36.2326 62.4778 35.9209 62.1998 35.6073C61.9173 35.2956 61.5669 35.0082 60.8168 34.4873C59.5818 33.6222 59.4663 33.5436 59.0608 33.0768C58.7322 32.6957 58.5643 32.2285 58.5643 31.7076C58.5643 30.4432 59.5262 29.6074 60.9629 29.6074C61.3315 29.6074 61.7081 29.6425 62.0878 29.7242C62.1274 29.738 62.2335 29.7624 62.4178 29.8041C62.4778 29.8161 62.5457 29.8299 62.5963 29.8299C62.6825 29.8299 62.782 29.7873 62.8957 29.7118C63.0249 29.6181 63.0662 29.6074 63.171 29.6074C63.3629 29.6074 63.4859 29.738 63.5383 29.9716L63.8501 31.3821C63.8732 31.4434 63.8732 31.522 63.8732 31.5633C63.8732 31.7338 63.7208 31.875 63.4983 31.875C63.3584 31.875 63.2723 31.8231 63.1524 31.6556C62.8588 31.2115 62.8038 31.1604 62.5315 30.9504C62.1816 30.6768 61.7325 30.5307 61.3058 30.5307C60.7031 30.5307 60.3132 30.8736 60.3132 31.4083C60.3132 31.6001 60.3469 31.7982 60.4544 31.9426C60.5863 32.1393 60.7955 32.3454 61.0535 32.5421C61.2147 32.6571 61.4208 32.8064 61.6987 33C62.7282 33.7173 63.0662 33.9788 63.4858 34.4074C63.9268 34.8635 64.1911 35.515 64.1911 36.1852C64.1911 37.6925 63.0662 38.6882 61.3439 38.6882M58.0513 42.0496H57.2923C57.1879 42.0496 57.1124 42.0838 57.1124 42.2095L57.1169 44.4789C57.1169 44.6388 57.0032 44.6574 56.8251 44.6574C56.6532 44.6574 56.5378 44.6401 56.5378 44.4851V42.2126C56.5378 42.102 56.4978 42.0496 56.3597 42.0496H55.5914C55.467 42.0496 55.4315 41.9302 55.4315 41.8302C55.4315 41.7197 55.4221 41.506 55.5869 41.506H58.0388C58.1494 41.506 58.2231 41.5673 58.2231 41.7703C58.2231 41.9501 58.1756 42.0496 58.0513 42.0496M51.7453 42.7517H52.8285C52.959 42.7517 52.9932 42.8659 52.9932 43.0315C52.9932 43.1759 52.9622 43.302 52.8409 43.302H51.7608C51.6747 43.302 51.5965 43.3619 51.5965 43.4619V43.9211C51.5965 44.0317 51.6565 44.0841 51.7453 44.0841H53.603C53.726 44.0841 53.7691 44.1653 53.7691 44.3683C53.7691 44.5144 53.7354 44.6343 53.6048 44.6343H51.2124C51.0738 44.6343 51.0169 44.5681 51.0169 44.4038V41.7085C51.0169 41.586 51.0662 41.4998 51.2092 41.4998H53.6092C53.7522 41.4998 53.778 41.5949 53.778 41.7654C53.778 41.9239 53.7567 42.0496 53.6017 42.0496H51.7253C51.6503 42.0496 51.5965 42.1082 51.5965 42.1895V42.6137C51.5965 42.7029 51.6609 42.7518 51.7453 42.7518M49.7743 38.0886C49.7743 37.8919 49.9049 37.7262 50.0843 37.7262H50.3504C50.4396 37.7262 50.5284 37.657 50.5715 37.5557C50.5977 37.462 50.6115 37.3834 50.6115 37.0423V31.2362C50.6115 30.8965 50.5977 30.817 50.5715 30.7228C50.5284 30.6233 50.4396 30.5523 50.3504 30.5523H50.0843C49.9049 30.5523 49.7743 30.3866 49.7743 30.1899C49.7743 29.9057 49.9706 29.8657 50.3503 29.8088C50.7314 29.7533 51.7946 29.6077 53.4218 29.6077C55.0472 29.6077 56.0567 29.9607 56.8557 30.769C57.6226 31.5391 58.0388 32.7249 58.0388 34.134C58.0388 35.7119 57.5072 37.0163 56.5394 37.7864C55.788 38.3948 54.8447 38.6715 53.4218 38.6715C51.7946 38.6715 50.7314 38.5254 50.3503 38.4699C49.9706 38.4148 49.7743 38.3748 49.7743 38.0888M45.372 38.6835C43.2687 38.6835 41.763 37.496 41.2791 35.5814C41.2729 35.5676 41.2684 35.5539 41.2653 35.5383C41.2222 35.3234 41.0286 35.3078 40.9824 35.5369C40.9824 35.5445 40.9762 35.552 40.9731 35.56C40.4846 37.5021 38.971 38.6834 36.8184 38.6834C34.2385 38.6834 32.5592 36.8981 32.5592 34.1752C32.5592 31.3884 34.2264 29.6151 36.8443 29.6151C38.9938 29.6151 40.5229 30.8137 40.9912 32.7678C41.0405 32.9921 41.231 32.9752 41.2723 32.762C41.2723 32.7588 41.2723 32.7558 41.2768 32.754C41.7546 30.7995 43.2588 29.6151 45.3988 29.6151C48.0048 29.6151 49.6978 31.3742 49.6978 34.1109C49.6978 36.8981 48.0173 38.6834 45.3725 38.6834M48.9837 44.659C48.7194 44.659 48.647 44.6177 48.5795 44.536L47.5763 43.4652C47.4395 43.3466 47.3027 43.3284 47.1153 43.3284C47.0105 43.3284 46.9292 43.4359 46.9292 43.5603V44.4729C46.9292 44.6466 46.7804 44.6577 46.6174 44.6577C46.4451 44.6577 46.3545 44.6097 46.3545 44.4716V41.6857C46.3545 41.5214 46.4575 41.4938 46.6605 41.4938C46.8204 41.4938 46.9292 41.5307 46.9292 41.6813V42.5219C46.9292 42.6569 46.9909 42.7231 47.0753 42.7231C47.3196 42.7231 47.372 42.6707 47.4626 42.5926C47.5638 42.5064 48.5933 41.5613 48.5933 41.5613C48.7225 41.4507 48.8531 41.4525 48.9774 41.572C49.0804 41.6706 49.1262 41.7812 49.0112 41.8949C48.9312 41.973 48.0279 42.7906 48.0279 42.7906C47.9155 42.8874 47.9435 42.978 48.0203 43.0624C48.0203 43.0624 49.1048 44.2579 49.2185 44.381C49.3891 44.5666 49.2323 44.659 48.9836 44.659M43.4703 43.6478C43.4951 43.6851 43.9343 44.3224 43.9987 44.4179C44.0956 44.5622 44.0081 44.6577 43.7087 44.6577C43.5413 44.6577 43.429 44.6284 43.3566 44.5209L42.8698 43.7646C42.8143 43.6802 42.7344 43.6264 42.6251 43.6264H41.9292C41.8448 43.6264 41.7649 43.6957 41.7649 43.7801L41.7693 44.5347C41.7693 44.6834 41.4806 44.659 41.3856 44.659C41.2608 44.659 41.192 44.6235 41.192 44.484L41.1964 41.6151C41.1964 41.54 41.2608 41.4952 41.3301 41.4952H42.9804C43.6177 41.4952 44.0973 41.9055 44.0973 42.5632C44.0973 43.1317 43.687 43.3178 43.5227 43.4572C43.4414 43.5283 43.4214 43.5771 43.4703 43.6477M38.832 44.659C38.7365 44.659 38.5922 44.6434 38.5473 44.539L38.3448 44.1198C38.3186 44.0643 38.2649 44.0199 38.1987 44.0199H36.9063C36.8251 44.0199 36.7513 44.0812 36.7051 44.1966L36.5257 44.539C36.4858 44.639 36.2903 44.6545 36.1997 44.6545C36.1198 44.6545 35.8573 44.6452 35.9399 44.4698L37.3122 41.623C37.3504 41.54 37.4228 41.4769 37.5521 41.4769C37.6809 41.4769 37.7515 41.52 37.7945 41.6119C37.7945 41.6119 39.1051 44.4054 39.142 44.4871C39.2099 44.6328 38.927 44.659 38.832 44.659ZM33.8644 44.659C33.7844 44.659 33.6356 44.6145 33.6356 44.5097L33.4145 42.8368C33.4003 42.7675 33.3745 42.7368 33.319 42.7368C33.2746 42.7368 33.2515 42.7581 33.2208 42.7968L32.4694 43.7587C32.4308 43.8107 32.3801 43.8431 32.3202 43.8431C32.2345 43.8431 32.1972 43.8213 32.1483 43.7494L31.4569 42.8168C31.4262 42.7781 31.3925 42.7675 31.3569 42.7675C31.3019 42.7675 31.2739 42.8168 31.2663 42.8812L31.0496 44.4991C31.0296 44.6328 30.8653 44.659 30.7298 44.659C30.6361 44.659 30.4767 44.6145 30.4767 44.4946L30.7947 41.7674C30.8284 41.6044 30.8635 41.5107 31.0989 41.5107C31.1589 41.5107 31.2557 41.5276 31.3307 41.6444L32.1896 42.8519C32.2358 42.9181 32.2882 42.9736 32.3451 42.9718C32.4019 42.9704 32.4601 42.9119 32.5094 42.8475L33.4158 41.615C33.4713 41.5307 33.5557 41.4951 33.6556 41.4951C33.7644 41.4951 33.8444 41.52 33.8906 41.703L34.2085 44.4991C34.2241 44.659 33.9736 44.659 33.8644 44.659M28.4608 37.0707C28.4608 37.4225 28.4608 37.4855 28.4915 37.5775C28.5465 37.6818 28.6651 37.7498 28.7695 37.7498H29.0644C29.2686 37.7498 29.4103 37.9172 29.4103 38.1139C29.4103 38.4013 29.2504 38.4919 28.7694 38.4919H26.3695C25.924 38.4919 25.7673 38.4013 25.7673 38.1139C25.7673 37.9172 25.924 37.7498 26.1035 37.7498H26.3695C26.4583 37.7498 26.5462 37.6818 26.5893 37.5775C26.6168 37.4855 26.6306 37.4225 26.6306 37.0707V31.2376C26.6306 30.8997 26.62 30.8322 26.5782 30.7278C26.5507 30.6123 26.4463 30.5324 26.3695 30.5324H26.1052C25.9298 30.5324 25.7704 30.3636 25.7704 30.1686C25.7704 29.8813 25.9298 29.7876 26.3695 29.7876H32.0239C32.2863 29.7876 32.4356 29.8751 32.4875 30.1145L32.6723 31.0213C32.7429 31.3544 32.6243 31.5361 32.3876 31.5361C32.2601 31.5361 32.1389 31.5023 32.0514 31.3318C32.0358 31.3069 31.9839 31.2101 31.9222 31.052C31.7947 30.7171 31.5318 30.674 30.9252 30.674H29.2504C28.5376 30.674 28.4577 30.7691 28.4577 31.4606V33.011C28.4577 33.3028 28.499 33.4289 28.5789 33.4826C28.6389 33.5244 28.7339 33.5333 29.1092 33.5333H30.1875C30.7346 33.5333 30.8128 33.4933 30.8528 33.2322L30.8621 33.1509C30.9021 32.9297 31.0189 32.8249 31.2138 32.8249C31.4892 32.8249 31.5798 32.9817 31.5798 33.4382V34.5352C31.5798 34.9917 31.4892 35.148 31.2138 35.148C31.0189 35.148 30.9021 35.0299 30.8621 34.8087L30.8483 34.7226C30.8097 34.4614 30.7315 34.4215 30.183 34.4215H29.1092C28.7339 34.4215 28.6388 34.4308 28.5789 34.4721C28.499 34.5258 28.4577 34.652 28.4577 34.9455L28.4621 37.0706L28.4608 37.0707ZM24.1675 20.7929C23.9725 20.2568 23.9108 20.1925 23.4929 20.1019C23.2149 20.0508 23.1287 19.9602 23.1287 19.7497C23.1287 19.5285 23.2673 19.4117 23.5666 19.4117H26.2601C26.5568 19.4117 26.6887 19.5285 26.6887 19.7635C26.6887 19.9833 26.5568 20.0726 26.2188 20.1019C25.9314 20.1276 25.8146 20.22 25.8146 20.4274C25.8146 20.5167 25.8253 20.6104 25.8622 20.7178L25.9652 21.0158C25.9652 21.0158 27.405 25.0938 27.6324 25.7497C27.6706 25.8545 27.7892 25.8496 27.8291 25.7328C28.0823 25.0063 28.7706 23.0073 28.7955 22.9261C28.8661 22.6956 28.8968 22.4526 28.8137 22.1866C28.7848 22.0929 28.3438 20.793 28.3438 20.793C28.2945 20.6518 28.2652 20.5474 28.2359 20.4937C28.1591 20.3032 28.0534 20.2339 27.7523 20.1539C27.4832 20.0878 27.3801 19.9989 27.3801 19.8053C27.3801 19.5548 27.5307 19.4118 27.8349 19.4118H30.3947C30.6914 19.4118 30.8357 19.5286 30.8357 19.7636C30.8357 19.971 30.7038 20.0727 30.4134 20.114C30.0661 20.1539 29.9724 20.2339 29.9724 20.4675C29.9724 20.5856 29.9986 20.7024 30.1061 21.016C30.1061 21.016 31.3691 25.0126 31.5689 25.6411C31.6071 25.7592 31.7195 25.733 31.7515 25.6287C31.9482 24.9896 33.1975 20.7932 33.1975 20.7932C33.2344 20.6626 33.2481 20.5583 33.2481 20.4801C33.2481 20.2847 33.1082 20.1803 32.7916 20.1404C32.5042 20.1141 32.3723 19.9836 32.3723 19.7762C32.3723 19.5151 32.5216 19.412 32.8684 19.412H37.3891C37.8194 19.412 37.962 19.4995 37.962 19.7855C37.962 19.9991 37.8194 20.1541 37.6395 20.1541H37.3891C37.2816 20.1541 37.1799 20.2341 37.1399 20.3202C37.1155 20.417 37.1049 20.5076 37.1049 20.8332V22.5159C37.1049 23.1181 37.1568 23.1687 37.6396 23.1687H39.4111C39.6705 23.1687 39.8046 23.1274 39.8703 23.0519C39.9303 22.972 39.9303 22.9214 39.9303 22.4373V20.8332C39.9303 20.4939 39.9303 20.417 39.8983 20.3202C39.8521 20.2203 39.7491 20.1541 39.6598 20.1541H39.4111C39.2144 20.1541 39.0563 19.9991 39.0563 19.7855C39.0563 19.4995 39.2144 19.412 39.6598 19.412H42.0309C42.4746 19.412 42.6331 19.4995 42.6331 19.7855C42.6331 19.9991 42.4746 20.1541 42.2965 20.1541H42.0309C41.9417 20.1541 41.8373 20.234 41.8093 20.3202C41.7725 20.417 41.7636 20.5076 41.7636 20.8332V26.6904C41.7636 27.0297 41.7725 27.1065 41.8093 27.2127C41.8373 27.3033 41.9417 27.3681 42.0309 27.3681H42.2965C42.4901 27.3681 42.6331 27.5387 42.6331 27.7319C42.6331 28.021 42.4901 28.1103 42.0309 28.1103H39.6598C39.2144 28.1103 39.0732 28.021 39.0732 27.7319C39.0732 27.5387 39.2313 27.3681 39.4111 27.3681H39.6598C39.7491 27.3681 39.8521 27.3033 39.8983 27.2127C39.9303 27.1066 39.9303 27.0297 39.9303 26.6904V24.7865C39.9303 24.3024 39.9303 24.2518 39.8703 24.1736C39.8046 24.0968 39.6705 24.0551 39.4111 24.0551H37.6396C37.1568 24.0551 37.1049 24.1061 37.1049 24.7084V26.6904C37.1049 27.0297 37.1156 27.1066 37.14 27.2127C37.1799 27.3033 37.2816 27.3682 37.3891 27.3682H37.6396C37.8194 27.3682 37.9531 27.5387 37.9531 27.7474C37.9531 28.021 37.8039 28.1102 37.3891 28.1102H35.0122C34.5743 28.1102 34.4158 28.021 34.4158 27.7319C34.4158 27.5387 34.5743 27.3681 34.7537 27.3681H35.0122C35.1041 27.3681 35.2116 27.3033 35.2365 27.2127C35.2765 27.1065 35.2765 27.039 35.2765 26.6904V20.8331C35.2765 20.1679 34.9643 20.1235 34.7355 20.1541C34.505 20.1866 34.37 20.3326 34.2284 20.7932L32.1495 27.4865C31.9621 28.1242 31.7853 28.3068 31.3954 28.3068C31.0064 28.3068 30.8083 28.138 30.6515 27.6552C30.6515 27.6552 29.5777 24.4443 29.5421 24.3382C29.5053 24.232 29.3947 24.2289 29.364 24.3306C29.3347 24.4332 28.1792 27.6552 28.1792 27.6552C28.0535 27.9674 28.0211 28.0581 27.9149 28.1642C27.8123 28.241 27.6413 28.3067 27.4708 28.3067C27.0928 28.3067 26.9072 28.15 26.7274 27.6552L24.1675 20.7932L24.1675 20.7929ZM41.4792 16.8442C41.9153 15.2246 43.4902 13.5898 45.2311 14.0894C46.7077 14.5104 46.6034 15.7304 47.6772 16.1128C48.0627 16.2496 48.0321 16.6368 47.6959 16.7012C47.1288 16.8087 46.3635 16.397 45.792 15.8791C45.1236 15.2725 44.0373 15.2987 43.507 15.7024C43.2752 15.8791 43.3933 16.0483 43.6056 16.0008C44.0973 15.8947 44.93 15.8671 45.5708 16.5862C46.2005 17.2928 47.3743 17.9242 48.4131 17.2466C48.6991 17.0609 48.8847 16.6768 49.1752 16.7598C49.4856 16.8473 49.4901 17.299 49.0832 17.8243C48.1226 19.0629 47.138 18.9155 46.0824 19.9494C45.0281 20.9833 44.8149 22.1588 44.8149 23.6522C44.8149 25.9678 45.7258 27.3703 47.2655 27.3703C48.7635 27.3703 49.7037 25.914 49.7037 23.6248C49.7037 21.7378 49.2569 20.5178 48.1364 20.0875C47.5942 19.8863 47.6866 19.3565 48.3856 19.2735C48.9616 19.206 49.5256 19.4023 50.1447 19.8588C51.2127 20.6454 51.7457 21.896 51.7457 23.5712C51.7457 26.4859 49.9897 28.3513 47.2257 28.3513C44.5277 28.3513 42.7711 26.486 42.7711 23.6387C42.7711 21.8072 43.4595 20.3967 44.6502 19.6009C45.148 19.2287 45.99 18.8001 46.8152 18.5208C46.9858 18.4622 46.9844 18.1593 46.6815 18.2179C46.3205 18.2903 45.6565 18.3423 45.108 18.1211C43.8774 17.6357 43.5195 16.7675 42.0708 17.3896C41.6342 17.5771 41.3531 17.3115 41.4792 16.8443M52.4896 19.4223H54.8988C55.3687 19.4223 55.5286 19.516 55.5286 19.8051C55.5286 20.0125 55.3687 20.1693 55.1831 20.1693H54.8988C54.7789 20.1693 54.6621 20.2337 54.6253 20.3398C54.5866 20.4273 54.5866 20.5073 54.5866 20.847V26.3241C54.5866 26.8975 54.6115 27.0311 54.7652 27.12C54.8988 27.2123 55.0982 27.2368 55.6223 27.2368H56.3568C56.8223 27.2368 57.1513 27.0911 57.3126 26.7531C57.3863 26.5977 57.4094 26.5409 57.4245 26.5147C57.5124 26.3441 57.6505 26.2673 57.7767 26.2673C58.0147 26.2673 58.1315 26.4489 58.0622 26.7838L57.861 27.7964C57.8086 28.0358 57.6599 28.1237 57.397 28.1237H52.4897C52.0549 28.1237 51.912 28.0375 51.912 27.7471C51.912 27.5552 52.055 27.3967 52.2375 27.3967H52.4898C52.5759 27.3967 52.6816 27.3167 52.7078 27.2293C52.7465 27.1324 52.7584 27.0694 52.7584 26.7439V20.8468C52.7584 20.4946 52.7465 20.4427 52.7078 20.3396C52.6816 20.2335 52.5759 20.1691 52.4898 20.1691H52.2375C52.0412 20.1691 51.8827 20.0123 51.8827 19.8049C51.8827 19.5158 52.0412 19.4221 52.4898 19.4221M44.3494 2.61914C29.4991 2.61914 17.4609 14.6577 17.4609 29.5076C17.4609 44.3579 29.4995 56.3961 44.3494 56.3961C59.2015 56.3961 71.2379 44.3576 71.2379 29.5076C71.2379 14.6573 59.2012 2.61914 44.3494 2.61914ZM64.5635 38.4179C64.5635 38.3273 64.4729 38.3055 64.3836 38.3055H64.2611V38.5285H64.353C64.4654 38.5285 64.5635 38.5223 64.5635 38.4179ZM64.5635 38.9739L64.3361 38.6528H64.2593V38.9739H64.1238V38.1812H64.4218C64.6079 38.1812 64.6923 38.2549 64.6923 38.4179C64.6923 38.576 64.6048 38.6373 64.4898 38.6497L64.7198 38.9739L64.5635 38.9739ZM64.3805 38.0519C64.0745 38.0519 63.8472 38.2811 63.8472 38.5973C63.8472 38.914 64.0746 39.1413 64.3805 39.1413C64.6879 39.1413 64.9135 38.9139 64.9135 38.5973C64.9135 38.2811 64.6879 38.0519 64.3805 38.0519ZM38.0022 43.3976C37.9805 43.3576 37.6594 42.6937 37.6212 42.6106C37.5857 42.5369 37.4968 42.5325 37.4644 42.6138C37.4276 42.7044 37.1109 43.3408 37.0896 43.3866C37.0541 43.4621 37.094 43.5114 37.1664 43.5114H37.9236C37.9791 43.5114 38.0342 43.4621 38.0022 43.3977M42.9329 42.044H41.9679C41.8679 42.044 41.7636 42.0791 41.7636 42.2035V42.9074C41.7636 43.018 41.8679 43.0824 41.9679 43.0824H42.9329C43.2571 43.0824 43.5213 42.9118 43.5213 42.5632C43.5213 42.2146 43.2571 42.0441 42.9329 42.0441M36.8312 30.5541C35.398 30.5541 34.5129 31.9215 34.5129 34.188C34.5129 36.4036 35.3838 37.7447 36.8574 37.7447C38.291 37.7447 39.1899 36.3511 39.1899 34.1634C39.1899 31.9478 38.2772 30.5541 36.8312 30.5541ZM45.3851 30.5541C43.9515 30.5541 43.0646 31.9215 43.0646 34.188C43.0646 36.4036 43.9377 37.7447 45.4109 37.7447C46.8431 37.7447 47.742 36.3511 47.742 34.1634C47.742 31.9478 46.8307 30.5541 45.3851 30.5541ZM53.605 30.4741C53.605 30.4741 53.3083 30.4941 53.1627 30.5172C52.6 30.6078 52.4326 30.7601 52.4326 31.453V36.918C52.4326 37.6632 52.8966 37.7076 53.5513 37.7445C55.1492 37.8351 56.0774 36.4157 56.0774 34.1202C56.0774 31.8232 55.1554 30.4742 53.605 30.4742M64.5618 38.4181C64.5618 38.3275 64.4712 38.3057 64.3819 38.3057H64.2593V38.5287H64.3512C64.4636 38.5287 64.5618 38.5225 64.5618 38.4181ZM64.5618 38.9741L64.3344 38.653H64.2575V38.9741H64.1221V38.1814H64.4201C64.6062 38.1814 64.6905 38.2551 64.6905 38.4181C64.6905 38.5762 64.6031 38.6375 64.488 38.6499L64.7181 38.9741L64.5618 38.9741ZM64.3788 38.0521C64.0728 38.0521 63.8454 38.2813 63.8454 38.5975C63.8454 38.9142 64.0728 39.1415 64.3788 39.1415C64.6861 39.1415 64.9117 38.9141 64.9117 38.5975C64.9117 38.2813 64.6861 38.0521 64.3788 38.0521ZM53.6033 30.4742C53.6033 30.4742 53.3066 30.4942 53.1609 30.5173C52.5982 30.6079 52.4308 30.7602 52.4308 31.4531V36.9181C52.4308 37.6633 52.8949 37.7077 53.5496 37.7446C55.1475 37.8352 56.0756 36.4158 56.0756 34.1203C56.0756 31.8233 55.1537 30.4743 53.6033 30.4743M45.3834 30.5542C43.9498 30.5542 43.0629 31.9217 43.0629 34.1881C43.0629 36.4038 43.936 37.7449 45.4092 37.7449C46.8414 37.7449 47.7403 36.3513 47.7403 34.1636C47.7403 31.948 46.829 30.5542 45.3834 30.5542ZM42.931 42.0442H41.966C41.8661 42.0442 41.7617 42.0793 41.7617 42.2037V42.9076C41.7617 43.0182 41.8661 43.0826 41.966 43.0826H42.931C43.2552 43.0826 43.5194 42.912 43.5194 42.5634C43.5194 42.2148 43.2552 42.0443 42.931 42.0443M36.8293 30.5543C35.3961 30.5543 34.5111 31.9217 34.5111 34.1881C34.5111 36.4038 35.3819 37.7449 36.8555 37.7449C38.2891 37.7449 39.188 36.3513 39.188 34.1636C39.188 31.948 38.2753 30.5543 36.8293 30.5543ZM38.0004 43.3979C37.9787 43.3579 37.6576 42.694 37.6194 42.6109C37.5838 42.5372 37.495 42.5328 37.4626 42.6141C37.4257 42.7047 37.1091 43.3411 37.0878 43.3869C37.0522 43.4624 37.0922 43.5117 37.1646 43.5117H37.9218C37.9773 43.5117 38.0324 43.4624 38.0004 43.398C37.9786 43.358 37.6575 42.6941 37.6193 42.611C37.5838 42.5373 37.495 42.5329 37.4626 42.6142C37.4257 42.7048 37.1091 43.3412 37.0877 43.387C37.0522 43.4625 37.0922 43.5118 37.1646 43.5118H37.9218C37.9773 43.5118 38.0323 43.4625 38.0004 43.3981M42.931 42.0444H41.966C41.8661 42.0444 41.7617 42.0795 41.7617 42.2039V42.9078C41.7617 43.0183 41.8661 43.0827 41.966 43.0827H42.931C43.2552 43.0827 43.5195 42.9122 43.5195 42.5636C43.5195 42.215 43.2552 42.0445 42.931 42.0445M36.8293 30.5541C35.3962 30.5541 34.5111 31.9215 34.5111 34.188C34.5111 36.4036 35.382 37.7448 36.8556 37.7448C38.2891 37.7448 39.188 36.3512 39.188 34.1635C39.188 31.9478 38.2754 30.5541 36.8293 30.5541ZM45.3832 30.5541C43.9497 30.5541 43.0628 31.9215 43.0628 34.188C43.0628 36.4036 43.9359 37.7448 45.409 37.7448C46.8413 37.7448 47.7401 36.3512 47.7401 34.1635C47.7401 31.9478 46.8288 30.5541 45.3832 30.5541ZM53.6032 30.4742C53.6032 30.4742 53.3065 30.4941 53.1608 30.5172C52.5981 30.6078 52.4307 30.7602 52.4307 31.453V36.918C52.4307 37.6632 52.8948 37.7077 53.5494 37.7445C55.1474 37.8351 56.0755 36.4157 56.0755 34.1202C56.0755 31.8233 55.1536 30.4743 53.6032 30.4743C53.6032 30.4743 53.3065 30.4942 53.1609 30.5173C52.5982 30.6079 52.4308 30.7603 52.4308 31.4531V36.9181C52.4308 37.6633 52.8948 37.7077 53.5495 37.7446C55.1474 37.8352 56.0756 36.4158 56.0756 34.1203C56.0756 31.8234 55.1536 30.4743 53.6032 30.4743M45.3833 30.5543C43.9497 30.5543 43.0629 31.9217 43.0629 34.1882C43.0629 36.4038 43.936 37.7449 45.4091 37.7449C46.8413 37.7449 47.7402 36.3513 47.7402 34.1636C47.7402 31.948 46.8289 30.5543 45.3833 30.5543ZM42.9309 42.0443H41.9659C41.866 42.0443 41.7616 42.0793 41.7616 42.2037V42.9076C41.7616 43.0182 41.866 43.0826 41.9659 43.0826H42.9309C43.2551 43.0826 43.5194 42.912 43.5194 42.5634C43.5194 42.2148 43.2551 42.0443 42.9309 42.0443M36.8292 30.5543C35.3961 30.5543 34.511 31.9217 34.511 34.1882C34.511 36.4038 35.3819 37.745 36.8555 37.745C38.289 37.745 39.1879 36.3513 39.1879 34.1637C39.1879 31.948 38.2753 30.5543 36.8292 30.5543ZM38.0003 43.3979C37.9786 43.358 37.6575 42.694 37.6193 42.611C37.5838 42.5373 37.4949 42.5328 37.4625 42.6142C37.4257 42.7048 37.109 43.3412 37.0877 43.3869C37.0522 43.4624 37.0921 43.5117 37.1645 43.5117H37.9217C37.9772 43.5117 38.0323 43.4624 38.0003 43.398C37.9786 43.3581 37.6575 42.6941 37.6193 42.6111C37.5837 42.5373 37.4949 42.5329 37.4625 42.6143C37.4256 42.7049 37.109 43.3413 37.0877 43.387C37.0521 43.4625 37.0921 43.5118 37.1645 43.5118H37.9217C37.9772 43.5118 38.0323 43.4625 38.0003 43.3981M42.931 42.0445H41.9659C41.866 42.0445 41.7617 42.0795 41.7617 42.2039V42.9078C41.7617 43.0184 41.866 43.0828 41.9659 43.0828H42.931C43.2552 43.0828 43.5194 42.9122 43.5194 42.5636C43.5194 42.215 43.2552 42.0445 42.931 42.0445M36.8293 30.5541C35.3961 30.5541 34.511 31.9216 34.511 34.188C34.511 36.4037 35.3819 37.7448 36.8555 37.7448C38.2891 37.7448 39.188 36.3512 39.188 34.1635C39.188 31.9479 38.2753 30.5541 36.8293 30.5541ZM45.3832 30.5541C43.9496 30.5541 43.0627 31.9216 43.0627 34.188C43.0627 36.4037 43.9358 37.7448 45.409 37.7448C46.8412 37.7448 47.7401 36.3512 47.7401 34.1635C47.7401 31.9479 46.8288 30.5541 45.3832 30.5541ZM53.6031 30.4742C53.6031 30.4742 53.3064 30.4942 53.1608 30.5173C52.5981 30.6079 52.4306 30.7602 52.4306 31.453V36.9181C52.4306 37.6633 52.8947 37.7077 53.5494 37.7445C55.1473 37.8351 56.0755 36.4158 56.0755 34.1202C56.0755 31.8233 55.1535 30.4743 53.6031 30.4743C53.6031 30.4743 53.3065 30.4943 53.1608 30.5174C52.5981 30.608 52.4307 30.7603 52.4307 31.4531V36.9182C52.4307 37.6634 52.8948 37.7078 53.5494 37.7446C55.1473 37.8352 56.0755 36.4158 56.0755 34.1203C56.0755 31.8234 55.1535 30.4744 53.6032 30.4744M45.3832 30.5543C43.9497 30.5543 43.0628 31.9217 43.0628 34.1882C43.0628 36.4038 43.9359 37.745 45.409 37.745C46.8413 37.745 47.7401 36.3514 47.7401 34.1637C47.7401 31.948 46.8288 30.5543 45.3832 30.5543ZM42.9309 42.0443H41.9658C41.8659 42.0443 41.7615 42.0794 41.7615 42.2037V42.9076C41.7615 43.0182 41.8659 43.0826 41.9658 43.0826H42.9309C43.2551 43.0826 43.5193 42.9121 43.5193 42.5635C43.5193 42.2149 43.255 42.0443 42.9309 42.0443M36.8292 30.5543C35.396 30.5543 34.5109 31.9218 34.5109 34.1882C34.5109 36.4039 35.3818 37.745 36.8554 37.745C38.289 37.745 39.1878 36.3514 39.1878 34.1637C39.1878 31.9481 38.2752 30.5543 36.8292 30.5543ZM38.0003 43.398C37.9785 43.358 37.6574 42.6941 37.6192 42.611C37.5837 42.5373 37.4949 42.5328 37.4624 42.6142C37.4256 42.7048 37.1089 43.3412 37.0876 43.387C37.0521 43.4625 37.0921 43.5118 37.1644 43.5118H37.9216C37.9771 43.5118 38.0322 43.4625 38.0002 43.3981M36.8291 30.5544C35.396 30.5544 34.5109 31.9219 34.5109 34.1883C34.5109 36.4039 35.3818 37.7451 36.8554 37.7451C38.2889 37.7451 39.1878 36.3515 39.1878 34.1638C39.1878 31.9481 38.2752 30.5544 36.8291 30.5544ZM45.383 30.5544C43.9495 30.5544 43.0626 31.9219 43.0626 34.1883C43.0626 36.4039 43.9357 37.7451 45.4088 37.7451C46.8411 37.7451 47.7399 36.3515 47.7399 34.1638C47.7399 31.9481 46.8286 30.5544 45.383 30.5544ZM53.603 30.4745C53.603 30.4745 53.3063 30.4945 53.1606 30.5176C52.5979 30.6082 52.4305 30.7605 52.4305 31.4533V36.9184C52.4305 37.6636 52.8946 37.708 53.5492 37.7448C55.1472 37.8354 56.0753 36.416 56.0753 34.1205C56.0753 31.8236 55.1534 30.4746 53.603 30.4746C53.603 30.4746 53.3063 30.4945 53.1607 30.5177C52.598 30.6083 52.4306 30.7606 52.4306 31.4534V36.9184C52.4306 37.6637 52.8946 37.7081 53.5493 37.7449C55.1472 37.8355 56.0754 36.4161 56.0754 34.1206C56.0754 31.8237 55.1534 30.4747 53.603 30.4747M45.3831 30.5546C43.9495 30.5546 43.0627 31.922 43.0627 34.1885C43.0627 36.4041 43.9358 37.7453 45.4089 37.7453C46.8411 37.7453 47.74 36.3516 47.74 34.164C47.74 31.9483 46.8287 30.5546 45.3831 30.5546ZM36.8292 30.5546C35.3961 30.5546 34.511 31.922 34.511 34.1885C34.511 36.4041 35.3818 37.7453 36.8554 37.7453C38.289 37.7453 39.1879 36.3516 39.1879 34.164C39.1879 31.9483 38.2752 30.5546 36.8292 30.5546C35.3961 30.5546 34.511 31.922 34.511 34.1885C34.511 36.4041 35.3818 37.7453 36.8554 37.7453C38.289 37.7453 39.1879 36.3516 39.1879 34.164C39.1879 31.9483 38.2752 30.5546 36.8292 30.5546ZM45.3831 30.5546C43.9495 30.5546 43.0627 31.922 43.0627 34.1885C43.0627 36.4041 43.9358 37.7453 45.4089 37.7453C46.8411 37.7453 47.74 36.3516 47.74 34.164C47.74 31.9483 46.8287 30.5546 45.3831 30.5546ZM53.603 30.4747C53.603 30.4747 53.3064 30.4946 53.1607 30.5177C52.598 30.6083 52.4306 30.7607 52.4306 31.4535V36.9185C52.4306 37.6637 52.8947 37.7082 53.5493 37.745C55.1472 37.8356 56.0754 36.4162 56.0754 34.1207C56.0754 31.8238 55.1534 30.4748 53.6031 30.4748C53.6031 30.4748 53.3064 30.4947 53.1607 30.5178C52.598 30.6084 52.4306 30.7608 52.4306 31.4536V36.9186C52.4306 37.6638 52.8947 37.7082 53.5494 37.7451C55.1473 37.8357 56.0755 36.4163 56.0755 34.1208C56.0755 31.8239 55.1535 30.4748 53.6031 30.4748M45.3832 30.5548C43.9496 30.5548 43.0627 31.9222 43.0627 34.1887C43.0627 36.4043 43.9359 37.7454 45.409 37.7454C46.8412 37.7454 47.7401 36.3518 47.7401 34.1641C47.7401 31.9485 46.8288 30.5548 45.3832 30.5548ZM36.8293 30.5548C35.3961 30.5548 34.511 31.9222 34.511 34.1887C34.511 36.4043 35.3819 37.7454 36.8555 37.7454C38.2891 37.7454 39.188 36.3518 39.188 34.1641C39.188 31.9485 38.2753 30.5548 36.8293 30.5548Z" fill="black"/>
</svg>
