<?xml version="1.0" encoding="utf-8"?>
<!-- Generator: Adobe Illustrator 25.3.1, SVG Export Plug-In . SVG Version: 6.00 Build 0)  -->
<svg version="1.1" id="Layer_1" xmlns="http://www.w3.org/2000/svg" xmlns:xlink="http://www.w3.org/1999/xlink" x="0px" y="0px"
	 viewBox="0 0 380 380" style="enable-background:new 0 0 380 380;" xml:space="preserve">
<style type="text/css">
	.st0{fill:#FFECDE;}
	.st1{fill-rule:evenodd;clip-rule:evenodd;fill:#0F6EFD;}
	.st2{fill-rule:evenodd;clip-rule:evenodd;fill:#009F67;}
	.st3{fill-rule:evenodd;clip-rule:evenodd;fill:#FE6A01;}
	.st4{fill:#FE6A01;}
</style>
<g>
	<path class="st0" d="M246,296c-63.5,0-46.2-178,6.4-178l-126.5-1.7c52.6,0,70.9,179.7,7.4,179.7H246L246,296z"/>
	<path class="st1" d="M183.8,54.2c-0.9,0.1-4.5,0.4-7.8,0.7C127.9,58.9,93.9,76,70.8,107.7c-5.1,7-5.1,6.6-0.2,6.7
		c2.2,0,8.1,0,13.1,0.1s12.5,0.2,16.7,0.4c4.2,0.2,16.2,0.5,26.7,0.7c10.5,0.2,20.3,0.4,21.8,0.5c1.5,0.1,13.8,0.3,27.5,0.5
		c19.9,0.2,25.2,0.5,26.8,1c2.3,0.8,29.9,0.6,31.5-0.2c0.5-0.3,5.1-0.3,12.1-0.1c10.9,0.4,34.5,0.3,45.6-0.2c3-0.1,9.6-0.4,14.6-0.6
		c10.7-0.4,10.5-0.3,8.3-4.8C299.2,79,264.8,60.4,210.5,55C203,54.3,187.4,53.8,183.8,54.2z M143.5,292.2c-0.2,0.2-9.5,0.3-20.6,0.3
		c-11.1,0-23.6,0.2-27.6,0.4s-12.8,0.6-19.5,0.8c-6.7,0.2-12.1,0.4-12.1,0.4c0.5,4.2,12.2,28.5,16.5,34.2c5.3,7.2,8.4,9.5,20.3,15.5
		c20.6,10.4,112.9,14.5,149.2,6.6c14.4-3.1,30.4-11.2,38.4-19.4c7.3-7.5,19.6-28.2,21.4-36l0.4-1.5l-36.3,0.2
		c-20,0.1-36.5,0.3-36.8,0.5c-0.7,0.4-49.3-0.7-64.9-1.6C162,292.2,143.8,291.9,143.5,292.2z"/>
	<path class="st2" d="M66.5,113.8c8.9-16.8,31.5-36.1,53.3-45.6c18.8-8.2,38.9,8.3,35,28.8c-1,5.2-5.9,13.7-10.3,17.8l-1.3,1.2
		l-17.3-0.2c-9.5-0.1-21.8-0.4-27.4-0.6c-5.5-0.3-12.6-0.5-15.7-0.4C66.5,114.9,65.9,114.9,66.5,113.8z M233.9,99.2
		c15.2-5.7,25.6-8.2,38.1-9.3c1.2-0.1,7.9-0.2,14.9-0.2l12.7,0l2.4,2.6c5.2,5.5,15.9,21.9,14.8,23.3c-0.9,1.1-2.6,1.1-5.2,1.2
		c-0.3,0-0.6,0-1,0c-2.8,0.1-6.2,0.3-7.5,0.4c-1.4,0.1-17.2,0.3-35.3,0.4c-18,0.1-33.2,0.3-33.7,0.4c-1.4,0.4-29.8,0.6-30.5,0.1
		C200.3,115.9,216.7,105.6,233.9,99.2z M220.2,185.5c-0.7,1.2,0.1,7.4,1.4,9.8c2.1,4.1,4.2,5.6,7.8,5.6c6.4,0.1,14.9-0.1,15.8-0.3
		c0.5-0.1,2.1-0.2,3.4-0.2l2.5,0l0.2-3.7l0.2-3.7l-1.6-0.7c-2-0.9-16.9-4.9-22-5.9C221.3,185.1,220.5,185,220.2,185.5z M226.3,223.4
		c-4.1,3.9-5.6,7-5.9,12.7c0,0.3,0,0.6,0,0.8v0c-0.1,1.8-0.2,3,0.4,3.4c1,0.8,3.8-0.6,11.8-4.4c0.7-0.3,1.4-0.7,2.1-1
		c1.4-0.7,2.7-1.3,3.9-1.9l0,0l0,0v0l0,0c7.9-3.8,9.8-4.7,10.3-6.1c0.2-0.5,0.2-1,0.3-1.7v0c0-0.3,0-0.7,0.1-1.1l0.6-3l-10.4-0.5
		h-10.2L226.3,223.4z M260,310.2c4.8-1.9,10-3.8,11.7-4.2c10.6-2.5,23.4,2.6,26.4,10.3c1.1,2.9-9.6,16-17.7,21.6
		c-19.2,13.3-39.4,17.3-85.9,17.3c-1.2,0-2.4,0-3.4,0c-7,0-9.4,0-10.7-1.1c-0.7-0.6-1.1-1.4-1.8-2.6c-0.2-0.4-0.4-0.8-0.7-1.2
		c-10.7-18.6-4.1-35.3,15.1-38.1c4.4-0.7,6.6-0.4,18.3,1.8c4,0.8,8.1,1.3,16.3,2.2C237.1,317.2,247.6,315.2,260,310.2z M89.5,293.3
		c-4,0.1-9.1,0.2-14.6,0.3c-6.6,0.2-11.9,0.8-11.9,0.9c0.5,4.1,11.8,27.7,16.4,34.2c4.2,5.9,8.2,9.3,16.2,13.5
		c6.7,3.6,8.6,4.3,15.5,6.1c2.7,0.7,3.8,1,4.2,0.6c0.3-0.3,0-1.1-0.4-2.5c-6.1-20.6,2.9-43.5,18-53.5l-2.7-0.2
		c-1.2,0-30.9,0.1-31.3,0.4C98.7,293.1,95.1,293.2,89.5,293.3z"/>
	<path class="st3" d="M190.1,25.3c-2.2,1.1-3.3,7.3-3.8,20.2c-0.2,5.8-0.3,7.9-1.3,8.7c-0.6,0.5-1.6,0.5-3.1,0.5l20.5,2.2
		c-0.6-1.2-1.4-2.4-1.6-2.6c-0.5-0.3-0.3-1.8,1.6-14.1c1.6-10,1.8-14,0.9-15C202.4,24.5,191.7,24.5,190.1,25.3z M226.4,200.6
		c0.5,0.5,1,1,1.2,1.2c0.3,0.3,1,1.1,2,2c6,5.2,5.7,11.9-1.3,17.9l21.5-0.4l5.4-0.2c14.3-0.4,18.5-1.5,25.8-6.5
		c5.5-3.7,5.7-4.8,1.6-6.7c-12.4-5.9-15-6.7-24.5-7.1l-6.9-0.3H226.4z"/>
	<path class="st4" d="M143.8,198.8c-4.8-2.9-6.9-4.8-6.9-6.2c0-1.5,6.8-1.3,14.6,0.3c0.7,0.1,2,0.4,2.9,0.5c0.9,0.1,2.2,0.3,2.9,0.5
		c0.7,0.1,8.3,1.2,16.8,2.5c8.6,1.2,17.1,2.6,19,3.1c5.7,1.3,10.1,2.2,11.8,2.2c4.9,0.1,14.2,3.7,15.4,6c4.3,8.6-5.1,15.5-26.7,19.6
		c-4.5,0.9-12.9,2.8-18.5,4.3c-5.6,1.5-12.7,3.4-15.8,4.2c-11.5,3.1-20.9,4.4-20.9,3c0-0.5,7.8-5,13.5-7.9c7.8-3.9,7.4-4-13.3-4.1
		c-25.7-0.1-28.4-1.7-9.7-5.7c2.7-0.6,7.7-1.7,11.1-2.4c9.1-1.9,9-2.2-2.8-5.5c-22-6.2-21.4-8.3,2.8-8.3
		C154.2,204.8,154.1,204.9,143.8,198.8z"/>
</g>
</svg>
