<?xml version="1.0" encoding="utf-8"?>
<!-- Generator: Adobe Illustrator 25.3.1, SVG Export Plug-In . SVG Version: 6.00 Build 0)  -->
<svg version="1.1" id="Layer_1" xmlns="http://www.w3.org/2000/svg" xmlns:xlink="http://www.w3.org/1999/xlink" x="0px" y="0px"
	 viewBox="0 0 380 380" style="enable-background:new 0 0 380 380;" xml:space="preserve">
<style type="text/css">
	.st0{fill:#2D7323;}
	.st1{fill:#0D3A25;}
	.st2{fill:#FC90B9;}
</style>
<path class="st0" d="M185.8,325.7l-20.2-0.7c8-42.7-54.3-75.3-64.9-81.1c-15-8.2-20.7-24.5-14.3-36.9c6.3-12.2,18-17,32-9.4
	c13.2,6.7,20.5-12,7.1-25.4c-12.7-12.7-33.4-30.2-23.7-50.7C113,98,147,117,153.6,108.2c7-9.3-6.7-34.8-11-45.5
	c-7.2-18.1-5.3-53.6,46.5-53.8c51.8,0.2,56.8,44.1,49.5,62.2c-3.3,8.1-4,16.7-5,25.4c-0.5,4.8-0.7,10.3,2.8,13.6
	c3.3,3.1,8.5,3.1,12.8,1.9c4.4-1.2,8.6-3.2,13.1-3.4c7.9-0.3,15.2,5.8,17.9,13.2c2.7,7.4,1.5,15.9-1.6,23.2
	c-3.1,7.3-8,13.7-12.8,19.9c-6.4,8.3-12.8,16.6-19.2,24.9c-2.3,3.1-4.8,6.2-5.7,9.9c-1,3.7-0.2,8.2,2.9,10.5
	c3.2,2.4,7.6,1.8,11.4,2.8c9.9,2.5,13.9,15.4,10.8,25.1c-3.2,9.7-11.2,16.9-18.8,23.7C225.5,281.4,202.5,301.9,185.8,325.7
	L185.8,325.7z"/>
<path class="st1" d="M197.4,101.9c0.7,26,3,114.2-1.1,156c-5.8,58.6-10.7,91.5-26.1,113.9c-12.2,17.9-34.7-3.4-23.9-17.2
	c15.3-21.8,19.4-50.7,27.2-98.5c7.5-46.1,9.3-125.9,9.8-154C183.5,93.6,197.1,92,197.4,101.9L197.4,101.9z"/>
<path class="st2" d="M324.4,193.4c5.9,0,4.7,34.6,18.2,52.2c11.7,15.3,36.6,16.5,36.6,26.3c0,9.3-21.9,8.7-33.4,23.2
	c-14.2,17.9-13.3,54.6-21,54.6c-6.8,0-6.7-33.7-19.4-51.2c-12.6-17.5-37.9-18.8-37.9-25c0-5.9,25.3-12.8,39.7-30
	C322.2,225.7,319.4,193.4,324.4,193.4L324.4,193.4z"/>
<path class="st2" d="M43.7,94.9c4.4,0,2.2,30.5,12.4,45.2c8.8,12.7,28.9,12.1,28.9,20.3c0,7.8-15,8.8-25.8,21.7
	c-12.3,14.7-9.3,43.1-15.1,43.1c-5.1,0-5.1-28.1-14.6-42.7C20.1,167.9,1,165.4,1,160.2c0-4.9,22.3-8.6,30.6-23.2
	C40.8,120.7,40,94.9,43.7,94.9L43.7,94.9z"/>
<path class="st2" d="M310.9,1c3.5,0,4,22.5,11.9,32.9c6.9,9,34.2,8.8,34.2,14.6c0,5.5-27.6,2.3-33.1,11.7
	c-7,11.9-8.2,32.8-12.7,32.8c-4,0-4-21.2-11.4-31.5c-7.4-10.3-31.2-9.3-31.2-13c0-3.5,23.9-1.9,33.2-14.8
	C309.7,22.6,307.9,1,310.9,1L310.9,1z"/>
</svg>



 <svg
                version="1.1"
                id="Layer_1"
                xmlns="http://www.w3.org/2000/svg"
                xmlns:xlink="http://www.w3.org/1999/xlink"
                x="0px"
                y="0px"
                viewBox="0 0 380 380"
                style={{ enableBackground: "new 0 0 380 380" }}
                xmlSpace="preserve"
              >
                <path
                  style={{ fill: "#2D7323" }}
                  d="M185.8,325.7l-20.2-0.7c8-42.7-54.3-75.3-64.9-81.1c-15-8.2-20.7-24.5-14.3-36.9c6.3-12.2,18-17,32-9.4
	c13.2,6.7,20.5-12,7.1-25.4c-12.7-12.7-33.4-30.2-23.7-50.7C113,98,147,117,153.6,108.2c7-9.3-6.7-34.8-11-45.5
	c-7.2-18.1-5.3-53.6,46.5-53.8c51.8,0.2,56.8,44.1,49.5,62.2c-3.3,8.1-4,16.7-5,25.4c-0.5,4.8-0.7,10.3,2.8,13.6
	c3.3,3.1,8.5,3.1,12.8,1.9c4.4-1.2,8.6-3.2,13.1-3.4c7.9-0.3,15.2,5.8,17.9,13.2c2.7,7.4,1.5,15.9-1.6,23.2
	c-3.1,7.3-8,13.7-12.8,19.9c-6.4,8.3-12.8,16.6-19.2,24.9c-2.3,3.1-4.8,6.2-5.7,9.9c-1,3.7-0.2,8.2,2.9,10.5
	c3.2,2.4,7.6,1.8,11.4,2.8c9.9,2.5,13.9,15.4,10.8,25.1c-3.2,9.7-11.2,16.9-18.8,23.7C225.5,281.4,202.5,301.9,185.8,325.7
	L185.8,325.7z"
                />
                <path
                  style={{ fill: "#0D3A25" }}
                  d="M197.4,101.9c0.7,26,3,114.2-1.1,156c-5.8,58.6-10.7,91.5-26.1,113.9c-12.2,17.9-34.7-3.4-23.9-17.2
	c15.3-21.8,19.4-50.7,27.2-98.5c7.5-46.1,9.3-125.9,9.8-154C183.5,93.6,197.1,92,197.4,101.9L197.4,101.9z"
                />
                <path
                  style={{ fill: "#FC90B9" }}
                  d="M324.4,193.4c5.9,0,4.7,34.6,18.2,52.2c11.7,15.3,36.6,16.5,36.6,26.3c0,9.3-21.9,8.7-33.4,23.2
	c-14.2,17.9-13.3,54.6-21,54.6c-6.8,0-6.7-33.7-19.4-51.2c-12.6-17.5-37.9-18.8-37.9-25c0-5.9,25.3-12.8,39.7-30
	C322.2,225.7,319.4,193.4,324.4,193.4L324.4,193.4z"
                />
                <path
                  style={{ fill: "#FC90B9" }}
                  d="M43.7,94.9c4.4,0,2.2,30.5,12.4,45.2c8.8,12.7,28.9,12.1,28.9,20.3c0,7.8-15,8.8-25.8,21.7
	c-12.3,14.7-9.3,43.1-15.1,43.1c-5.1,0-5.1-28.1-14.6-42.7C20.1,167.9,1,165.4,1,160.2c0-4.9,22.3-8.6,30.6-23.2
	C40.8,120.7,40,94.9,43.7,94.9L43.7,94.9z"
                />
                <path
                  style={{ fill: "#FC90B9" }}
                  d="M310.9,1c3.5,0,4,22.5,11.9,32.9c6.9,9,34.2,8.8,34.2,14.6c0,5.5-27.6,2.3-33.1,11.7
	c-7,11.9-8.2,32.8-12.7,32.8c-4,0-4-21.2-11.4-31.5c-7.4-10.3-31.2-9.3-31.2-13c0-3.5,23.9-1.9,33.2-14.8
	C309.7,22.6,307.9,1,310.9,1L310.9,1z"
                />
              </svg>