<?xml version="1.0" encoding="utf-8"?>
<!-- Generator: Adobe Illustrator 25.3.1, SVG Export Plug-In . SVG Version: 6.00 Build 0)  -->
<svg version="1.1" id="Layer_1" xmlns="http://www.w3.org/2000/svg" xmlns:xlink="http://www.w3.org/1999/xlink" x="0px" y="0px"
	 viewBox="0 0 380 380" style="enable-background:new 0 0 380 380;" xml:space="preserve">
<style type="text/css">
	.st0{fill-rule:evenodd;clip-rule:evenodd;fill:#FF0D90;}
	.st1{fill-rule:evenodd;clip-rule:evenodd;fill:#FC90B9;}
	.st2{fill-rule:evenodd;clip-rule:evenodd;fill:#FBFAF9;}
	.st3{fill-rule:evenodd;clip-rule:evenodd;fill:#009F67;}
	.st4{fill-rule:evenodd;clip-rule:evenodd;fill:#2D7323;}
	.st5{fill:#0D3A25;}
</style>
<path class="st0" d="M206.4,54.8c-4.7,0.2-9,0.3-12.8,0.3c-8.3,0-17.2-0.6-26.4-1.2c-32.8-2.1-70.4-4.6-103.9,17
	c-28.7,18.6-40,64.3-29.2,115.7C44.9,238.1,92.4,310.9,134.4,366h72v-50.2h18.2v-25.1h-18.2v-25.1h18.2v-24.7v-0.4v-24.7h-18.2
	v-25.1h18.2v-25.1v-25.1h-18.2v-25.1h18.2V90.3V65.2h-18.2V54.8z M325,90.3h-25.1v25.1H325V90.3z M249.7,115.4V90.3h25.1v25.1H249.7
	z M249.7,115.4h-25.1v25.1l0,0v25.1h25.1v-25.1V115.4z M325,115.4h25.1v25.1H325V115.4z M299.9,140.5h-25.1h0h-25.1v25.1h25.1h0
	h25.1V140.5z M299.9,140.5H325v25.1h-25.1V140.5z M249.7,165.6v25.1h25.1v-25.1H249.7z M224.6,190.7h25.1v25.1h-25.1V190.7z
	 M350.1,190.7H325v25.1h25.1V190.7z M299.9,215.8h-25.1h0h-25.1v25.1h25.1h0h25.1V215.8z M224.6,240.5h25.1v25.1h-25.1V240.5z
	 M350.1,240.5H325v25.1h25.1V240.5z M299.9,265.6H325v25.1h-25.1V265.6z M224.6,290.7h25.1v25.1v25.1h-25.1v-25.1V290.7z
	 M299.9,290.7h-25.1v25.1h25.1V290.7z M249.7,340.9h-25.1V366h25.1V340.9z M249.7,366v-25.1h25.1V366H249.7z M249.7,65.2h-25.1v25.1
	h25.1V65.2z M249.7,65.2h25.1h0h25.1v25.1h-25.1h0h-25.1V65.2z M325,65.2h25.1v25.1H325V65.2z"/>
<path class="st1" d="M199.6,115.4h25.1v25.1h-25.1V115.4z M274.8,115.4h25.1v25.1h-25.1V115.4z M299.9,165.6h-25.1v25.1h25.1V165.6z
	 M325,165.6h25.1v25.1H325V165.6z M224.6,190.7h-25.1v25.1h25.1V190.7z M274.8,215.8v-25.1h25.1v25.1H274.8z M249.7,215.8h-25.1
	v25.1h25.1V215.8z M299.9,215.8H325v25.1h-25.1V215.8z M274.8,240.5h-25.1v25.1h25.1v25.1h25.1v-25.1h-25.1V240.5z M199.6,265.6
	h25.1v25.1h-25.1V265.6z M299.9,315.8v25.1h-25.1h0h-25.1v-25.1h25.1h0H299.9z M199.6,340.9h25.1V366h-25.1V340.9z"/>
<path class="st2" d="M249.7,90.3h-25.1v25.1h25.1V90.3z M152.2,114.8c2,0.5,4.2-0.6,5.5-2.3c1.2-1.7,1.6-3.9,1.7-6
	c0-2-0.2-3.9-0.7-5.8c-0.4-1.5-1-2.9-2-4.1c-1-1.2-2.4-2-3.9-2c-0.9,0-1.8,0.3-2.7,0.8c-3.7,2.1-3.9,6.3-3.7,10.1
	C146.6,108.7,148.7,114,152.2,114.8z M76.9,129.1c-1.7-3-3-6.2-3-9.6v0c0.1-4.9,4.7-11.4,9.9-7c1.4,1.2,2.2,2.9,2.6,4.6
	c0.4,1.8,0.4,3.6,0.2,5.4c-0.1,1.6-0.3,3.1-0.6,4.6c-0.2,1.3-0.5,2.7-1.2,3.8c-0.7,1.1-1.9,2-3.3,2.1c-1.1,0-2.1-0.5-2.9-1.3
	C77.9,131,77.4,130,76.9,129.1z M159.6,232.1c-2.2-0.1-3.8-2.2-4.7-4.2v0c-1.6-3.5-2.2-8.5-1.3-12.3c0.5-2.1,1.9-4.1,3.9-4.6
	c0.7-0.2,1.5-0.2,2.2-0.1c0.9,0.1,1.8,0.2,2.6,0.7c1.5,0.9,2.2,2.7,2.6,4.4c0.8,3.4,0.8,6.9,0.1,10.2c-0.3,1.4-0.8,2.9-1.7,4
	C162.4,231.3,161,232.1,159.6,232.1z M114.4,272.5c1,1.4,2.5,2.6,4.2,2.8c2.2,0.3,4.4-1.1,5.6-3c1.2-1.9,1.5-4.2,1.4-6.4
	c-0.1-2.4-0.7-4.8-1.6-6.9c-0.5-1.2-1.2-2.4-2.3-3.1c-1.2-0.8-2.8-0.9-4.2-0.8c-1.1,0.1-2.3,0.4-3.3,1
	C109.3,259.4,111.7,268.6,114.4,272.5L114.4,272.5z M175,284.5c1.7,4.8,1.4,10.3-0.9,14.8l0,0H167c-3.8-5.2-6.2-13-3.4-18.8
	c1.4-0.1,2.8-0.1,4.2-0.2l0.1,0c1.4-0.1,2.9-0.1,4.3-0.2C173.6,281.2,174.5,282.9,175,284.5z M90.9,206.9H80.3
	c0.1,5.2,1.3,10.4,3.5,15.1c0.6,1.2,1.2,2.4,2.2,3.3c1,0.9,2.4,1.4,3.7,1.2c1.5-0.3,2.6-1.6,3.1-3c0.5-1.4,0.4-3,0.3-4.5
	C92.8,214.8,92,210.8,90.9,206.9L90.9,206.9z M161.8,166.5h9h0c0.9-2.1,1.6-4.4,1.8-6.7c0.2-2.1,0.2-4.2-0.3-6.3
	c-0.5-2.1-1.4-4.1-3-5.5c-1.6-1.5-4-2.4-6.1-1.6c-1.6,0.6-2.8,2.1-3.4,3.7c-0.6,1.6-0.6,3.4-0.5,5.1
	C159.6,159.2,160.4,162.9,161.8,166.5z M109.9,162.3c-2.4,0.2-4.2,2.4-4.8,4.8s0,4.8,0.7,7.1c0.9,2.7,2,5.4,3.3,7.9h7
	c1.3-1.6,1.8-3.5,2.1-5.5c0.4-3.2,0.5-6.5-0.8-9.5C116.2,164.2,113.1,162,109.9,162.3L109.9,162.3z M61.3,175.3
	c-1.2,1.7-3.4,2.8-5.5,2.3c-3.5-0.9-5.6-6.1-5.8-9.4c-0.3-3.8,0-8,3.7-10.1c0.8-0.5,1.7-0.8,2.7-0.8c1.5,0,3,0.8,3.9,2
	c1,1.2,1.6,2.6,2,4.1c0.5,1.9,0.8,3.9,0.7,5.8C62.9,171.4,62.5,173.6,61.3,175.3z M134.2,330.8h7.9c-0.1-2.8-0.8-8.2-1.4-11
	c-0.4-1.8-0.9-3.6-1.8-5.2c-0.9-1.6-2.3-3-4-3.7c-3.3-1.3-7.5,0.7-8.5,4.2c-0.6,1.9-0.2,4,0.6,5.9c0.8,1.8,2,3.5,3.2,5.1
	c0.6,0.8,1.3,1.6,2,2.4C132.9,329.1,133.6,329.9,134.2,330.8z M299.9,115.4H325v25.1h-25.1V115.4z M249.7,165.6h-25.1v25.1h25.1
	V165.6z M224.6,265.6h25.1v25.1h-25.1V265.6z M274.8,290.7h-25.1v25.1h25.1V290.7z M199.6,315.8h25.1v25.1h-25.1V315.8z"/>
<path class="st3" d="M199.6,40.1h25.1v25.1h-25.1V40.1z M249.7,40.1h25.1v25.1h-25.1V40.1z"/>
<path class="st4" d="M199.6,15h25.1v25.1h-25.1V15z M224.6,40.1h25.1v25.1h-25.1V40.1z"/>
<path class="st5" d="M206.4,14.9h-17.5c0,15.6,4.6,40.9-19,39.1c-28.6-2.2-73.2-6.1-106.7,16.9c12.8,16.9,52.2,6,52.2,6l70.7-19.8
	c0,0,3.6,8.1,13.4,8.1L206.4,14.9z"/>
</svg>
