<svg width="400" height="356" viewBox="0 0 400 356" fill="none" xmlns="http://www.w3.org/2000/svg">
<path d="M0 158.836C0 152.358 1.43002 145.961 4.18798 140.101L64 13V13C75.057 -6.56237 104.51 -1.66421 108.64 20.4239L125.128 108.599C127.02 118.715 140.684 120.632 145.286 111.427V111.427C149.828 102.344 163.275 104.058 165.392 113.991L183.878 200.735C186.074 211.041 201.139 209.87 201.717 199.349V199.349C202.17 191.107 212.535 187.747 217.737 194.156L263.799 250.907C278.954 269.579 307.57 269.203 322.229 250.139L325.543 245.828C349.72 214.388 400 231.485 400 271.145V356H0V158.836Z" fill="#91B820"/>
</svg>
