<svg width="400" height="530" viewBox="0 0 400 530" fill="none" xmlns="http://www.w3.org/2000/svg">
<path d="M0 0H195.5V0C193.276 12.3914 196.512 25.1396 204.376 34.9703L208 39.5L215.11 48.8322C226.185 63.3683 240.799 74.8256 257.558 82.1121L266.5 86L290.323 98.1132C294.097 100.032 298.127 101.553 302.224 102.62V102.62C320.965 107.498 336.338 121.465 342.735 139.744V139.744C342.777 139.864 342.955 139.827 342.946 139.701L338.512 73.6263C338.171 68.5486 338.193 63.453 338.577 58.3783L343 0H400V530V530C382.56 514.117 358.216 508.239 335.45 514.415L278 530H189.5L186.134 514.013C178.068 475.699 140.347 451.28 102.088 459.607V459.607C91.8255 461.841 82.1912 466.337 73.8879 472.769L0 530V240V240C88.7841 219.186 181.85 226.584 266.231 261.162L299.8 274.918C299.867 274.945 299.931 274.874 299.896 274.811L271.139 222.448C268.053 216.827 264.467 211.496 260.426 206.517L249.357 192.882C237.971 178.856 223.219 167.941 206.476 161.155L94.6442 115.828C85.9196 112.291 77.6998 107.619 70.1977 101.932L47.0119 84.3558C29.1246 70.7961 15.9546 51.9546 9.3654 30.4976L0 0Z" fill="#2E7323"/>
</svg>
