<svg width="400" height="530" viewBox="0 0 400 530" fill="none" xmlns="http://www.w3.org/2000/svg">
<path d="M53.4696 45.5439C62.038 33.1673 75.6861 25.2639 90.6856 23.9927L114.561 21.9694C121.917 21.346 128.769 17.9791 133.758 12.5372L135.888 10.2136C140.101 5.61708 146.05 3 152.286 3H157.257C159.974 3 162.579 1.92087 164.5 0V0H400V437V437C389.572 443.004 382.443 453.427 380.629 465.322L379 476V476C374.625 496.415 356.584 511 335.705 511H306.5H281.932C265.202 511 248.697 514.851 233.694 522.255L218 530H23.5L21.0241 523.948C19.6953 520.7 19.1903 517.173 19.5539 513.683V513.683C20.6658 503.009 13.6573 493.176 3.20417 490.745L0 490V126L9.77517 113.618C13.2289 109.243 17.4583 105.542 22.252 102.698L27.2824 99.7138C37.956 93.382 44.5 81.8912 44.5 69.4808V69.4808C44.5 62.3306 46.6804 55.3505 50.7504 49.4717L53.4696 45.5439Z" fill="#0E3A25"/>
</svg>
