<svg width="400" height="530" viewBox="0 0 400 530" fill="none" xmlns="http://www.w3.org/2000/svg">
<path d="M77.1335 92.7063C78.5066 93.6418 80.3555 92.5922 80.256 90.9337L79.9082 85.1369C77.6332 47.2193 102.336 12.93 139.023 3.0812L150.5 0H220.5L233.869 7.97C242.22 12.9483 249.593 19.407 255.628 27.0295L258.452 30.5979C263.127 36.503 266.945 43.0388 269.792 50.0115L288.15 94.9691C289.292 97.7668 291.858 99.7282 294.858 100.097V100.097C310.044 101.962 323.947 109.551 333.729 121.316L340.49 129.447C349.596 140.399 351.3 155.724 344.823 168.41V168.41C344.218 169.594 345.078 171 346.408 171H352.878C366.087 171 379.09 174.271 390.728 180.52L400 185.5V530H137.457C121.205 530 105.339 525.05 91.9701 515.81L86.507 512.034C81.2015 508.367 75.3566 505.55 69.183 503.683L46.7592 496.904C40.0144 494.865 32.7173 497.308 28.5599 502.997L27.0045 505.125C26.342 506.032 25.8743 507.066 25.6307 508.162V508.162C25.2228 509.997 24.1922 511.635 22.714 512.796L18 516.5L16.5345 517.477C11.5837 520.778 5.91374 522.843 0 523.5V523.5V82V82C21.57 70.9068 47.4805 72.5032 67.5257 86.1604L77.1335 92.7063Z" fill="#335008"/>
</svg>
