<svg width="400" height="530" viewBox="0 0 400 530" fill="none" xmlns="http://www.w3.org/2000/svg">
<path d="M0 0H176L197.366 100.724C199.45 110.548 200.5 120.562 200.5 130.605V155.167C200.5 167.34 198.956 179.464 195.906 191.248L189.5 216L235.5 292.5L217.925 118.794C215.355 93.3887 219.586 67.757 230.185 44.5259L250.5 0H400V259.5L359 302.5L311.973 339.929C310.768 340.889 310.22 342.456 310.566 343.958L336.733 457.493C338.525 465.269 337.637 473.422 334.213 480.63V480.63C331.457 486.434 327.172 491.378 321.819 494.932L269 530H55L51 514.5L47.8268 495.914C47.6447 494.848 46.6483 494.12 45.5773 494.27L29.9505 496.463C22.7619 497.472 15.4354 496.687 8.62396 494.177L0 491V125L63 259.5L69.5 194V194C72.3867 168.34 65.2014 142.562 49.4577 122.095L29 95.5L5.73998 68.2296C2.03512 63.886 0 58.364 0 52.6549V0Z" fill="#91B820"/>
</svg>
