<svg width="400" height="530" viewBox="0 0 400 530" fill="none" xmlns="http://www.w3.org/2000/svg">
<path d="M0 0H46.9999L45.75 11.3925C45.4834 13.8224 45.4961 16.2749 45.7877 18.702L45.9483 20.038C46.6326 25.7327 49.0635 31.0759 52.907 35.3333V35.3333L58.5296 42.0127C61.4043 45.4277 66.1776 46.5547 70.2762 44.7859V44.7859C72.2139 43.9496 73.8416 42.5282 74.9312 40.7206L84.8837 24.2099L104.07 0H329.242L347.622 15.1553C364.262 28.8764 377.608 46.1602 386.673 65.7303L400 94.5V416.802L382.558 530H83.7209L40.1163 489.432L0 453.444V111.235L36.6279 89.642L19.1508 76.3737C18.3862 75.7932 17.6922 75.1253 17.0829 74.3835V74.3835C10.1153 65.9013 5.12685 55.9722 2.48052 45.319L0 35.3333V0Z" fill="#FF0C90"/>
</svg>
