<svg width="400" height="302" viewBox="0 0 400 302" fill="none" xmlns="http://www.w3.org/2000/svg">
<path d="M0 33.928C0 24.9356 5.54137 16.873 13.9366 13.6506V13.6506C29.6436 7.62165 45.9458 20.9698 43.1343 37.5576L40.2107 54.8068C39.739 57.5898 38.8977 60.2973 37.709 62.8575L27.8972 83.9906C26.9671 85.994 26.1907 88.0652 25.5749 90.1864L20.9271 106.196C18.851 113.346 21.2697 121.045 27.0624 125.723V125.723C29.3223 127.549 31.9807 128.816 34.8218 129.421L44.1125 131.401C53.8701 133.481 63.7075 128.231 67.4127 118.968L67.8 118C69.2266 114.434 71.7915 111.438 75.096 109.48V109.48C80.3165 106.387 86.7704 106.231 92.1335 109.071L93.1751 109.622C102.128 114.362 105.97 125.161 102.023 134.491L100.239 138.708C98.7662 142.189 96.5091 145.282 93.6437 147.746L84.971 155.205C77.1152 161.961 67.5603 166.673 57.432 168.858V168.858C50.9121 170.264 44.1198 170.606 37.4949 169.833V169.833C24.512 168.318 12.3636 162.657 2.85325 153.69L0 151V165.5L4.17313 171.65C7.7076 176.859 10.5094 182.528 12.5 188.5V188.5V188.5C13.8908 193.832 9.24128 198.789 3.83169 197.742L0 197V228L8.74757 269.988C11.1018 281.289 7.84251 293.03 0 301.5V301.5V33.928Z" fill="#106EFD"/>
<path d="M265.555 156.838C256.945 140.26 266.386 120.025 284.622 115.973V115.973C287.523 115.328 290.507 115.142 293.465 115.422L330.708 118.941C345.153 120.306 359.721 119.48 373.92 116.491L400 111V302H316.5H248.5H233L229.746 291.236C227.613 284.182 227.209 276.719 228.567 269.476L229.079 266.745C229.359 265.253 229.802 263.796 230.4 262.401V262.401C233.52 255.119 240.519 250.254 248.432 249.866L315.649 246.571C326.888 246.02 334.751 235.237 331.84 224.368V224.368C330.659 219.961 327.819 216.182 323.915 213.823L306.468 203.283C290.466 193.615 277.441 179.722 268.824 163.13L265.555 156.838Z" fill="#106EFD"/>
</svg>
