<svg width="400" height="483" viewBox="0 0 400 483" fill="none" xmlns="http://www.w3.org/2000/svg">
<path d="M0 0H400V167L385.981 169.337C383.33 169.778 380.717 170.415 378.16 171.242L370.354 173.768C366.84 174.905 363.666 176.901 361.119 179.575V179.575C357.191 183.699 355 189.177 355 194.873V195V195C355 199.958 357.619 204.547 361.887 207.07L363.585 208.073C365.185 209.018 366.925 209.702 368.74 210.099L375.683 211.618C379.848 212.529 383.774 214.307 387.206 216.836L388.976 218.14C390.646 219.371 392.089 220.883 393.239 222.609V222.609C394.076 223.865 394.751 225.221 395.247 226.647L396.607 230.557C397.86 234.16 398.5 237.948 398.5 241.762V241.762C398.5 251.459 394.373 260.697 387.151 267.167L386.446 267.798C378.838 274.614 368.707 277.901 358.547 276.85L349.809 275.946C346.941 275.649 344.099 275.131 341.31 274.397L325.492 270.235C319.924 268.769 314.073 268.759 308.5 270.204L307.117 270.562C304.72 271.184 302.431 272.168 300.331 273.481V273.481C294.691 277.005 290.741 282.686 289.4 289.2L289.244 289.959C288.426 293.932 288.544 298.041 289.589 301.96L290 303.5L292.5 311.5L303.5 339.5L305.528 345.381C307.503 351.109 308.838 357.039 309.507 363.062L309.803 365.728C310.596 372.861 310.215 380.076 308.676 387.086V387.086C307.234 393.657 304.792 399.967 301.436 405.796L300.709 407.058C298.247 411.334 295.233 415.267 291.744 418.756L286.624 423.876C280.415 430.085 272.184 433.861 263.428 434.518V434.518C259.175 434.837 254.9 434.412 250.793 433.262L248.306 432.566C245.777 431.858 243.34 430.856 241.045 429.581L239.746 428.859C234.076 425.709 229.614 420.765 227.059 414.804V414.804C225.697 411.627 223.783 408.715 221.405 406.205L219.384 404.072C217.159 401.723 214.415 399.929 211.371 398.834L210.893 398.662C206.151 396.954 200.931 397.156 196.334 399.225V399.225C194.457 400.07 192.725 401.207 191.205 402.596L189.146 404.475C184.461 408.753 180.96 414.167 178.979 420.193L173.188 437.819C171.405 443.246 168.873 448.398 165.665 453.126L164.442 454.927C162.158 458.294 159.43 461.337 156.333 463.975L153.46 466.423C149.55 469.754 144.863 472.046 139.834 473.086L138.338 473.396C134.824 474.123 131.193 474.048 127.712 473.178L127.124 473.031C119.573 471.143 113.509 465.528 111.048 458.144L110.962 457.886C109.679 454.038 107.349 450.624 104.234 448.028V448.028C97.9508 442.792 89.2669 441.512 81.7401 444.71L74 448L55.5 457.5L30.3353 473.954C21.3517 479.828 10.7139 482.649 0 482V482V0Z" fill="#2C7324"/>
</svg>
