<svg width="400" height="530" viewBox="0 0 400 530" fill="none" xmlns="http://www.w3.org/2000/svg">
<path d="M43 0H191.5L197.808 9.58819C201.93 15.8532 205.556 22.4305 208.653 29.2603L223.5 62L232 90L235.5 62L241.081 40.0731C242.022 36.3788 243.513 32.8471 245.505 29.5968L248.12 25.3301C250.641 21.2174 254.407 18.0153 258.872 16.1889C261.598 15.0736 264.515 14.5 267.46 14.5H268.506C271.809 14.5 275.086 15.0845 278.186 16.2264L279.867 16.8457C281.952 17.6138 283.965 18.563 285.884 19.6824L295 25L304.735 31.7397C306.907 33.2433 309.215 34.5399 311.629 35.6127L315.244 37.2194C316.409 37.7373 317.64 38.0915 318.903 38.2718C322.19 38.7415 325.574 37.9883 328.367 36.1923C330.087 35.0868 331.566 33.6043 332.657 31.8759L339.649 20.8055C341.879 17.275 344.407 13.9421 347.206 10.8433L357 0H371L400 30.5V414.5L399.661 414.635C394.909 416.536 390.436 419.072 386.365 422.174L384.488 423.604C382.833 424.865 381.304 426.283 379.922 427.838L378.995 428.881C375.726 432.558 373.514 437.052 372.593 441.885C372.199 443.955 372.046 446.063 372.138 448.168L372.274 451.291C372.424 454.756 372.907 458.198 373.717 461.57L375.5 469L385 491L400 518.5V530H332.5L323.5 522.5L319.506 520.028C315.182 517.351 310.575 515.161 305.769 513.497L303.369 512.666C301.127 511.89 298.822 511.314 296.479 510.944L295.899 510.853C292.32 510.287 288.676 510.261 285.089 510.773C281.713 511.255 278.422 512.21 275.312 513.609L275.132 513.691C271.729 515.222 268.573 517.249 265.765 519.706L262 523L255.5 530H0V241L3.07971 240.23C11.6749 238.081 20.45 236.73 29.2935 236.194L32.5 236L16 227.5L0 217.5V129L7.5 111.5L0 106V37.5L43 0Z" fill="#2C7324"/>
</svg>
