<svg width="400" height="530" viewBox="0 0 400 530" fill="none" xmlns="http://www.w3.org/2000/svg">
<path d="M0 0H94L111.026 35.7539C116.32 46.8721 120.166 58.6234 122.471 70.7202L125 84L133.5 113.5L135.786 107.265C137.926 101.43 139.627 95.4433 140.876 89.3553L141.175 87.8951C142.389 81.9802 143 75.9577 143 69.9197C143 58.382 141.14 46.9198 137.491 35.9742L133.5 24L122.5 0H400V196.5L379.737 205.75C377.92 206.58 376.213 207.634 374.656 208.887L356.5 223.5L333.029 245.427C324.884 253.036 324.119 265.689 331.288 274.224C336.332 280.228 344.305 282.915 351.954 281.188L370.5 277L400 269V472L361.179 484.94C345.184 490.272 330.249 498.371 317.056 508.869L290.5 530L351 512L400 503V530H0V202.5L6.65468 208.046C16.1784 215.982 24.6373 225.115 31.8217 235.218L37 242.5C37 223.844 31.9815 205.531 22.4706 189.482L21 187L0 160V38.5L2.763 39.6052C4.23032 40.1921 5.82257 40.3972 7.39072 40.2012C13.9262 39.3842 17.5863 32.2416 14.4325 26.4595L0 0Z" fill="#2E7323"/>
</svg>
