<svg width="250" height="558" viewBox="0 0 250 558" fill="none" xmlns="http://www.w3.org/2000/svg">
<path d="M4.13497 85.4215C8.6061 66.2596 18.7891 48.9064 33.3369 35.6575V35.6575C37.1065 32.2245 41.1713 29.0732 45.4321 26.2732V26.2732C52.7426 21.4691 60.714 17.6259 69.0307 14.9139L79.5 11.5L103.5 5L122 1.5L140 0H149.961C162.435 0 174.69 3.27593 185.5 9.5V9.5L187.91 11.0551C214.819 28.4158 229.272 59.7631 225 91.5V91.5L220 109.5L218.512 118.803C218.171 120.931 218 123.083 218 125.238V125.238C218 130.69 219.109 136.122 221.234 141.143V141.143C222.73 144.681 224.726 148.015 227.143 151L237.465 163.751C239.481 166.241 241.193 168.963 242.565 171.859V171.859C247.015 181.255 247.665 192.006 244.377 201.869L240.5 213.5L235.209 225.593C234.073 228.191 233.197 230.896 232.594 233.668L231.822 237.217C231.278 239.72 231.173 242.298 231.512 244.838V244.838C231.835 247.262 232.558 249.617 233.652 251.805L235.975 256.45C237.314 259.129 238.169 262.023 238.5 265V265V265C239.804 270.868 239.342 276.992 237.172 282.598L235.666 286.489C234.89 288.494 233.968 290.439 232.91 292.31L227 302.75L220.572 313.905C219.193 316.297 218.018 318.802 217.059 321.391L216.631 322.547C214.566 328.123 213.67 334.064 214 340V340L216.5 354L216.672 355.638C217.218 360.819 216.648 366.057 215 371V371V371C213.691 376.235 210.985 381.015 207.169 384.831L207 385L202 391L195.5 399.5L194.462 401.205C192.832 403.884 191.653 406.812 190.973 409.872V409.872C190.658 411.289 190.452 412.727 190.355 414.175L190.119 417.716C190.04 418.899 189.788 420.064 189.372 421.175L188.912 422.401C187.723 425.572 184.981 427.904 181.66 428.568L181.491 428.602C180.18 428.864 178.827 428.832 177.53 428.507V428.507C174.972 427.868 172.821 426.143 171.642 423.785L169.814 420.127C169.273 419.045 168.623 418.021 167.876 417.069L166.802 415.702C164.613 412.917 162.015 410.479 159.097 408.473L158.214 407.866C156.407 406.624 154.507 405.525 152.529 404.579L148.15 402.485C145.39 401.165 142.767 399.575 140.32 397.74L137.2 395.4C133.776 392.832 130.961 389.538 128.959 385.755V385.755C127.989 383.924 127.218 381.994 126.659 379.998L125.965 377.516C124.661 372.861 124 368.049 124 363.214V356.5L123.516 352.146C122.556 343.506 117.781 335.749 110.5 331V331L99.6044 322.972C94.2812 319.049 89.9906 313.892 87.1018 307.945L86.0723 305.825C84.0505 301.663 83 297.043 83 292.415V292.415C83 286.95 81.5147 281.524 78.7029 276.838V276.838C76.5899 273.316 73.7798 270.264 70.445 267.867L59.5 260L49 250L42.718 242.933C41.5872 241.661 40.7572 240.15 40.2896 238.514V238.514C40.0969 237.839 39.8422 237.184 39.5286 236.557L39.3123 236.125C38.7724 235.045 38.3523 233.909 38.0595 232.738L37.5 230.5L37.4414 230.031C36.4929 222.443 37.2842 214.739 39.7552 207.503L41.0734 203.642C42.3453 199.917 42.8696 195.978 42.6161 192.05V192.05C42.2154 185.838 39.8868 179.907 35.9548 175.081L33.3279 171.857C31.7788 169.956 30.0696 168.191 28.219 166.582L25.4292 164.156C21.4912 160.731 17.9868 156.838 14.9941 152.563V152.563C11.0243 146.892 8.00095 140.614 6.04178 133.975L3.97449 126.969C1.34942 118.073 0.462972 108.755 1.3636 99.5231V99.5231C1.787 95.1833 2.60264 90.8908 3.80054 86.6981L4 86L4.13497 85.4215Z" fill="#336422"/>
<path d="M120.503 74.4994L137.003 171.5L154.004 269.997L170.503 364.499L181.695 428.022C186.41 454.786 181.389 482.354 167.539 505.736V505.736C161.548 515.848 154.027 524.971 145.243 532.78L145 532.996L137.301 538.128C130.501 542.662 122.868 545.8 114.846 547.362L113.524 547.619C110.515 548.205 107.456 548.5 104.391 548.5L102.243 548.5C94.8894 548.5 87.6766 546.48 81.3928 542.659L78.5698 540.943C70.2795 535.903 64.6266 527.47 63.1134 517.887V517.887C61.7587 509.307 63.8402 500.54 68.9065 493.485L69.6383 492.466C73.1565 487.567 77.8474 483.629 83.2814 481.011L88.346 478.572C97.2984 474.26 107.207 472.316 117.125 472.925L126.5 473.5L138.702 475.452C147.217 476.815 155.592 478.939 163.727 481.8L178.502 486.996L191.99 492.961C200.312 496.641 208.267 501.102 215.747 506.283L224 512L239 523.5" stroke="#1B3927" stroke-width="19"/>
<path d="M76.3848 114.17C76.4512 114.077 76.5822 114.058 76.6719 114.129L123.57 151.263C123.848 151.483 124.242 151.207 124.13 150.871V150.871C124.064 150.674 124.18 150.462 124.382 150.412L141.613 146.104C141.858 146.043 142.117 146.115 142.296 146.293V146.293C142.645 146.642 143.234 146.544 143.451 146.101L165.422 101.184C165.47 101.086 165.588 101.044 165.687 101.092L175.829 105.92C175.928 105.967 175.971 106.086 175.924 106.185L166.128 127.248C166.048 127.419 165.981 127.596 165.926 127.777L159.508 149.005L155.508 169.005L153.508 190.006L154.508 212.005L156.008 223.005L158.008 233.505L158.503 236.973C158.506 236.995 158.508 237.018 158.508 237.041V237.041C158.508 237.543 159.183 237.708 159.415 237.262L165.008 226.505L172.008 213.005L178.008 201.505L181.008 196.005L183.306 190.489C183.416 190.226 183.724 190.108 183.982 190.23L192.546 194.287C192.8 194.407 192.905 194.712 192.78 194.962L182.508 215.505L175.109 236.72C175.042 236.911 174.99 237.106 174.953 237.305L171.008 258.505L170.009 269.505L169.508 280.005L169.508 290.505L170.009 302.005L171.508 314.505L173.138 322.979C173.333 323.998 174.784 324.019 175.009 323.006V323.006L189.008 296.505L195.508 283.005L201.785 270.768C201.909 270.526 202.203 270.428 202.448 270.546L206.508 272.505L210.519 274.288C210.783 274.406 210.893 274.723 210.757 274.979L202.008 291.505L194.008 308.505L188.008 327.506L184.008 350.005L183.008 372.005L183.508 381.505L186.355 405.498C186.676 408.208 184.249 410.437 181.576 409.887L172.43 408.004C170.946 407.698 169.762 406.581 169.371 405.117L164.008 385.005L159.008 371.506L150.508 353.505L140.009 336.506L131.5 326L124.009 318.006L121 314.5L116.5 310.5L111 305.5L107.68 303.128C107.583 303.06 107.568 302.923 107.645 302.834L111 299L113.862 295.184C113.935 295.087 114.077 295.077 114.163 295.163L116.5 297.5L119 299.5L124.009 303.5L134.5 312L154.091 328.161C154.234 328.28 154.447 328.156 154.416 327.973L152.508 317.005L150.008 306.005L146.008 294.005L141.008 282.505L136.508 273.005L130.008 261.505L115.509 241.006L102.508 227.005L94.0081 219.505L87.6554 214.131C87.57 214.059 87.5604 213.931 87.6341 213.847L90.7942 210.241C90.9357 210.08 91.0641 209.907 91.1779 209.725L93.3859 206.192C93.45 206.09 93.5897 206.067 93.6829 206.144L105.007 215.498L117.508 225.505L129.008 235.005L135.008 239.505L137.693 241.737C137.902 241.911 138.092 242.105 138.262 242.318L139.504 243.874C139.634 244.037 139.896 243.917 139.857 243.712L138.007 233.998L136.007 222.998L133.007 211.998L129.009 201.506L124.507 190.498L119.507 179.998L107.509 160.006L97.0069 146.499L88.5069 137.999L79.0069 128.999L75.0069 125.498L70.6662 122.128C70.5789 122.06 70.5632 121.935 70.631 121.847L74.0081 117.505L76.3848 114.17Z" fill="#1B3927"/>
</svg>
