<svg width="235" height="285" viewBox="0 0 235 285" fill="none" xmlns="http://www.w3.org/2000/svg">
<path d="M53.8606 52.6913C54.6633 48.907 55.8515 45.215 57.4066 41.6729L59.0132 38.0135C62.3138 30.4953 67.6984 24.0796 74.5302 19.5251V19.5251C77.5433 17.5164 80.798 15.8965 84.2171 14.7037L100.568 9L128.068 2.5L142.884 1.0184C149.659 0.340866 156.482 0.279854 163.268 0.836116L174.836 1.78424C180.636 2.25969 186.359 3.43022 191.88 5.27066L193.961 5.96433C199.993 7.97496 205.661 10.9449 210.748 14.7598V14.7598C223.722 24.4904 232.132 39.1208 234.011 55.2292L234.568 60V74.3599C234.568 79.6075 232.663 84.6768 229.208 88.626V88.626C228.118 89.8712 227.175 91.2372 226.396 92.6971L225.609 94.1732C224.253 96.7153 222.599 99.0866 220.681 101.237L207.068 116.5V116.5C202.173 122.048 198.991 128.895 197.907 136.213L196.408 146.332C195.849 150.102 194.926 153.808 193.652 157.4L193.584 157.591C191.259 164.143 187.771 170.222 183.287 175.536V175.536C178.843 180.803 173.494 185.233 167.491 188.616L149.068 199L110.068 219.5V219.5C94.1569 227.455 74.8158 220.769 67.2157 204.685L61.5069 192.603C60.2175 189.875 59.2073 187.023 58.4916 184.091L48.4425 142.922C45.5454 131.053 44.601 118.792 45.6463 106.619L46 102.5L48.0679 80L53.8606 52.6913Z" fill="#91B820"/>
<path d="M90.5677 225L95.5676 192.502L99.0679 178L102.568 164L110.068 140.5L120.072 116.494L133.073 93.4933L141.378 81.1691C146.165 74.0661 151.576 67.4043 157.546 61.263L166.072 52.4933L185.573 35.9933" stroke="#2D7323" stroke-width="12"/>
<path d="M77.0679 225L70.9858 218.107C70.0424 217.038 69.1961 215.887 68.4571 214.667L59.5679 200L52.0679 182.507L47.6073 166.889C47.2483 165.632 46.9926 164.347 46.8427 163.049L44.2938 140.958C44.1434 139.655 44.1002 138.342 44.1645 137.031L45 120L45 114.5L45 111.5L45.5 109L46 112L47.4211 129.674C47.5188 130.89 47.709 132.096 47.99 133.282L52.0679 150.5L59.5679 173L67.5679 190L71.8179 196.75L75.0123 201.823C75.7148 202.939 76.5081 203.995 77.3841 204.981L84.0679 212.5L90.0679 218L93.0679 220.5V220.5C93.728 221.16 94.8559 220.848 95.0824 219.942L95.5679 218L97.5688 213.007L104.569 202.007L110.069 194.007L113.815 190.261C115.639 188.437 117.745 186.919 120.052 185.765L123.876 183.853C125.664 182.959 127.557 182.292 129.511 181.867L135.549 180.554C137.224 180.19 138.933 180.007 140.647 180.007L151.26 180.007C152.796 180.007 154.328 179.859 155.835 179.567L184.5 174L179.331 180.196C177.504 182.385 175.302 184.232 172.827 185.649L153 197L132 208L115.921 218.63C113.053 220.526 110.626 223.015 108.804 225.931L102.707 235.685C101.95 236.897 101.302 238.174 100.772 239.502L90.4906 265.239L66.3303 256.287L77.0679 225Z" fill="#0D3A25"/>
</svg>
