<svg width="522" height="467" viewBox="0 0 522 467" fill="none" xmlns="http://www.w3.org/2000/svg">
<path d="M88.8959 261.485C93.2055 246.193 103.873 233.487 118.188 226.595V226.595C121.172 225.157 124.28 223.991 127.473 223.109L167.982 211.921C172.755 210.603 177.683 209.935 182.635 209.935H189.494C192.907 209.935 196.279 209.197 199.38 207.772V207.772C207.787 203.91 213.174 195.506 213.174 186.255V167.735C213.174 156.807 216.579 146.151 222.917 137.248L224.854 134.527C230.969 125.936 239.143 119.017 248.625 114.404L262.081 107.858C268.128 104.916 274.454 102.588 280.965 100.908V100.908C294.941 97.3012 309.529 96.7421 323.74 99.2685L329.728 100.333C369.096 107.332 402.969 132.24 421.385 167.732L474.674 270.435L501.621 328.961C504.978 336.251 507.454 343.915 508.997 351.791L510.11 357.47C516.876 392.002 503.31 427.364 475.182 448.51L473.454 449.809C458.669 460.924 440.672 466.935 422.174 466.935V466.935L333.174 455.435H291.708C278.06 455.435 264.454 453.928 251.137 450.944L213.174 442.435L172.819 430.933C135.687 420.351 106.569 391.476 95.6738 354.435V354.435L85.3135 312.993C81.9455 299.521 82.1553 285.403 85.922 272.038L88.8959 261.485Z" fill="#EB414F"/>
<path d="M152.674 275.435C152.674 282.614 152.853 289.935 145.673 289.935C138.494 289.935 130.174 284.935 127.173 273.435C124.174 265.935 128.494 257.435 135.673 257.435C142.853 257.435 152.674 268.255 152.674 275.435Z" fill="#AD3131"/>
<path d="M175.174 374.435C175.174 381.614 172.854 384.435 165.674 384.435C158.494 384.435 149.155 381.98 146.154 370.48C143.155 362.98 146.011 355.98 153.19 355.98C160.37 355.98 175.174 367.255 175.174 374.435Z" fill="#AD3131"/>
<path d="M308.173 411.928C311.038 418.512 310.258 421.57 303.674 424.435C297.091 427.299 287.674 427.435 279.174 419.935C273.431 414.254 275.591 405.799 282.174 402.934C288.758 400.07 305.308 405.345 308.173 411.928Z" fill="#AD3131"/>
<path d="M419.362 413.744C422.473 420.895 421.777 424.151 415.188 427.018C408.598 429.886 399.049 429.737 390.191 421.428C384.188 415.156 386.115 406.154 392.705 403.287C399.295 400.419 416.25 406.594 419.362 413.744Z" fill="#AD3131"/>
<path d="M475.538 359.7C476.01 367.513 474.348 370.336 467.575 370.745C460.802 371.154 452.367 367.695 447.162 356.793C443.839 348.802 448.438 340.998 455.211 340.589C461.984 340.18 475.066 351.886 475.538 359.7Z" fill="#AD3131"/>
<path d="M421.414 256.237C420.234 264.327 418.014 266.872 411.3 265.893C404.585 264.914 397.057 259.634 394.254 247.408C392.682 238.547 398.821 231.512 405.536 232.492C412.251 233.471 422.594 248.146 421.414 256.237Z" fill="#AD3131"/>
<path d="M337.264 250.613C336.09 258.663 333.888 261.197 327.233 260.226C320.577 259.255 313.118 254.007 310.346 241.844C308.792 233.029 314.882 226.026 321.538 226.997C328.193 227.967 338.438 242.563 337.264 250.613Z" fill="#AD3131"/>
<path d="M244.154 245.454C242.98 253.505 240.747 256.033 233.976 255.046C227.205 254.059 219.606 248.789 216.757 236.615C215.155 227.793 221.331 220.803 228.102 221.791C234.873 222.778 245.328 237.404 244.154 245.454Z" fill="#AD3131"/>
<path d="M370.646 175.527C369.472 183.577 367.239 186.106 360.468 185.118C353.697 184.131 346.098 178.862 343.249 166.687C341.647 157.866 347.823 150.875 354.594 151.863C361.365 152.85 371.82 167.477 370.646 175.527Z" fill="#AD3131"/>
<path d="M281.532 161.582C284.949 168.965 284.461 172.303 278.252 175.177C272.042 178.051 262.798 177.793 253.758 169.155C247.595 162.644 248.946 153.414 255.155 150.54C261.365 147.666 278.115 154.199 281.532 161.582Z" fill="#AD3131"/>
<path d="M264.065 321.435C266.702 328.112 268.516 334.556 261.839 337.193C255.161 339.83 246.628 338.535 239.613 328.941C234.068 323.067 234.964 313.575 241.641 310.937C248.319 308.3 261.428 314.757 264.065 321.435Z" fill="#AD3131"/>
<path d="M373.4 329.176C376.037 335.854 377.851 342.297 371.174 344.934C364.496 347.572 355.963 346.276 348.948 336.682C343.403 330.808 344.299 321.316 350.976 318.679C357.654 316.041 370.763 322.498 373.4 329.176Z" fill="#AD3131"/>
<path d="M290.191 59.0017C286.906 59.9404 283.929 61.7365 281.567 64.2057L275.574 70.4712C274.642 71.4454 273.794 72.4964 273.039 73.6131L262.687 88.9152C262.678 88.9285 262.677 88.93 262.668 88.9433C262.383 89.3662 251.048 106.179 241.175 119.432C235.799 126.649 227.938 136.58 224.043 141.469C222.474 143.438 221.22 145.631 220.327 147.986L217.139 156.391C216.498 158.08 216.05 159.835 215.803 161.624L214.527 170.883C214.293 172.579 214.241 174.295 214.372 176.002L216.081 198.215C216.139 198.962 215.773 199.679 215.135 200.072L203.173 207.43L188.159 214.727C186.525 215.521 184.731 215.934 182.914 215.934L164.219 215.934C163.524 215.934 162.83 215.994 162.146 216.115L140 220L123.76 224.762C123.372 224.876 123.004 225.048 122.667 225.273L105.175 236.934L83.1894 268.045C80.3581 272.052 75.7577 274.434 70.8519 274.434V274.434C65.4787 274.434 60.51 271.58 57.8026 266.939L55.1747 262.434L53.9823 256.075C53.8431 255.332 54.5459 254.709 55.2663 254.937L62.3593 257.177C62.8997 257.347 63.4631 257.434 64.0299 257.434V257.434C65.41 257.434 66.7406 256.92 67.7618 255.991L70.1106 253.856C71.1473 252.914 72.0339 251.818 72.7399 250.608L77.5178 242.417C78.2874 241.098 79.181 239.856 80.1867 238.706L83.9355 234.422C85.0915 233.101 86.389 231.91 87.8046 230.872L90.0179 229.249C90.853 228.637 90.3208 227.315 89.2944 227.452L88.0785 227.614C86.492 227.825 84.8793 227.717 83.3351 227.296L77.4255 225.684C75.6168 225.191 73.9489 224.281 72.5554 223.027L64.6747 215.934L52.6747 205.434L43.6436 197.974C42.026 196.637 40.787 194.9 40.0503 192.936L39.8618 192.433C39.7448 192.121 39.7908 191.772 39.9844 191.501L41.8703 188.86C42.0699 188.581 42.338 188.358 42.6489 188.212L57.1738 181.403C57.8397 181.091 58.5328 180.841 59.2445 180.656L94.6747 171.434C109.287 167.892 122.331 169.055 133.807 172.146C134.842 172.425 135.607 171.081 134.817 170.356L121.445 158.1C120.599 157.324 119.698 156.61 118.749 155.963L109.174 149.435L98.9325 141.521C98.4338 141.135 98.0332 140.638 97.7634 140.068L94.5866 133.362C93.9828 132.087 93.6085 130.716 93.4808 129.311L93.2968 127.287C93.2226 126.471 93.656 125.693 94.3887 125.327V125.327C94.8889 125.077 95.4712 125.049 95.9931 125.25L99.9538 126.773C101.094 127.211 102.294 127.473 103.513 127.55L108.446 127.858C109.262 127.909 110.082 127.876 110.892 127.761L119.33 126.555C119.892 126.475 120.459 126.435 121.027 126.435L130.592 126.435C131.312 126.435 132.03 126.499 132.738 126.628L141.485 128.218C142.276 128.362 143.05 128.585 143.795 128.883L151.363 131.91C152.234 132.259 153.061 132.708 153.827 133.249L159.347 137.145C159.824 137.482 160.435 136.957 160.174 136.435V136.435L155.674 125.935L150.638 116.321C150.329 115.731 149.971 115.168 149.569 114.637L139.174 100.935L135.086 95.9387C134.812 95.6037 134.576 95.2392 134.383 94.852L133.653 93.3927C133.058 92.2032 133.224 90.7744 134.075 89.7528V89.7528C134.765 88.9252 135.811 88.4801 136.885 88.5568L140.932 88.8459C141.757 88.9048 142.574 89.0545 143.366 89.2922L147.174 90.4346L153.736 92.7505C155.018 93.2032 156.369 93.4346 157.729 93.4346L164.101 93.4346C165.145 93.4346 166.185 93.5708 167.193 93.8398L170.678 94.7691C172.326 95.2084 173.871 95.9677 175.225 97.0035L179.775 100.483C181.029 101.441 182.081 102.637 182.871 104.003L187.174 111.435L191.144 120.257C191.496 121.04 191.763 121.858 191.941 122.698L195.942 141.61C196.175 142.713 197.772 142.646 197.912 141.527L199.174 131.435L201.674 115.435L204.524 106.07C204.956 104.649 205.519 103.272 206.206 101.956L211.174 92.4351L213.414 88.7019C213.919 87.8606 214.525 87.0843 215.219 86.3905L219.674 81.9351L223.129 78.4797C223.823 77.7859 224.599 77.1799 225.441 76.6751L231.339 73.1363C231.562 73.0025 231.797 72.8908 232.042 72.8027L243.697 68.6068C244.014 68.4928 244.343 68.4192 244.679 68.3878L257.536 67.1824C259.274 67.0195 260.955 66.4796 262.462 65.6002L266.174 63.4351L274.164 57.7278C275.811 56.5518 277.728 55.8112 279.737 55.5748L283.987 55.0748C284.761 54.9837 285.546 55.1209 286.243 55.4697L290.329 57.5128C290.984 57.84 290.894 58.8007 290.191 59.0017V59.0017Z" fill="#80AD63"/>
</svg>
