<svg width="141" height="324" viewBox="0 0 141 324" fill="none" xmlns="http://www.w3.org/2000/svg">
<path d="M14.7476 29.5C17.1433 21.6699 24.7713 16.6523 32.91 17.553L34.9224 17.7758C36.2549 17.9232 37.5349 18.3785 38.6611 19.1057L39.9024 19.907C39.9975 19.9685 40.0802 20.0473 40.1461 20.1395L43.1551 24.3487C43.3653 24.6427 43.8215 24.3898 43.6835 24.0558V24.0558C43.6683 24.0189 43.6605 23.9795 43.6605 23.9397V22V19.1491C43.6605 16.7289 44.0082 14.3213 44.6931 12V12L45.112 10.9858C46.1979 8.35666 47.8127 5.97887 49.8561 4V4V4C53.2029 1.40708 57.3166 0 61.5503 0H63.7963V0C70.5825 0.857212 75.6712 6.62914 75.6712 13.4693V16.6441C75.6712 17.5466 75.6001 18.4478 75.4585 19.3391L74.6536 24.4054C74.6436 24.4684 74.6386 24.532 74.6386 24.5958V26.6789C74.6386 27.2348 75.356 27.4579 75.6712 27V27V27C77.0135 25.375 78.8354 24.2162 80.8761 23.6892L81.9821 23.4036C84.2744 22.8116 86.682 22.8323 88.9637 23.4637L89.398 23.5838C91.5628 24.1828 93.5188 25.3712 95.048 27.0166V27.0166C96.5576 28.6411 97.593 30.6484 98.0416 32.8202L98.3496 34.3116C99.0484 37.6953 98.7344 41.21 97.4468 44.4163L97.1529 45.1482C96.2627 47.3651 94.9861 49.4065 93.3826 51.1774L66.6346 80.7164C66.4801 80.887 66.4477 81.1355 66.5533 81.34V81.34C66.723 81.6688 67.1619 81.7407 67.4276 81.4833L70.2282 78.7711C70.4143 78.591 70.62 78.4323 70.8416 78.2982L74.6386 76L76.8318 75.0346C79.1251 74.0251 81.62 73.5573 84.1232 73.6675L85.7999 73.7413C89.5273 73.9054 92.9938 75.7009 95.2783 78.6507V78.6507C95.9718 79.5462 96.5424 80.5305 96.9748 81.5774L97.6772 83.2779C98.1468 84.4149 98.3885 85.6331 98.3885 86.8632V86.8632C98.3885 89.2031 97.515 91.4587 95.9391 93.1883L93.014 96.3987C91.4453 98.1204 89.5961 99.5638 87.5449 100.667L61.1381 114.875C59.1811 115.927 57.6351 117.608 56.7491 119.646L56.0437 121.268C54.8085 124.11 51.9289 125.875 48.8364 125.688V125.688C46.8478 125.568 44.9925 124.648 43.693 123.138L43.6406 123.077C43.3105 122.693 43.0197 122.277 42.7727 121.836L41.1304 118.9C38.0403 113.375 33.7128 108.641 28.487 105.069L18.878 98.5L9.30524 89.7748C4.46083 85.3593 2.70521 78.4864 4.83852 72.2886L5.17101 71.3226C5.69812 69.7912 6.54005 68.3871 7.6426 67.2007V67.2007C9.5599 65.1376 12.1622 63.8425 14.9642 63.5569L15.8395 63.4676C18.8184 63.164 21.8158 63.8277 24.388 65.3606L25.3911 65.9584C26.5523 66.6505 27.6293 67.475 28.6004 68.4154L34.3077 73.9425C34.3457 73.9794 34.3967 74 34.4497 74V74C34.6225 74 34.7172 73.7989 34.6072 73.6657L32.938 71.6451C32.8584 71.5488 32.7918 71.4425 32.7396 71.3289L30.2104 65.8179C29.1968 63.6092 28.0161 61.481 26.6787 59.4519L18.4958 47.0368C15.0896 41.8688 13.7516 35.6088 14.7476 29.5V29.5V29.5Z" fill="#325009"/>
<path d="M25.0734 277.5L22.4919 273.5L20.4312 269.006L17.8452 262.5L17.1586 259.617C16.5859 257.213 16.2968 254.752 16.2968 252.28V252.28C16.2968 246.213 18.038 240.253 21.3254 235.068L21.7331 234.425C27.1494 225.882 36.0259 219.939 46.161 218.069L48.9605 217.553C50.9328 217.189 52.9347 217.006 54.9396 217.006V217.006C59.42 217.006 63.8431 217.92 67.9217 219.69L69.214 220.25C74.152 222.392 78.5616 225.523 82.1557 229.439L84.9649 232.5L87.5464 235" stroke="#009F67" stroke-width="12.5"/>
<path d="M49.6417 48.5717C50.3739 45.5936 53.0446 43.5 56.1114 43.5V43.5C60.3399 43.5 63.4986 47.3884 62.6323 51.5272L57.1688 77.6295C56.7693 79.5381 56.568 81.4828 56.568 83.4327V106.5L57.9597 127.165C58.0643 128.72 58.2824 130.264 58.612 131.787L64.3337 158.213C64.6633 159.736 65.1037 161.232 65.6513 162.69L75.1548 188L95.2906 233.5L105.1 254.5L115.943 275L128.85 296L140.209 316L128.85 323.5L97.3558 268L69.9918 213.5L51.405 164L47.7908 150.5L45.2093 138L41.5952 111V93L42.9307 77.4796C43.0728 75.829 43.3428 74.192 43.7383 72.5832L49.6417 48.5717Z" fill="#009F67"/>
<path d="M19.3941 280.5L30.2365 274L32.818 277L36.4321 280.5L44.1766 286L53.9863 289.5L62.2472 291.5L59.1494 300.5L55.0189 309.5L48.307 306.5L45.7255 305.25L43.144 304L40.5625 302L38.4973 300V305V308.267C38.4973 309.752 38.3593 311.235 38.0852 312.695L37.9786 313.263C37.6371 315.082 37.0865 316.855 36.3376 318.547L35.9158 319.5L33.2701 319.756C31.5965 319.918 29.9105 319.904 28.2399 319.714L21.9756 319L17.8452 318.5L21.6177 307.905C22.5379 305.321 23.0082 302.598 23.0082 299.855V295.93C23.0082 293.984 22.7716 292.045 22.3035 290.156L21.4593 286.75L19.3941 280.5Z" fill="#325009"/>
</svg>
