<svg width="136" height="324" viewBox="0 0 136 324" fill="none" xmlns="http://www.w3.org/2000/svg">
<path d="M14.3964 29.1129C16.6434 21.5295 24.0116 16.6548 31.8696 17.5529L33.7804 17.7713C35.0957 17.9216 36.3563 18.383 37.4578 19.1173L38.6428 19.9074C38.7346 19.9686 38.814 20.0466 38.8768 20.1372L41.7817 24.3333C41.9836 24.625 42.4348 24.3826 42.303 24.0532V24.0532C42.289 24.0181 42.2817 23.9805 42.2817 23.9427V22V19.1401C42.2817 16.7251 42.6183 14.322 43.2817 12V12L43.7061 10.9392C44.7457 8.34016 46.3024 5.97937 48.2817 4V4V4C51.5184 1.41068 55.5399 0 59.6849 0H61.7817V0C68.3604 0.858086 73.2817 6.46303 73.2817 13.0974V16.6781C73.2817 17.5581 73.2145 18.4368 73.0807 19.3066L72.2955 24.4105C72.2863 24.4701 72.2817 24.5303 72.2817 24.5905V26.6972C72.2817 27.2373 72.9822 27.4494 73.2817 27V27V27C74.5808 25.3761 76.3658 24.2109 78.3752 23.6751L79.3584 23.4129C81.5987 22.8155 83.959 22.8364 86.1884 23.4733L86.4724 23.5545C88.6349 24.1723 90.5797 25.3866 92.0842 27.0583V27.0583C93.5226 28.6566 94.5043 30.6127 94.926 32.7212L95.2504 34.3433C95.9239 37.7108 95.6204 41.2006 94.3757 44.4013L94.0993 45.112C93.2276 47.3534 91.9706 49.425 90.385 51.2331L64.5223 80.7257C64.3768 80.8916 64.3462 81.129 64.4449 81.3264V81.3264C64.6106 81.6578 65.0523 81.7294 65.3143 81.4674L68.0162 78.7655C68.1927 78.5891 68.3886 78.4332 68.6001 78.301L72.2817 76L74.3976 75.0382C76.622 74.0272 79.0544 73.5578 81.4952 73.6688L82.9296 73.734C86.6351 73.9024 90.0711 75.7191 92.2967 78.6866V78.6866C92.9505 79.5584 93.4868 80.5125 93.8915 81.5244L94.5924 83.2767C95.0478 84.4151 95.2817 85.6299 95.2817 86.856V86.856C95.2817 89.2042 94.4244 91.4716 92.8708 93.2324L90.127 96.342C88.5749 98.1011 86.7338 99.5822 84.6831 100.721L59.231 114.862C57.3202 115.923 55.8207 117.595 54.9725 119.609L54.2174 121.403C53.0582 124.156 50.2848 125.875 47.3033 125.689V125.689C45.3746 125.568 43.5807 124.659 42.3436 123.174L42.2507 123.063C41.9388 122.689 41.6649 122.284 41.4328 121.856L39.8426 118.92C36.8426 113.382 32.6045 108.61 27.4585 104.978L18.2817 98.5L9.09558 89.8542C4.33137 85.3702 2.60607 78.527 4.67497 72.3203L5.03311 71.2459C5.52689 69.7646 6.32086 68.401 7.36543 67.2403V67.2403C9.24284 65.1543 11.8262 63.8374 14.6172 63.5436L15.3157 63.4701C18.2114 63.1653 21.1265 63.8276 23.6063 65.3536L24.6155 65.9746C25.7225 66.6559 26.746 67.4643 27.6652 68.3835L33.223 73.9413C33.2606 73.9789 33.3116 74 33.3648 74V74C33.5328 74 33.6262 73.8056 33.5212 73.6744L31.8985 71.6459C31.821 71.549 31.7562 71.4426 31.7058 71.3292L29.2536 65.8116C28.2737 63.607 27.13 61.4789 25.8319 59.4453L17.9564 47.107C14.6224 41.8837 13.3153 35.6208 14.2817 29.5V29.5L14.3964 29.1129Z" fill="#325009"/>
<path d="M24.2817 277.5L21.7817 273.5L19.7861 269.006L17.2817 262.5L16.6215 259.638C16.0638 257.22 15.7822 254.747 15.7822 252.265V252.265C15.7822 246.207 17.4603 240.266 20.6305 235.103L21.0495 234.421C26.296 225.876 34.8998 219.936 44.7498 218.06L47.4274 217.55C49.329 217.188 51.2604 217.006 53.1961 217.006V217.006C57.5404 217.006 61.8356 217.924 65.8002 219.7L67.0179 220.245C71.8062 222.39 76.0847 225.527 79.5705 229.449L82.2822 232.5L84.7822 235" stroke="#91B820" stroke-width="12.5"/>
<path d="M48.1002 48.4625C48.7929 45.5532 51.3923 43.5 54.3829 43.5V43.5C58.4653 43.5 61.5236 47.2404 60.7125 51.2414L55.3504 77.6948C54.9722 79.5603 54.7817 81.4588 54.7817 83.3622V106.5L56.1341 127.236C56.2324 128.743 56.4373 130.242 56.7473 131.72L62.3144 158.271C62.6256 159.755 63.0418 161.215 63.56 162.64L72.7817 188L92.2817 233.5L101.782 254.5L112.282 275L124.782 296L135.782 316L124.782 323.5L94.2817 268L67.7817 213.5L49.7817 164L46.2817 150.5L43.7817 138L40.2817 111V93L41.5813 77.4059C41.7147 75.8042 41.9687 74.2149 42.3409 72.6515L48.1002 48.4625Z" fill="#91B820"/>
<path d="M18.7817 280.5L29.2817 274L31.7817 277L35.2817 280.5L42.7817 286L52.2817 289.5L60.2817 291.5L57.2817 300.5L53.2817 309.5L46.7817 306.5L44.2817 305.25L41.7817 304L39.2817 302L37.2817 300V305V308.336C37.2817 309.776 37.1522 311.213 36.8946 312.629L36.7669 313.332C36.4445 315.105 35.9234 316.836 35.2135 318.493L34.7817 319.5L32.3803 319.74C30.653 319.913 28.9121 319.898 27.1881 319.695L21.2817 319L17.2817 318.5L20.9707 307.802C21.8387 305.285 22.2817 302.641 22.2817 299.978V295.84C22.2817 293.953 22.0593 292.073 21.619 290.239L20.7817 286.75L18.7817 280.5Z" fill="#325009"/>
</svg>
